<svg width="222" height="39" viewBox="0 0 222 39" fill="none" xmlns="http://www.w3.org/2000/svg">
<path d="M42.5989 32.4746C41.8771 32.4746 41.2123 32.2942 40.6045 31.9333C40.0157 31.5724 39.5408 31.0975 39.1799 30.5087C38.838 29.9199 38.6671 29.2646 38.6671 28.5428V22.3317H51.7161V20.0239C51.7161 19.9289 51.6782 19.8529 51.6022 19.796C51.5452 19.72 51.4692 19.682 51.3742 19.682H38.6671V15.9496H51.5167C52.2385 15.9496 52.8938 16.1301 53.4826 16.491C54.0904 16.8518 54.5653 17.3267 54.9072 17.9155C55.2681 18.5043 55.4485 19.1596 55.4485 19.8814V32.4746H42.5989ZM42.7414 28.7422H51.7161V25.6937H42.3995V28.4003C42.3995 28.4953 42.428 28.5808 42.4849 28.6568C42.5609 28.7137 42.6464 28.7422 42.7414 28.7422ZM62.1251 32.4746C61.3843 32.4746 60.7195 32.2942 60.1307 31.9333C59.5418 31.5724 59.067 31.0975 58.7061 30.5087C58.3642 29.9199 58.1933 29.2646 58.1933 28.5428V19.8814C58.1933 19.1596 58.3642 18.5043 58.7061 17.9155C59.067 17.3267 59.5418 16.8518 60.1307 16.491C60.7195 16.1301 61.3843 15.9496 62.1251 15.9496H71.2708V10.5363H75.0032V32.4746H62.1251ZM62.296 28.7422H70.9289C71.0239 28.7422 71.0998 28.7137 71.1568 28.6568C71.2328 28.5808 71.2708 28.4953 71.2708 28.4003V20.0239C71.2708 19.9289 71.2328 19.8529 71.1568 19.796C71.0998 19.72 71.0239 19.682 70.9289 19.682H62.296C62.201 19.682 62.1156 19.72 62.0396 19.796C61.9826 19.8529 61.9541 19.9289 61.9541 20.0239V28.4003C61.9541 28.4953 61.9826 28.5808 62.0396 28.6568C62.1156 28.7137 62.201 28.7422 62.296 28.7422ZM81.0431 38.9991V35.2383H90.9866C91.0816 35.2383 91.1575 35.2003 91.2145 35.1243C91.2905 35.0673 91.3285 34.9913 91.3285 34.8964V32.4746H82.2112C81.5085 32.4746 80.8532 32.2942 80.2453 31.9333C79.6565 31.5724 79.1817 31.0975 78.8208 30.5087C78.4599 29.9199 78.2794 29.2646 78.2794 28.5428V19.8814C78.2794 19.1596 78.4599 18.5043 78.8208 17.9155C79.1817 17.3267 79.6565 16.8518 80.2453 16.491C80.8532 16.1301 81.5085 15.9496 82.2112 15.9496H91.1575C91.8793 15.9496 92.5346 16.1301 93.1234 16.491C93.7123 16.8518 94.1776 17.3267 94.5195 17.9155C94.8804 18.5043 95.0609 19.1596 95.0609 19.8814V35.0673C95.0609 35.8081 94.8899 36.4729 94.548 37.0617C94.2061 37.6505 93.7313 38.1159 93.1234 38.4578C92.5346 38.8187 91.8793 38.9991 91.1575 38.9991H81.0431ZM82.3537 28.7422H90.9866C91.0816 28.7422 91.1575 28.7137 91.2145 28.6568C91.2905 28.5808 91.3285 28.4953 91.3285 28.4003V20.0239C91.3285 19.9289 91.2905 19.8529 91.2145 19.796C91.1575 19.72 91.0816 19.682 90.9866 19.682H82.3537C82.2587 19.682 82.1733 19.72 82.0973 19.796C82.0403 19.8529 82.0118 19.9289 82.0118 20.0239V28.4003C82.0118 28.4953 82.0403 28.5808 82.0973 28.6568C82.1733 28.7137 82.2587 28.7422 82.3537 28.7422ZM101.93 32.4746C101.209 32.4746 100.553 32.2942 99.9645 31.9333C99.3757 31.5724 98.9008 31.0975 98.5399 30.5087C98.179 29.9199 97.9986 29.2646 97.9986 28.5428V19.8814C97.9986 19.1596 98.179 18.5043 98.5399 17.9155C98.9008 17.3267 99.3757 16.8518 99.9645 16.491C100.553 16.1301 101.209 15.9496 101.93 15.9496H110.848C111.57 15.9496 112.225 16.1301 112.814 16.491C113.422 16.8518 113.897 17.3267 114.239 17.9155C114.6 18.5043 114.78 19.1596 114.78 19.8814V26.0925H101.731V28.4003C101.731 28.4953 101.759 28.5808 101.816 28.6568C101.892 28.7137 101.978 28.7422 102.073 28.7422H114.78V32.4746H101.93ZM101.731 22.7306H111.048V20.0239C111.048 19.9289 111.01 19.8529 110.934 19.796C110.877 19.72 110.801 19.682 110.706 19.682H102.073C101.978 19.682 101.892 19.72 101.816 19.796C101.759 19.8529 101.731 19.9289 101.731 20.0239V22.7306ZM122.284 32.4746C121.562 32.4746 120.907 32.2942 120.318 31.9333C119.729 31.5724 119.255 31.0975 118.894 30.5087C118.533 29.9199 118.352 29.2646 118.352 28.5428V10.8782H122.085V15.9496H128.524V19.682H122.085V28.4003C122.085 28.4953 122.113 28.5808 122.17 28.6568C122.246 28.7137 122.332 28.7422 122.427 28.7422H128.524V32.4746H122.284ZM135.903 32.4746C135.181 32.4746 134.516 32.2942 133.908 31.9333C133.319 31.5724 132.844 31.0975 132.484 30.5087C132.142 29.9199 131.971 29.2646 131.971 28.5428V22.3317H145.02V20.0239C145.02 19.9289 144.982 19.8529 144.906 19.796C144.849 19.72 144.773 19.682 144.678 19.682H131.971V15.9496H144.82C145.542 15.9496 146.197 16.1301 146.786 16.491C147.394 16.8518 147.869 17.3267 148.211 17.9155C148.572 18.5043 148.752 19.1596 148.752 19.8814V32.4746H135.903ZM136.045 28.7422H145.02V25.6937H135.703V28.4003C135.703 28.4953 135.732 28.5808 135.789 28.6568C135.865 28.7137 135.95 28.7422 136.045 28.7422ZM151.739 32.4746V19.8814C151.739 19.1596 151.919 18.5043 152.28 17.9155C152.641 17.3267 153.116 16.8518 153.705 16.491C154.313 16.1301 154.968 15.9496 155.671 15.9496H164.845V19.682H155.813C155.718 19.682 155.633 19.72 155.557 19.796C155.5 19.8529 155.471 19.9289 155.471 20.0239V32.4746H151.739ZM167.584 32.4746V15.9496H171.316V32.4746H167.584ZM167.584 14.2971V10.5363H171.316V14.2971H167.584ZM178.43 32.4746C177.708 32.4746 177.043 32.2942 176.436 31.9333C175.847 31.5724 175.372 31.0975 175.011 30.5087C174.669 29.9199 174.498 29.2646 174.498 28.5428V15.9496H178.23V28.4003C178.23 28.4953 178.259 28.5808 178.316 28.6568C178.392 28.7137 178.477 28.7422 178.572 28.7422H187.205C187.3 28.7422 187.376 28.7137 187.433 28.6568C187.509 28.5808 187.547 28.4953 187.547 28.4003V15.9496H191.28V28.5428C191.28 29.2646 191.099 29.9199 190.738 30.5087C190.396 31.0975 189.931 31.5724 189.342 31.9333C188.753 32.2942 188.088 32.4746 187.348 32.4746H178.43ZM194.211 32.4746V15.9496H214.697C215.437 15.9496 216.102 16.1301 216.691 16.491C217.28 16.8518 217.745 17.3267 218.087 17.9155C218.448 18.5043 218.628 19.1596 218.628 19.8814V32.4746H214.924V20.0239C214.924 19.9289 214.886 19.8529 214.81 19.796C214.735 19.72 214.649 19.682 214.554 19.682H208.656C208.561 19.682 208.476 19.72 208.4 19.796C208.343 19.8529 208.314 19.9289 208.314 20.0239V32.4746H204.554V20.0239C204.554 19.9289 204.516 19.8529 204.44 19.796C204.383 19.72 204.307 19.682 204.212 19.682H198.285C198.191 19.682 198.105 19.72 198.029 19.796C197.972 19.8529 197.944 19.9289 197.944 20.0239V32.4746H194.211Z" fill="white"/>
<rect y="2.18066" width="34.6546" height="34.9" fill="#CB11AB"/>
<path d="M17.3248 32.3526C15.6795 32.3526 14.1303 32.0534 12.6772 31.4551C11.2455 30.8568 9.99544 30.0341 8.92702 28.987C7.85859 27.9186 7.01453 26.6792 6.39485 25.2689C5.79653 23.8372 5.49737 22.2987 5.49737 20.6533C5.49737 19.0079 5.80721 17.4801 6.4269 16.0698C7.04659 14.6594 7.90133 13.4308 8.99112 12.3837C10.1023 11.3153 11.3951 10.4926 12.8695 9.91563C14.3439 9.31731 15.9252 9.01815 17.6133 9.01815C19.5579 9.01815 21.3208 9.37073 22.902 10.0759C24.5047 10.7811 25.8295 11.7533 26.8766 12.9927L23.4469 16.4223C22.7204 15.4821 21.8657 14.777 20.8827 14.3069C19.8998 13.8368 18.7886 13.6017 17.5492 13.6017C16.2244 13.6017 15.0384 13.9009 13.9914 14.4992C12.9443 15.0761 12.1216 15.8988 11.5233 16.9672C10.9463 18.0143 10.6579 19.243 10.6579 20.6533C10.6579 22.0636 10.9463 23.303 11.5233 24.3714C12.1002 25.4399 12.8909 26.2732 13.8952 26.8716C14.8995 27.4699 16.0534 27.769 17.3569 27.769C18.6817 27.769 19.8036 27.5233 20.7224 27.0318C21.6627 26.519 22.3785 25.7924 22.87 24.8522C23.3828 23.8906 23.6392 22.7261 23.6392 21.3585L26.9727 23.6022L16.8761 23.4419V19.1789H28.7677V19.9161C28.7677 22.6299 28.2762 24.9163 27.2933 26.7754C26.3317 28.6131 24.9855 30.002 23.2546 30.9423C21.5451 31.8825 19.5685 32.3526 17.3248 32.3526Z" fill="white"/>
</svg>
