<svg width="20" height="21" viewBox="0 0 20 21" fill="none" xmlns="http://www.w3.org/2000/svg">
<g clip-path="url(#clip0_2296_11098)">
<path d="M16.667 13C17.1272 13 17.5003 13.3731 17.5003 13.8333V15.5H19.167C19.6272 15.5 20.0003 15.8731 20.0003 16.3333C20.0003 16.7936 19.6272 17.1667 19.167 17.1667H17.5003V18.8333C17.5003 19.2936 17.1272 19.6667 16.667 19.6667C16.2068 19.6667 15.8337 19.2936 15.8337 18.8333V17.1667H14.167C13.7068 17.1667 13.3337 16.7936 13.3337 16.3333C13.3337 15.8731 13.7068 15.5 14.167 15.5H15.8337V13.8333C15.8337 13.3731 16.2068 13 16.667 13ZM17.507 3C17.9637 3 18.3337 3.37083 18.3337 3.8275V10.5C18.3337 10.9602 17.9606 11.3333 17.5003 11.3333C17.0401 11.3333 16.667 10.9602 16.667 10.5V4.66667H3.33366V16.3325L10.9599 8.70704C11.3504 8.31655 11.9836 8.31656 12.3741 8.70707L13.9229 10.2559C14.0792 10.4122 14.167 10.6242 14.167 10.8452C14.167 11.5878 13.2692 11.9597 12.7441 11.4346L11.667 10.3575L5.68949 16.3333H10.8337C11.2939 16.3333 11.667 16.7064 11.667 17.1667C11.667 17.6269 11.2939 18 10.8337 18H2.49366C2.27434 17.9998 2.06407 17.9125 1.90907 17.7573C1.75406 17.6022 1.66699 17.3918 1.66699 17.1725V3.8275C1.66852 3.60865 1.75608 3.39918 1.91075 3.24435C2.06543 3.08951 2.27481 3.00175 2.49366 3H17.507ZM6.66699 6.33333C7.10902 6.33333 7.53294 6.50893 7.8455 6.82149C8.15806 7.13405 8.33366 7.55797 8.33366 8C8.33366 8.44203 8.15806 8.86595 7.8455 9.17851C7.53294 9.49107 7.10902 9.66667 6.66699 9.66667C6.22497 9.66667 5.80104 9.49107 5.48848 9.17851C5.17592 8.86595 5.00033 8.44203 5.00033 8C5.00033 7.55797 5.17592 7.13405 5.48848 6.82149C5.80104 6.50893 6.22497 6.33333 6.66699 6.33333Z" fill="#91969E"/>
</g>
<defs>
<clipPath id="clip0_2296_11098">
<rect width="20" height="20" fill="white" transform="translate(0 0.5)"/>
</clipPath>
</defs>
</svg>
