<svg width="32" height="24" viewBox="0 0 32 24" fill="none" xmlns="http://www.w3.org/2000/svg">
<path d="M25.2882 7.57881C25.9694 7.57881 26.5217 7.01327 26.5217 6.31565C26.5217 5.61803 25.9694 5.05249 25.2882 5.05249C24.6069 5.05249 24.0547 5.61803 24.0547 6.31565C24.0547 7.01327 24.6069 7.57881 25.2882 7.57881Z" fill="#292929"/>
<path d="M11.4461 1.89446C11.5978 1.89446 11.7199 1.78203 11.7199 1.64186V0.883952C11.7199 0.745004 11.5978 0.631348 11.4461 0.631348H9.52674C9.37505 0.631348 9.25293 0.743778 9.25293 0.883952V1.64186C9.25293 1.7808 9.37505 1.89446 9.52674 1.89446H11.4461Z" fill="#292929"/>
<path d="M18.5049 16.4211C21.5701 16.4211 24.0557 13.8757 24.0557 10.7368C24.0557 7.59779 21.5701 5.05249 18.5049 5.05249C15.4396 5.05249 12.9541 7.59779 12.9541 10.7368C12.9541 13.8757 15.4396 16.4211 18.5049 16.4211ZM18.5049 6.31569C20.8892 6.31569 22.8221 8.29507 22.8221 10.7368C22.8221 13.1784 20.8892 15.1579 18.5049 15.1579C16.1205 15.1579 14.1876 13.1784 14.1876 10.7368C14.1876 8.29507 16.1205 6.31569 18.5049 6.31569Z" fill="#292929"/>
<path d="M4.31934 5.05264V17.6844C4.31934 20.2107 6.78633 20.2107 6.78633 20.2107H28.9894C28.9894 20.2107 31.4565 20.2107 31.4565 17.6844V5.05264C31.4565 2.52632 28.9894 2.52632 28.9894 2.52632H24.3021L22.9921 0.291791C22.8984 0.130094 22.6714 0 22.4938 0H14.5155C14.3342 0 14.1084 0.135179 14.0171 0.291791L12.7071 2.52632H6.78633C6.78633 2.52627 4.31934 2.52627 4.31934 5.05264ZM13.5386 3.78948L14.9127 1.26311H21.9782L23.541 3.78948H28.9759C28.9759 3.78948 30.2229 3.78948 30.2229 5.07538V17.6603C30.2229 18.9475 28.9759 18.9475 28.9759 18.9475H6.7999C6.7999 18.9475 5.55283 18.9475 5.55283 17.6603V5.07538C5.55283 3.78948 6.7999 3.78948 6.7999 3.78948H13.5386Z" fill="#292929"/>
<ellipse cx="6.25748" cy="18.045" rx="5.8151" ry="5.95493" fill="white"/>
<path d="M4.61742 23.7888V15.8799H5.92802V23.7888H4.61742ZM1.41113 20.5054V19.1633H9.13431V20.5054H1.41113Z" fill="#292929"/>
</svg>
