<svg width="22" height="22" viewBox="0 0 22 22" fill="none" xmlns="http://www.w3.org/2000/svg">
<path d="M12.4156 9.58427C11.6648 8.83373 10.6466 8.41211 9.58494 8.41211C8.5233 8.41211 7.50512 8.83373 6.75427 9.58427L3.92269 12.4149C3.17183 13.1658 2.75 14.1842 2.75 15.2461C2.75 16.3079 3.17183 17.3263 3.92269 18.0772C4.67355 18.828 5.69194 19.2499 6.75381 19.2499C7.81569 19.2499 8.83408 18.828 9.58494 18.0772L11.0003 16.6618" stroke="#91969E" stroke-width="2" stroke-linecap="round" stroke-linejoin="round"/>
<path d="M9.58496 12.4156C10.3358 13.1661 11.354 13.5878 12.4156 13.5878C13.4773 13.5878 14.4954 13.1661 15.2463 12.4156L18.0779 9.58494C18.8287 8.83408 19.2506 7.81569 19.2506 6.75381C19.2506 5.69194 18.8287 4.67355 18.0779 3.92269C17.327 3.17183 16.3086 2.75 15.2468 2.75C14.1849 2.75 13.1665 3.17183 12.4156 3.92269L11.0003 5.33802" stroke="#91969E" stroke-width="2" stroke-linecap="round" stroke-linejoin="round"/>
</svg>
