<svg width="50" height="50" viewBox="0 0 50 50" fill="none" xmlns="http://www.w3.org/2000/svg">
<g clip-path="url(#clip0_3_28019)">
<circle cx="25" cy="25" r="25" fill="white"/>
<path d="M31.3442 10H20.0431C19.0978 10 18.3288 10.769 18.3288 11.7144V24.8225C18.2282 24.9593 18.0607 25.1805 17.8969 25.397C17.29 26.1988 16.3728 27.4105 15.8258 28.2716C14.7472 29.9723 14.7264 31.6716 15.7563 33.9539C15.7635 33.9698 15.7713 33.9854 15.7798 34.0007C15.7798 34.0007 17.0694 36.3329 17.1247 36.435C17.4502 37.0365 17.9951 38.0433 17.9606 38.8346C17.9602 38.8438 17.96 38.853 17.96 38.8622V40.7389C17.96 41.71 18.75 42.5 19.7211 42.5H25.4571C26.4282 42.5 27.2182 41.71 27.2182 40.7389L27.2128 39.0946C27.2131 38.4616 27.3088 38.1282 27.4299 37.7063C27.5126 37.4181 27.6062 37.0915 27.6734 36.6491C27.6752 36.6376 27.6766 36.6262 27.6777 36.6146C27.7716 35.64 27.5183 34.6989 27.2502 33.7025C27.098 33.137 26.9357 32.5336 26.8195 31.8662H31.3443C32.2896 31.8662 33.0586 31.0971 33.0586 30.1518V23.7841C33.0586 23.4335 32.7744 23.1493 32.4238 23.1493C32.0733 23.1493 31.7891 23.4335 31.7891 23.7841V30.1517C31.7891 30.397 31.5895 30.5966 31.3443 30.5966H29.8469V11.2695H31.3442C31.5894 11.2695 31.789 11.4691 31.789 11.7144V25.5821C31.789 25.9326 32.0733 26.2169 32.4238 26.2169C32.7743 26.2169 33.0585 25.9326 33.0585 25.5821V11.7144C33.0585 10.769 32.2895 10 31.3442 10ZM25.457 41.2305H19.721C19.4546 41.2305 19.2295 41.0053 19.2295 40.7389V38.8751C19.2731 37.7375 18.6275 36.5446 18.2411 35.8307C18.1883 35.7331 16.9028 33.4081 16.9028 33.4081C16.0587 31.5271 16.0579 30.2761 16.8977 28.9519C17.2653 28.3732 17.8232 27.6091 18.3288 26.9333V30.1518C18.3288 31.0971 19.0978 31.8662 20.0431 31.8662H22.0784V33.9843C22.0784 34.3348 22.3626 34.6191 22.7132 34.6191C23.0638 34.6191 23.348 34.3348 23.348 33.9843V27.2999C23.348 26.7272 23.8138 26.2613 24.3865 26.2613C24.6651 26.2613 24.928 26.3714 25.1266 26.5713C25.3218 26.7676 25.4285 27.0251 25.4268 27.2961C25.4255 27.5136 25.4222 28.945 25.3967 29.6092C25.3742 30.1968 25.3991 30.7433 25.4531 31.2535C25.4544 31.2905 25.5036 31.6665 25.526 31.8138C25.654 32.654 25.8507 33.3876 26.0242 34.0323C26.27 34.9457 26.4826 35.7354 26.4155 36.476C26.3609 36.8285 26.2873 37.0849 26.2095 37.356C26.0786 37.8123 25.9432 38.2842 25.9432 39.0979C25.9432 39.1001 25.9432 39.1023 25.9433 39.1045L25.9486 40.7388C25.9486 41.0053 25.7235 41.2305 25.457 41.2305ZM28.5774 30.5966H26.6733C26.657 30.2968 26.6951 27.5195 26.6964 27.3037C26.7 26.692 26.4623 26.114 26.0269 25.6762C25.5882 25.2348 25.0055 24.9918 24.3864 24.9918C23.1138 24.9918 22.0784 26.0272 22.0784 27.2999V30.5966H20.0431C19.7978 30.5966 19.5983 30.3971 19.5983 30.1518V11.7144C19.5983 11.4691 19.7978 11.2695 20.0431 11.2695H28.5774V30.5966Z" fill="#CB11AB"/>
</g>
<defs>
<clipPath id="clip0_3_28019">
<rect width="50" height="50" fill="white"/>
</clipPath>
</defs>
</svg>
