<svg width="22" height="22" viewBox="0 0 22 22" fill="none" xmlns="http://www.w3.org/2000/svg">
<path d="M2.5 14.5V2.5H0.5V0.5H3.5C3.76522 0.5 4.01957 0.605357 4.20711 0.792893C4.39464 0.98043 4.5 1.23478 4.5 1.5V13.5H16.938L18.938 5.5H6.5V3.5H20.22C20.372 3.5 20.522 3.53466 20.6586 3.60134C20.7952 3.66801 20.9148 3.76495 21.0083 3.88479C21.1019 4.00462 21.1668 4.1442 21.1983 4.29291C21.2298 4.44162 21.2269 4.59555 21.19 4.743L18.69 14.743C18.6358 14.9592 18.511 15.1512 18.3352 15.2883C18.1595 15.4255 17.9429 15.5 17.72 15.5H3.5C3.23478 15.5 2.98043 15.3946 2.79289 15.2071C2.60536 15.0196 2.5 14.7652 2.5 14.5V14.5ZM4.5 21.5C3.96957 21.5 3.46086 21.2893 3.08579 20.9142C2.71071 20.5391 2.5 20.0304 2.5 19.5C2.5 18.9696 2.71071 18.4609 3.08579 18.0858C3.46086 17.7107 3.96957 17.5 4.5 17.5C5.03043 17.5 5.53914 17.7107 5.91421 18.0858C6.28929 18.4609 6.5 18.9696 6.5 19.5C6.5 20.0304 6.28929 20.5391 5.91421 20.9142C5.53914 21.2893 5.03043 21.5 4.5 21.5ZM16.5 21.5C15.9696 21.5 15.4609 21.2893 15.0858 20.9142C14.7107 20.5391 14.5 20.0304 14.5 19.5C14.5 18.9696 14.7107 18.4609 15.0858 18.0858C15.4609 17.7107 15.9696 17.5 16.5 17.5C17.0304 17.5 17.5391 17.7107 17.9142 18.0858C18.2893 18.4609 18.5 18.9696 18.5 19.5C18.5 20.0304 18.2893 20.5391 17.9142 20.9142C17.5391 21.2893 17.0304 21.5 16.5 21.5Z" fill="white"/>
</svg>
