<svg width="50" height="50" viewBox="0 0 50 50" fill="none" xmlns="http://www.w3.org/2000/svg">
<g clip-path="url(#clip0_3_28016)">
<circle cx="25" cy="25" r="25" fill="white"/>
<path d="M32.3535 18.8672C31.9338 18.8672 31.5213 18.8989 31.1182 18.9595V15.5371C31.1182 15.2405 30.8777 15 30.5811 15H15.1123C14.8157 15 14.5752 15.2405 14.5752 15.5371V18.8672H13.6621C13.3655 18.8672 13.125 19.1077 13.125 19.4043V23.2715C13.125 23.5681 13.3655 23.8086 13.6621 23.8086H14.5752V26.6016H13.6621C13.3655 26.6016 13.125 26.842 13.125 27.1387V31.0059C13.125 31.3025 13.3655 31.543 13.6621 31.543H14.5752V34.873C14.5752 35.1697 14.8157 35.4102 15.1123 35.4102H32.3535C36.9144 35.4102 40.625 31.6996 40.625 27.1387C40.625 22.5778 36.9144 18.8672 32.3535 18.8672ZM20.3021 30.4688V27.6758H24.0999C24.1636 28.6636 24.4012 29.6047 24.7828 30.4688H20.3021ZM17.4017 30.4688V27.6758H19.2279V30.4688H17.4017ZM17.4017 19.9414H19.2279V22.7344H17.4017V19.9414ZM18.8519 23.8086H20.6781V26.6016H18.8519V23.8086ZM24.0999 26.6016H21.7523V23.8086H24.7828C24.4013 24.6726 24.1636 25.6137 24.0999 26.6016ZM25.3552 22.7344H20.3021V19.9414H28.2811C27.0911 20.6174 26.0845 21.5798 25.3552 22.7344ZM30.0439 18.8672H21.7523V16.0742H30.0439V18.8672ZM20.6781 16.0742V18.8672H18.8519V16.0742H20.6781ZM15.6494 16.0742H17.7777V18.8672H15.6494V16.0742ZM14.1992 19.9414H16.3275V22.7344H14.1992V19.9414ZM15.6494 23.8086H17.7777V26.6016H15.6494V23.8086ZM14.1992 27.6758H16.3275V30.4688H14.1992V27.6758ZM15.6494 31.543H17.7777V34.3359H15.6494V31.543ZM18.8519 34.3359V31.543H20.6781V34.3359H18.8519ZM21.7523 34.3359V31.543H25.3552C26.0845 32.6975 27.0911 33.66 28.2811 34.3359H21.7523ZM32.3535 34.3359C28.3849 34.3359 25.1562 31.1073 25.1562 27.1387C25.1562 23.1701 28.3849 19.9414 32.3535 19.9414C36.3221 19.9414 39.5508 23.1701 39.5508 27.1387C39.5508 31.1073 36.3221 34.3359 32.3535 34.3359Z" fill="#CB11AB"/>
<path d="M36.9667 26.3333C36.8833 26.55 36.6667 26.7167 36.3333 26.8667V27.3167C36.55 27.4667 36.6667 27.6333 36.6667 27.8333V29H36.6333C36.6 29.0833 36.55 29.15 36.4833 29.2333C36.5 29.2667 36.5 29.3 36.5 29.3333V30.5H36.4667C36.2167 31.15 34.5167 31.5 32.8333 31.5C31.15 31.5 29.45 31.15 29.2 30.5H29.1667V29.3333C29.1667 29.2 29.2333 29.0667 29.3333 28.9667V28.1833C29.1833 28.0833 29.0833 27.9667 29.0333 27.8333H29V26.6667C29 26.3833 29.25 26.15 29.6667 25.9667V25.1667C29.6667 24.4 31.5167 24 33.3333 24C35.15 24 37 24.4 37 25.1667V26.3333H36.9667ZM36.3 27.8333C36.2667 27.9333 36.1833 28.0333 36.0667 28.1333C36.2333 28.0333 36.3333 27.9333 36.3333 27.8333H36.3ZM36.35 29H36.3333V28.35C35.7167 28.7833 34.35 29 33 29C31.7 29 30.3833 28.8 29.7333 28.4C29.7167 28.3833 29.6833 28.3833 29.6667 28.3667V29H29.65C29.95 29.2167 30.4333 29.3833 31 29.4833V29H31.1667V29.5H31.05C31.2833 29.55 31.55 29.5833 31.8167 29.6C31.8667 29.6 31.9167 29.6167 31.9667 29.6167C32 29.6167 32.05 29.6167 32.0833 29.6333C32.15 29.6333 32.2333 29.65 32.3 29.65C32.3333 29.65 32.3833 29.65 32.4167 29.65C32.45 29.65 32.4667 29.65 32.5 29.65V29.1667H32.6667V29.6667C32.7833 29.6667 32.8833 29.6667 33 29.6667C33.1167 29.6667 33.2333 29.6667 33.35 29.6667C33.4333 29.6667 33.5 29.6667 33.5667 29.65C33.6 29.65 33.65 29.65 33.6833 29.65C33.7667 29.65 33.8333 29.6333 33.9 29.6333C33.9333 29.6333 33.95 29.6333 33.9833 29.6333V29.1667H34.15V29.6167H34.1667C34.65 29.5667 35.1 29.4833 35.4833 29.3833V29H35.65V29.3167C35.95 29.2333 36.1833 29.1167 36.35 29ZM29.5 29.3333C29.5 29.6833 30.7667 30.1667 32.8333 30.1667C34.6 30.1667 35.7833 29.8167 36.0833 29.4833C35.4 29.8167 34.2 30 33 30C31.5333 30 30.05 29.7333 29.5333 29.2333C29.5167 29.2667 29.5 29.3 29.5 29.3333ZM30.8333 30.9833V30.5H31V31.0167C31.2 31.05 31.4333 31.0833 31.65 31.1C31.7 31.1 31.75 31.1167 31.8 31.1167C31.8333 31.1167 31.8833 31.1167 31.9167 31.1333C31.9833 31.1333 32.0667 31.15 32.1333 31.15C32.1667 31.15 32.2167 31.15 32.25 31.15C32.2833 31.15 32.3 31.15 32.3333 31.15V30.6667H32.5V31.1667C32.6167 31.1667 32.7167 31.1667 32.8333 31.1667C32.95 31.1667 33.0667 31.1667 33.1833 31.1667C33.2667 31.1667 33.3333 31.1667 33.4 31.15C33.4333 31.15 33.4833 31.15 33.5167 31.15C33.6 31.15 33.6667 31.1333 33.7333 31.1333C33.7667 31.1333 33.7833 31.1333 33.8167 31.1333V30.6667H33.9833V31.1167H34C34.5333 31.0667 35.0333 30.9667 35.45 30.85H35.3333V30.35H35.5V30.8333C35.7833 30.75 36.0167 30.6333 36.1833 30.5167H36.1667V29.8667C35.55 30.3 34.1833 30.5167 32.8333 30.5167C31.4833 30.5167 30.1167 30.3 29.5 29.8667V30.5167H29.4833C29.7667 30.7167 30.25 30.8833 30.8333 30.9833ZM30 28.15V27.6667H30.1667V28.2C30.55 28.3 31 28.3833 31.4833 28.4333H31.5V28H31.6667V28.4667C31.7 28.4667 31.7167 28.4667 31.75 28.4667C31.8167 28.4667 31.9 28.4833 31.9667 28.4833C32 28.4833 32.05 28.4833 32.0833 28.4833C32.15 28.4833 32.2333 28.4833 32.3 28.5C32.4167 28.5 32.5333 28.5 32.65 28.5C32.7667 28.5 32.8667 28.5 32.9833 28.5V28H33.15V28.4833C33.1833 28.4833 33.2 28.4833 33.2333 28.4833C33.2667 28.4833 33.3167 28.4833 33.35 28.4833C33.4333 28.4833 33.5 28.4667 33.5667 28.4667C33.6 28.4667 33.65 28.4667 33.6833 28.45C33.7333 28.45 33.7833 28.4333 33.8333 28.4333C34.1 28.4 34.35 28.3667 34.6 28.3333H34.5V27.8333H34.6667V28.3167C35.2333 28.2 35.7167 28.05 36.0167 27.8333H36V27.1833C35.3833 27.6167 34.0167 27.8333 32.6667 27.8333C31.3167 27.8333 29.95 27.6167 29.3333 27.1833V27.8333H29.3167C29.4833 27.95 29.7167 28.0667 30 28.15ZM29.7 26.3333H29.6667C29.45 26.45 29.3333 26.5667 29.3333 26.6667C29.3333 27.0167 30.6 27.5 32.6667 27.5C33.7667 27.5 34.65 27.3667 35.2167 27.1833C34.65 27.2833 33.9833 27.3333 33.3333 27.3333C31.65 27.3333 29.95 26.9833 29.7 26.3333ZM33.3333 24.3333C31.2667 24.3333 30 24.8167 30 25.1667C30 25.5167 31.2667 26 33.3333 26C35.4 26 36.6667 25.5167 36.6667 25.1667C36.6667 24.8167 35.4 24.3333 33.3333 24.3333ZM36.6667 26.3333V25.6833C36.05 26.1167 34.6833 26.3333 33.3333 26.3333C31.9833 26.3333 30.6167 26.1167 30 25.6833V26.3333H29.9833C30.2833 26.55 30.7667 26.7167 31.3333 26.8167V26.3333H31.5V26.85C31.7 26.8833 31.9333 26.9167 32.15 26.9333C32.2 26.9333 32.25 26.95 32.3 26.95C32.3333 26.95 32.3833 26.95 32.4167 26.9667C32.4833 26.9667 32.5667 26.9833 32.6333 26.9833C32.6667 26.9833 32.7167 26.9833 32.75 26.9833C32.7667 26.9833 32.8 26.9833 32.8333 26.9833V26.5H33V27C33.1167 27 33.2167 27 33.3333 27C33.45 27 33.5667 27 33.6833 27C33.7667 27 33.8333 27 33.9 26.9833C33.9333 26.9833 33.9833 26.9833 34.0167 26.9833C34.1 26.9833 34.1667 26.9667 34.2333 26.9667C34.2667 26.9667 34.2833 26.9667 34.3167 26.9667V26.5H34.4833V26.95H34.5C35.0333 26.9 35.5333 26.8 35.95 26.6833H35.8333V26.1833H36V26.6667C36.2833 26.5833 36.5167 26.4667 36.6833 26.35H36.6667V26.3333Z" fill="#CB11AB"/>
</g>
<defs>
<clipPath id="clip0_3_28016">
<rect width="50" height="50" fill="white"/>
</clipPath>
</defs>
</svg>
