<svg width="24" height="24" viewBox="0 0 24 24" fill="none" xmlns="http://www.w3.org/2000/svg">
<g clip-path="url(#clip0_3_1723)">
<path d="M7.33333 4H4.66667C4.29867 4 4 4.29867 4 4.66667V7.33333C4 7.70133 4.29867 8 4.66667 8H7.33333C7.70133 8 8 7.70133 8 7.33333V4.66667C8 4.29867 7.70133 4 7.33333 4Z" fill="white"/>
<path d="M7.33333 10H4.66667C4.29867 10 4 10.2987 4 10.6667V13.3333C4 13.7013 4.29867 14 4.66667 14H7.33333C7.70133 14 8 13.7013 8 13.3333V10.6667C8 10.2987 7.70133 10 7.33333 10Z" fill="white"/>
<path d="M7.33333 16H4.66667C4.29867 16 4 16.2987 4 16.6667V19.3333C4 19.7013 4.29867 20 4.66667 20H7.33333C7.70133 20 8 19.7013 8 19.3333V16.6667C8 16.2987 7.70133 16 7.33333 16Z" fill="white"/>
<path d="M13.3333 4H10.6667C10.2987 4 10 4.29867 10 4.66667V7.33333C10 7.70133 10.2987 8 10.6667 8H13.3333C13.7013 8 14 7.70133 14 7.33333V4.66667C14 4.29867 13.7013 4 13.3333 4Z" fill="white"/>
<path d="M13.3333 10H10.6667C10.2987 10 10 10.2987 10 10.6667V13.3333C10 13.7013 10.2987 14 10.6667 14H13.3333C13.7013 14 14 13.7013 14 13.3333V10.6667C14 10.2987 13.7013 10 13.3333 10Z" fill="white"/>
<path d="M13.3333 16H10.6667C10.2987 16 10 16.2987 10 16.6667V19.3333C10 19.7013 10.2987 20 10.6667 20H13.3333C13.7013 20 14 19.7013 14 19.3333V16.6667C14 16.2987 13.7013 16 13.3333 16Z" fill="white"/>
<path d="M19.3333 4H16.6667C16.2987 4 16 4.29867 16 4.66667V7.33333C16 7.70133 16.2987 8 16.6667 8H19.3333C19.7013 8 20 7.70133 20 7.33333V4.66667C20 4.29867 19.7013 4 19.3333 4Z" fill="white"/>
<path d="M19.3333 10H16.6667C16.2987 10 16 10.2987 16 10.6667V13.3333C16 13.7013 16.2987 14 16.6667 14H19.3333C19.7013 14 20 13.7013 20 13.3333V10.6667C20 10.2987 19.7013 10 19.3333 10Z" fill="white"/>
<path d="M19.3333 16H16.6667C16.2987 16 16 16.2987 16 16.6667V19.3333C16 19.7013 16.2987 20 16.6667 20H19.3333C19.7013 20 20 19.7013 20 19.3333V16.6667C20 16.2987 19.7013 16 19.3333 16Z" fill="white"/>
</g>
<defs>
<clipPath id="clip0_3_1723">
<rect width="16" height="16" fill="white" transform="translate(4 4)"/>
</clipPath>
</defs>
</svg>
