<svg width="18" height="17" viewBox="0 0 18 17" fill="none" xmlns="http://www.w3.org/2000/svg">
<path d="M9.00033 0.166992C13.602 0.166992 17.3337 3.48199 17.3337 7.57449C17.333 8.80216 16.845 9.97935 15.9768 10.8474C15.1086 11.7154 13.9313 12.2032 12.7037 12.2037H11.0653C10.297 12.2037 9.67616 12.8245 9.67616 13.5928C9.67616 13.9445 9.81532 14.2687 10.0278 14.5095C10.2503 14.7595 10.3895 15.0837 10.3895 15.4445C10.3895 16.2137 9.75033 16.8337 9.00033 16.8337C4.39866 16.8337 0.666992 13.102 0.666992 8.50033C0.666992 3.89866 4.39866 0.166992 9.00033 0.166992ZM8.00949 13.5928C8.00916 13.1914 8.08798 12.7939 8.24143 12.423C8.39489 12.0521 8.61997 11.7151 8.90379 11.4313C9.18762 11.1475 9.52462 10.9224 9.89552 10.7689C10.2664 10.6155 10.6639 10.5367 11.0653 10.537H12.7037C13.4892 10.5366 14.2424 10.2244 14.798 9.66915C15.3536 9.11388 15.6661 8.36083 15.667 7.57533C15.667 4.44949 12.7237 1.83366 9.00033 1.83366C7.27997 1.83209 5.62561 2.49563 4.38314 3.68554C3.14067 4.87545 2.40629 6.4996 2.33354 8.21841C2.26079 9.93723 2.85531 11.6176 3.9928 12.9083C5.13028 14.1989 6.72266 14.9999 8.43699 15.1437C8.15796 14.6747 8.0103 14.1393 8.00949 13.5937V13.5928ZM5.25033 8.50033C4.9188 8.50033 4.60086 8.36863 4.36644 8.13421C4.13202 7.89979 4.00033 7.58185 4.00033 7.25033C4.00033 6.9188 4.13202 6.60086 4.36644 6.36644C4.60086 6.13202 4.9188 6.00033 5.25033 6.00033C5.58185 6.00033 5.89979 6.13202 6.13421 6.36644C6.36863 6.60086 6.50033 6.9188 6.50033 7.25033C6.50033 7.58185 6.36863 7.89979 6.13421 8.13421C5.89979 8.36863 5.58185 8.50033 5.25033 8.50033ZM12.7503 8.50033C12.4188 8.50033 12.1009 8.36863 11.8664 8.13421C11.632 7.89979 11.5003 7.58185 11.5003 7.25033C11.5003 6.9188 11.632 6.60086 11.8664 6.36644C12.1009 6.13202 12.4188 6.00033 12.7503 6.00033C13.0818 6.00033 13.3998 6.13202 13.6342 6.36644C13.8686 6.60086 14.0003 6.9188 14.0003 7.25033C14.0003 7.58185 13.8686 7.89979 13.6342 8.13421C13.3998 8.36863 13.0818 8.50033 12.7503 8.50033ZM9.00033 6.00033C8.66881 6.00033 8.35086 5.86863 8.11644 5.63421C7.88202 5.39979 7.75033 5.08185 7.75033 4.75033C7.75033 4.4188 7.88202 4.10086 8.11644 3.86644C8.35086 3.63202 8.66881 3.50033 9.00033 3.50033C9.33185 3.50033 9.64979 3.63202 9.88421 3.86644C10.1186 4.10086 10.2503 4.4188 10.2503 4.75033C10.2503 5.08185 10.1186 5.39979 9.88421 5.63421C9.64979 5.86863 9.33185 6.00033 9.00033 6.00033Z" fill="#91969E"/>
</svg>
