<svg width="13" height="13" viewBox="0 0 13 13" fill="none" xmlns="http://www.w3.org/2000/svg">
<path d="M12.5416 2.86357L8.90569 6.49987L12.5416 10.136C13.0824 10.677 13.0824 11.5534 12.5416 12.0945C12.2714 12.3647 11.9171 12.4999 11.563 12.4999C11.2083 12.4999 10.854 12.3649 10.584 12.0945L6.94727 8.45792L3.31083 12.0944C3.04064 12.3647 2.68633 12.4999 2.33191 12.4999C1.97759 12.4999 1.62352 12.3649 1.35309 12.0944C0.812266 11.5536 0.812266 10.6772 1.35309 10.136L4.98891 6.49983L1.35288 2.86357C0.812059 2.32274 0.812059 1.44613 1.35288 0.905309C1.89361 0.364897 2.76969 0.364897 3.31062 0.905309L6.94723 4.54161L10.5836 0.905309C11.1246 0.364897 12.0008 0.364897 12.5414 0.905309C13.0824 1.44613 13.0824 2.32274 12.5416 2.86357Z" fill="#858FA4"/>
</svg>
