<svg width="25" height="24" viewBox="0 0 25 24" fill="none" xmlns="http://www.w3.org/2000/svg">
<path fill-rule="evenodd" clip-rule="evenodd" d="M11.8721 5.64948V21.6876L8.49705 21.6876C8.18639 21.6876 7.93454 21.9395 7.93454 22.2501C7.93454 22.5608 8.18639 22.8126 8.49705 22.8126H16.3721C16.6828 22.8126 16.9346 22.5608 16.9346 22.2501C16.9346 21.9395 16.6828 21.6876 16.3721 21.6876L12.9971 21.6876V5.4146C13.0389 5.41741 13.0805 5.4249 13.1211 5.43706L18.0923 6.92844L14.6348 14.4786C14.3026 15.2039 14.5933 16.123 15.413 16.4153C17.2357 17.0652 20.3151 17.6201 23.1186 16.4121C23.8493 16.0973 24.1048 15.2694 23.8472 14.5944L20.794 6.59367L23.2575 6.04622C23.5608 5.97883 23.752 5.67835 23.6846 5.37509C23.6172 5.07182 23.3167 4.88061 23.0135 4.948L18.7864 5.88735C18.6925 5.90821 18.5949 5.90466 18.5028 5.87702L13.4443 4.3595C13.2985 4.31574 13.148 4.29212 12.9971 4.28875V2.5625C12.9971 2.25184 12.7452 2 12.4346 2C12.1239 2 11.8721 2.25184 11.8721 2.5625V4.49491L5.95224 5.86102C5.82482 5.89042 5.69115 5.87452 5.57419 5.81604L3.06416 4.56102C2.78629 4.42209 2.44841 4.53472 2.30948 4.81258C2.17055 5.09045 2.28317 5.42833 2.56104 5.56726L4.72102 6.64725L1.13467 14.4786C0.802545 15.2039 1.09321 16.123 1.91289 16.4153C3.73558 17.0652 6.81501 17.6201 9.61851 16.4121C10.3492 16.0973 10.6048 15.2694 10.3472 14.5944L7.3333 6.69689L11.8721 5.64948ZM6.34959 6.9239L9.41288 14.951C9.50606 15.1951 9.3956 15.4193 9.22279 15.4938C6.74917 16.5596 3.95736 16.0826 2.24873 15.4734C2.0487 15.402 1.92525 15.154 2.04387 14.895L5.66276 6.99254C5.84298 7.01003 6.02615 6.99854 6.2052 6.95722L6.34959 6.9239ZM19.8073 6.81293L19.1814 6.95203L15.544 14.895C15.4253 15.154 15.5488 15.402 15.7488 15.4734C17.4574 16.0826 20.2493 16.5596 22.7229 15.4938C22.8957 15.4193 23.0061 15.1951 22.913 14.951L19.8073 6.81293Z" fill="white"/>
<path d="M11.8721 21.6876V22.1876H12.3721V21.6876H11.8721ZM11.8721 5.64948H12.3721V5.02096L11.7596 5.16229L11.8721 5.64948ZM8.49705 21.6876V22.1876H8.49705L8.49705 21.6876ZM16.3721 21.6876V22.1876V21.6876ZM12.9971 21.6876H12.4971V22.1876H12.9971V21.6876ZM12.9971 5.4146L13.0305 4.91572L12.4971 4.87994V5.4146H12.9971ZM13.1211 5.43706L12.9774 5.91597L12.9774 5.91597L13.1211 5.43706ZM18.0923 6.92844L18.5469 7.13662L18.786 6.61453L18.236 6.44953L18.0923 6.92844ZM14.6348 14.4786L14.1802 14.2704L14.6348 14.4786ZM15.413 16.4153L15.2451 16.8862L15.413 16.4153ZM23.1186 16.4121L23.3165 16.8713L23.1186 16.4121ZM23.8472 14.5944L24.3144 14.4161V14.4161L23.8472 14.5944ZM20.794 6.59367L20.6855 6.10558L20.1205 6.23115L20.3268 6.77194L20.794 6.59367ZM23.2575 6.04622L23.1491 5.55813L23.2575 6.04622ZM23.6846 5.37509L23.1965 5.48355L23.6846 5.37509ZM23.0135 4.948L22.905 4.45991L23.0135 4.948ZM18.7864 5.88735L18.6779 5.39926V5.39926L18.7864 5.88735ZM18.5028 5.87702L18.6464 5.39811L18.5028 5.87702ZM13.4443 4.3595L13.3007 4.83841H13.3007L13.4443 4.3595ZM12.9971 4.28875H12.4971V4.77772L12.9859 4.78862L12.9971 4.28875ZM11.8721 4.49491L11.9845 4.9821L12.3721 4.89266V4.49491H11.8721ZM5.95224 5.86102L5.83981 5.37383L5.95224 5.86102ZM3.06416 4.56102L3.28777 4.11381L3.06416 4.56102ZM2.56104 5.56726L2.33743 6.01447H2.33743L2.56104 5.56726ZM4.72102 6.64725L5.17562 6.85543L5.3768 6.41612L4.94463 6.20004L4.72102 6.64725ZM1.13467 14.4786L1.58927 14.6868H1.58927L1.13467 14.4786ZM1.91289 16.4153L1.74497 16.8862H1.74497L1.91289 16.4153ZM9.61851 16.4121L9.81637 16.8713L9.61851 16.4121ZM10.3472 14.5944L10.8143 14.4161L10.3472 14.5944ZM7.3333 6.69689L7.22087 6.20969L6.66146 6.33879L6.86616 6.87516L7.3333 6.69689ZM6.34959 6.9239L6.81673 6.74563L6.66147 6.33879L6.23716 6.4367L6.34959 6.9239ZM9.41288 14.951L8.94574 15.1292L9.41288 14.951ZM9.22279 15.4938L9.42065 15.9529L9.22279 15.4938ZM2.24873 15.4734L2.41665 15.0024H2.41665L2.24873 15.4734ZM2.04387 14.895L1.58927 14.6868H1.58927L2.04387 14.895ZM5.66276 6.99254L5.71106 6.49488L5.35649 6.46047L5.20816 6.78436L5.66276 6.99254ZM6.2052 6.95722L6.31763 7.44441H6.31763L6.2052 6.95722ZM19.8073 6.81293L20.2745 6.63466L20.1205 6.23115L19.6989 6.32484L19.8073 6.81293ZM19.1814 6.95203L19.0729 6.46393L18.8303 6.51785L18.7268 6.74384L19.1814 6.95203ZM15.544 14.895L15.9986 15.1032V15.1032L15.544 14.895ZM15.7488 15.4734L15.5809 15.9443L15.7488 15.4734ZM22.7229 15.4938L22.9207 15.9529H22.9207L22.7229 15.4938ZM22.913 14.951L23.3801 14.7727V14.7727L22.913 14.951ZM12.3721 21.6876V5.64948H11.3721V21.6876H12.3721ZM8.49705 22.1876L11.8721 22.1876V21.1876L8.49705 21.1876L8.49705 22.1876ZM8.43454 22.2501C8.43454 22.2156 8.46253 22.1876 8.49705 22.1876V21.1876C7.91024 21.1876 7.43454 21.6633 7.43454 22.2501H8.43454ZM8.49705 22.3126C8.46253 22.3126 8.43454 22.2846 8.43454 22.2501H7.43454C7.43454 22.8369 7.91024 23.3126 8.49705 23.3126V22.3126ZM16.3721 22.3126H8.49705V23.3126H16.3721V22.3126ZM16.4346 22.2501C16.4346 22.2846 16.4066 22.3126 16.3721 22.3126V23.3126C16.9589 23.3126 17.4346 22.8369 17.4346 22.2501H16.4346ZM16.3721 22.1876C16.4066 22.1876 16.4346 22.2156 16.4346 22.2501H17.4346C17.4346 21.6633 16.9589 21.1876 16.3721 21.1876V22.1876ZM12.9971 22.1876L16.3721 22.1876V21.1876L12.9971 21.1876V22.1876ZM12.4971 5.4146V21.6876H13.4971V5.4146H12.4971ZM13.2647 4.95815C13.1882 4.93518 13.1096 4.92102 13.0305 4.91572L12.9636 5.91348C12.9683 5.91379 12.9729 5.91462 12.9774 5.91597L13.2647 4.95815ZM18.236 6.44953L13.2647 4.95815L12.9774 5.91597L17.9487 7.40735L18.236 6.44953ZM17.6377 6.72026L14.1802 14.2704L15.0894 14.6868L18.5469 7.13662L17.6377 6.72026ZM14.1802 14.2704C13.7432 15.2246 14.1115 16.4821 15.2451 16.8862L15.5809 15.9443C15.0751 15.764 14.8621 15.1831 15.0894 14.6868L14.1802 14.2704ZM15.2451 16.8862C17.1247 17.5564 20.348 18.1504 23.3165 16.8713L22.9207 15.9529C20.2822 17.0899 17.3466 16.5739 15.5809 15.9443L15.2451 16.8862ZM23.3165 16.8713C24.3293 16.4349 24.6528 15.3031 24.3144 14.4161L23.3801 14.7727C23.5568 15.2358 23.3693 15.7596 22.9207 15.9529L23.3165 16.8713ZM24.3144 14.4161L21.2611 6.4154L20.3268 6.77194L23.3801 14.7727L24.3144 14.4161ZM23.1491 5.55813L20.6855 6.10558L20.9025 7.08177L23.366 6.53431L23.1491 5.55813ZM23.1965 5.48355C23.204 5.51725 23.1828 5.55064 23.1491 5.55813L23.366 6.53431C23.9388 6.40702 24.3 5.83945 24.1727 5.26662L23.1965 5.48355ZM23.1219 5.4361C23.1556 5.42861 23.189 5.44985 23.1965 5.48355L24.1727 5.26662C24.0454 4.69379 23.4778 4.33261 22.905 4.45991L23.1219 5.4361ZM18.8949 6.37545L23.1219 5.4361L22.905 4.45991L18.6779 5.39926L18.8949 6.37545ZM18.3591 6.35594C18.5331 6.40814 18.7175 6.41485 18.8949 6.37544L18.6779 5.39926C18.6675 5.40158 18.6567 5.40118 18.6464 5.39811L18.3591 6.35594ZM13.3007 4.83841L18.3591 6.35594L18.6464 5.39811L13.588 3.88058L13.3007 4.83841ZM12.9859 4.78862C13.0922 4.791 13.198 4.80762 13.3007 4.83841L13.588 3.88058C13.3989 3.82387 13.2039 3.79324 13.0082 3.78887L12.9859 4.78862ZM12.4971 2.5625V4.28875H13.4971V2.5625H12.4971ZM12.4346 2.5C12.4691 2.5 12.4971 2.52798 12.4971 2.5625H13.4971C13.4971 1.9757 13.0214 1.5 12.4346 1.5V2.5ZM12.3721 2.5625C12.3721 2.52798 12.4001 2.5 12.4346 2.5V1.5C11.8478 1.5 11.3721 1.9757 11.3721 2.5625H12.3721ZM12.3721 4.49491V2.5625H11.3721V4.49491H12.3721ZM6.06467 6.34822L11.9845 4.9821L11.7596 4.00771L5.83981 5.37383L6.06467 6.34822ZM5.35059 6.26326C5.5715 6.37371 5.824 6.40376 6.06467 6.34822L5.83981 5.37383C5.82565 5.37709 5.8108 5.37533 5.7978 5.36883L5.35059 6.26326ZM2.84055 5.00824L5.35059 6.26326L5.7978 5.36883L3.28777 4.11381L2.84055 5.00824ZM2.75669 5.03619C2.77213 5.00532 2.80968 4.9928 2.84055 5.00824L3.28777 4.11381C2.76291 3.85138 2.12469 4.06412 1.86227 4.58898L2.75669 5.03619ZM2.78465 5.12005C2.75377 5.10461 2.74126 5.06707 2.75669 5.03619L1.86227 4.58898C1.59984 5.11383 1.81258 5.75205 2.33743 6.01447L2.78465 5.12005ZM4.94463 6.20004L2.78465 5.12005L2.33743 6.01447L4.49741 7.09446L4.94463 6.20004ZM4.26642 6.43907L0.680075 14.2704L1.58927 14.6868L5.17562 6.85543L4.26642 6.43907ZM0.680075 14.2704C0.243112 15.2246 0.611417 16.4821 1.74497 16.8862L2.08081 15.9443C1.575 15.764 1.36198 15.1831 1.58927 14.6868L0.680075 14.2704ZM1.74497 16.8862C3.6246 17.5564 6.84788 18.1504 9.81637 16.8713L9.42065 15.9529C6.78215 17.0899 3.84656 16.5739 2.08081 15.9443L1.74497 16.8862ZM9.81637 16.8713C10.8292 16.4349 11.1528 15.3031 10.8143 14.4161L9.88002 14.7727C10.0568 15.2358 9.86924 15.7596 9.42065 15.9529L9.81637 16.8713ZM10.8143 14.4161L7.80044 6.51862L6.86616 6.87516L9.88002 14.7727L10.8143 14.4161ZM11.7596 5.16229L7.22087 6.20969L7.44573 7.18409L11.9845 6.13668L11.7596 5.16229ZM5.88245 7.10217L8.94574 15.1292L9.88002 14.7727L6.81673 6.74563L5.88245 7.10217ZM8.94574 15.1292C8.95214 15.146 8.92976 15.0756 9.02493 15.0346L9.42065 15.9529C9.86144 15.763 10.06 15.2442 9.88002 14.7727L8.94574 15.1292ZM9.02493 15.0346C6.71619 16.0294 4.06815 15.5912 2.41665 15.0024L2.08081 15.9443C3.84657 16.5739 6.78215 17.0899 9.42065 15.9529L9.02493 15.0346ZM2.41665 15.0024C2.45957 15.0177 2.48239 15.0471 2.49148 15.07C2.50267 15.0981 2.49386 15.1132 2.49847 15.1032L1.58927 14.6868C1.35737 15.1932 1.58497 15.7675 2.08081 15.9443L2.41665 15.0024ZM2.49847 15.1032L6.11736 7.20073L5.20816 6.78436L1.58927 14.6868L2.49847 15.1032ZM6.09278 6.47002C5.96677 6.4991 5.83788 6.50719 5.71106 6.49488L5.61447 7.49021C5.84807 7.51288 6.08553 7.49798 6.31763 7.44441L6.09278 6.47002ZM6.23716 6.4367L6.09278 6.47002L6.31763 7.44441L6.46202 7.4111L6.23716 6.4367ZM19.6989 6.32484L19.0729 6.46393L19.2899 7.44012L19.9158 7.30103L19.6989 6.32484ZM15.9986 15.1032L19.636 7.16021L18.7268 6.74384L15.0894 14.6868L15.9986 15.1032ZM15.9167 15.0024C15.9597 15.0177 15.9825 15.0471 15.9916 15.07C16.0028 15.0981 15.9939 15.1132 15.9986 15.1032L15.0894 14.6868C14.8575 15.1932 15.085 15.7675 15.5809 15.9443L15.9167 15.0024ZM22.525 15.0346C20.2163 16.0294 17.5682 15.5912 15.9167 15.0024L15.5809 15.9443C17.3467 16.5739 20.2822 17.0898 22.9207 15.9529L22.525 15.0346ZM22.4458 15.1292C22.4522 15.146 22.4298 15.0756 22.525 15.0346L22.9207 15.9529C23.3615 15.763 23.5601 15.2442 23.3801 14.7727L22.4458 15.1292ZM19.3402 6.9912L22.4458 15.1292L23.3801 14.7727L20.2745 6.63466L19.3402 6.9912Z" fill="white"/>
</svg>
