<svg width="24" height="22" viewBox="0 0 24 22" fill="none" xmlns="http://www.w3.org/2000/svg">
<path fill-rule="evenodd" clip-rule="evenodd" d="M12.7046 3.25632C13.8299 2.13054 15.3564 1.49805 16.9482 1.49805C18.5399 1.49805 20.0664 2.13051 21.1916 3.25624C22.3174 4.38152 22.95 5.90816 22.95 7.49987C22.95 9.09162 22.3175 10.6181 21.1917 11.7434C21.1917 11.7435 21.1917 11.7434 21.1917 11.7434L12.3517 20.5834C12.1565 20.7787 11.8399 20.7787 11.6446 20.5834L2.80461 11.7434C0.460963 9.39978 0.460963 5.59997 2.80461 3.25632C5.14826 0.912669 8.94807 0.912669 11.2917 3.25632L11.9982 3.96277L12.7046 3.25632C12.7046 3.25629 12.7046 3.25635 12.7046 3.25632ZM16.9482 2.49805C15.6217 2.49805 14.3496 3.02515 13.4118 3.96334L12.3517 5.02343C12.258 5.11719 12.1308 5.16987 11.9982 5.16987C11.8656 5.16987 11.7384 5.11719 11.6446 5.02343L10.5846 3.96343C8.63149 2.0103 5.46484 2.0103 3.51172 3.96343C1.55859 5.91655 1.55859 9.08319 3.51172 11.0363L11.9982 19.5228L20.4846 11.0363C21.4228 10.0986 21.95 8.82636 21.95 7.49987C21.95 6.17338 21.4229 4.90126 20.4847 3.96351C19.5469 3.02532 18.2747 2.49805 16.9482 2.49805Z" fill="#91969E"/>
<path d="M12.7046 3.25632C13.8299 2.13054 15.3564 1.49805 16.9482 1.49805C18.5399 1.49805 20.0664 2.13051 21.1916 3.25624M12.7046 3.25632L11.9982 3.96277L11.2917 3.25632C8.94807 0.912669 5.14826 0.912669 2.80461 3.25632C0.460963 5.59997 0.460963 9.39978 2.80461 11.7434L11.6446 20.5834C11.8399 20.7787 12.1565 20.7787 12.3517 20.5834L21.1917 11.7434M12.7046 3.25632C12.7046 3.25635 12.7046 3.25629 12.7046 3.25632ZM21.1916 3.25624C21.1916 3.25621 21.1917 3.25626 21.1916 3.25624ZM21.1916 3.25624C22.3174 4.38152 22.95 5.90816 22.95 7.49987C22.95 9.09162 22.3175 10.6181 21.1917 11.7434M21.1917 11.7434C21.1917 11.7434 21.1917 11.7435 21.1917 11.7434ZM13.4118 3.96334C14.3496 3.02515 15.6217 2.49805 16.9482 2.49805C18.2747 2.49805 19.5469 3.02532 20.4847 3.96351C21.4229 4.90126 21.95 6.17338 21.95 7.49987C21.95 8.82636 21.4228 10.0986 20.4846 11.0363L11.9982 19.5228L3.51172 11.0363C1.55859 9.08319 1.55859 5.91655 3.51172 3.96343C5.46484 2.0103 8.63149 2.0103 10.5846 3.96343L11.6446 5.02343C11.7384 5.11719 11.8656 5.16987 11.9982 5.16987C12.1308 5.16987 12.258 5.11719 12.3517 5.02343L13.4118 3.96334Z" stroke="#91969E" stroke-linecap="round" stroke-linejoin="round"/>
</svg>
