<svg width="20" height="18" viewBox="0 0 20 18" fill="none" xmlns="http://www.w3.org/2000/svg">
<path d="M9.15 14V13.85H9H3C2.24413 13.85 1.51922 13.5497 0.984746 13.0153C0.450267 12.4808 0.15 11.7559 0.15 11V3C0.15 2.24413 0.450267 1.51922 0.984746 0.984746C1.51922 0.450267 2.24413 0.15 3 0.15H17C17.7559 0.15 18.4808 0.450267 19.0153 0.984746C19.5497 1.51922 19.85 2.24413 19.85 3V11C19.85 11.7559 19.5497 12.4808 19.0153 13.0153C18.4808 13.5497 17.7559 13.85 17 13.85H11H10.85V14V16V16.15H11H15C15.2254 16.15 15.4416 16.2396 15.601 16.399C15.7604 16.5584 15.85 16.7746 15.85 17C15.85 17.2254 15.7604 17.4416 15.601 17.601C15.4416 17.7604 15.2254 17.85 15 17.85H5C4.77457 17.85 4.55837 17.7604 4.39896 17.601C4.23955 17.4416 4.15 17.2254 4.15 17C4.15 16.7746 4.23955 16.5584 4.39896 16.399C4.55837 16.2396 4.77457 16.15 5 16.15H9H9.15V16V14ZM17.8132 11.8132C18.0288 11.5975 18.15 11.305 18.15 11V3C18.15 2.695 18.0288 2.40249 17.8132 2.18683C17.5975 1.97116 17.305 1.85 17 1.85H3C2.695 1.85 2.40249 1.97116 2.18683 2.18683C1.97116 2.40249 1.85 2.695 1.85 3V11C1.85 11.305 1.97116 11.5975 2.18683 11.8132C2.40249 12.0288 2.695 12.15 3 12.15H17C17.305 12.15 17.5975 12.0288 17.8132 11.8132Z" fill="#B5B5B5" stroke="white" stroke-width="0.3"/>
</svg>
