<svg width="22" height="19" viewBox="0 0 22 19" fill="none" xmlns="http://www.w3.org/2000/svg">
<path d="M12 0V1.278L17 2.946L20.632 1.736L21.265 3.632L18.233 4.643L21.329 13.155C20.237 14.292 18.7 15 17 15C15.299 15 13.763 14.292 12.671 13.155L15.765 4.643L12 3.387V17H16V19H6.00002V17H10V3.387L6.23202 4.643L9.32802 13.155C8.23702 14.292 6.70002 15 5.00002 15C3.29902 15 1.76302 14.292 0.671021 13.155L3.76502 4.643L0.735021 3.633L1.36802 1.735L5.00002 2.945L10 1.278V0H12ZM17 7.103L15.042 12.489C15.629 12.82 16.299 13 17 13C17.7 13 18.37 12.82 18.958 12.49L17 7.102V7.103ZM5.00002 7.103L3.04202 12.489C3.62902 12.82 4.29902 13 5.00002 13C5.70002 13 6.37002 12.82 6.95802 12.49L5.00002 7.102V7.103Z" fill="#CB11AB"/>
</svg>
