<svg width="28" height="28" viewBox="0 0 28 28" fill="none" xmlns="http://www.w3.org/2000/svg">
<g clip-path="url(#clip0_1839_10424)">
<path d="M23.4997 17.5C24.052 17.5 24.4997 17.9477 24.4997 18.5V21H26.9997C27.552 21 27.9997 21.4477 27.9997 22V22.3333C27.9997 22.8856 27.552 23.3333 26.9997 23.3333H24.4997V25.8333C24.4997 26.3856 24.052 26.8333 23.4997 26.8333H23.1663C22.6141 26.8333 22.1663 26.3856 22.1663 25.8333V23.3333H19.6663C19.1141 23.3333 18.6663 22.8856 18.6663 22.3333V22C18.6663 21.4477 19.1141 21 19.6663 21H22.1663V18.5C22.1663 17.9477 22.6141 17.5 23.1663 17.5H23.4997ZM24.509 3.5C25.1483 3.5 25.6663 4.01917 25.6663 4.6585V14.1667C25.6663 14.719 25.2186 15.1667 24.6663 15.1667H24.333C23.7807 15.1667 23.333 14.719 23.333 14.1667V5.83333H4.66634V22.1655L15.6259 11.207C16.0164 10.8165 16.6496 10.8166 17.0401 11.2071L19.5401 13.7071C19.7276 13.8946 19.833 14.149 19.833 14.4142V14.8863C19.833 15.7772 18.7559 16.2234 18.1259 15.5934L16.333 13.8005L7.96451 22.1667H15.333C15.8853 22.1667 16.333 22.6144 16.333 23.1667V23.5C16.333 24.0523 15.8853 24.5 15.333 24.5H3.49034C3.18329 24.4997 2.88892 24.3775 2.67191 24.1603C2.4549 23.943 2.33301 23.6486 2.33301 23.3415V4.6585C2.33514 4.35211 2.45772 4.05885 2.67427 3.84209C2.89082 3.62532 3.18395 3.50244 3.49034 3.5H24.509ZM9.33301 8.16667C9.95185 8.16667 10.5453 8.4125 10.9829 8.85008C11.4205 9.28767 11.6663 9.88116 11.6663 10.5C11.6663 11.1188 11.4205 11.7123 10.9829 12.1499C10.5453 12.5875 9.95185 12.8333 9.33301 12.8333C8.71417 12.8333 8.12068 12.5875 7.68309 12.1499C7.24551 11.7123 6.99967 11.1188 6.99967 10.5C6.99967 9.88116 7.24551 9.28767 7.68309 8.85008C8.12068 8.4125 8.71417 8.16667 9.33301 8.16667Z" fill="#91969E"/>
</g>
<defs>
<clipPath id="clip0_1839_10424">
<rect width="28" height="28" fill="white"/>
</clipPath>
</defs>
</svg>
