<svg width="20" height="20" viewBox="0 0 20 20" fill="none" xmlns="http://www.w3.org/2000/svg">
<g clip-path="url(#clip0_1821_10368)">
<path d="M14.1666 2.49998H17.5C17.721 2.49998 17.9329 2.58778 18.0892 2.74406C18.2455 2.90034 18.3333 3.1123 18.3333 3.33331V16.6666C18.3333 16.8877 18.2455 17.0996 18.0892 17.2559C17.9329 17.4122 17.721 17.5 17.5 17.5H2.49996C2.27895 17.5 2.06698 17.4122 1.9107 17.2559C1.75442 17.0996 1.66663 16.8877 1.66663 16.6666V3.33331C1.66663 3.1123 1.75442 2.90034 1.9107 2.74406C2.06698 2.58778 2.27895 2.49998 2.49996 2.49998H5.83329V1.66665C5.83329 1.20641 6.20639 0.833313 6.66663 0.833313V0.833313C7.12686 0.833313 7.49996 1.20641 7.49996 1.66665V2.49998H12.5V1.66665C12.5 1.20641 12.8731 0.833313 13.3333 0.833313V0.833313C13.7935 0.833313 14.1666 1.20641 14.1666 1.66665V2.49998ZM12.5 4.16665H7.49996V4.99998C7.49996 5.46022 7.12686 5.83331 6.66663 5.83331V5.83331C6.20639 5.83331 5.83329 5.46022 5.83329 4.99998V4.16665H3.33329V7.49998H16.6666V4.16665H14.1666V4.99998C14.1666 5.46022 13.7935 5.83331 13.3333 5.83331V5.83331C12.8731 5.83331 12.5 5.46022 12.5 4.99998V4.16665ZM16.6666 9.16665H3.33329V15.8333H16.6666V9.16665Z" fill="#91969E"/>
</g>
<defs>
<clipPath id="clip0_1821_10368">
<rect width="20" height="20" fill="white"/>
</clipPath>
</defs>
</svg>
