<svg width="16" height="16" viewBox="0 0 16 16" fill="none" xmlns="http://www.w3.org/2000/svg">
<path d="M11.75 1.75H14.75C14.9489 1.75 15.1397 1.82902 15.2803 1.96967C15.421 2.11032 15.5 2.30109 15.5 2.5V14.5C15.5 14.6989 15.421 14.8897 15.2803 15.0303C15.1397 15.171 14.9489 15.25 14.75 15.25H1.25C1.05109 15.25 0.860322 15.171 0.71967 15.0303C0.579018 14.8897 0.5 14.6989 0.5 14.5V2.5C0.5 2.30109 0.579018 2.11032 0.71967 1.96967C0.860322 1.82902 1.05109 1.75 1.25 1.75H4.25V1C4.25 0.585786 4.58579 0.25 5 0.25C5.41421 0.25 5.75 0.585786 5.75 1V1.75H10.25V1C10.25 0.585786 10.5858 0.25 11 0.25C11.4142 0.25 11.75 0.585786 11.75 1V1.75ZM10.25 3.25H5.75V4C5.75 4.41421 5.41421 4.75 5 4.75C4.58579 4.75 4.25 4.41421 4.25 4V3.25H2V6.25H14V3.25H11.75V4C11.75 4.41421 11.4142 4.75 11 4.75C10.5858 4.75 10.25 4.41421 10.25 4V3.25ZM14 7.75H2V13.75H14V7.75Z" fill="#91969E"/>
</svg>
