<svg width="20" height="20" viewBox="0 0 20 20" fill="none" xmlns="http://www.w3.org/2000/svg">
<path d="M14.583 4.50065H19.1663V6.33398H17.333V18.2507C17.333 18.4938 17.2364 18.7269 17.0645 18.8988C16.8926 19.0707 16.6595 19.1673 16.4163 19.1673H3.58301C3.33989 19.1673 3.10674 19.0707 2.93483 18.8988C2.76292 18.7269 2.66634 18.4938 2.66634 18.2507V6.33398H0.833008V4.50065H5.41634V1.75065C5.41634 1.50754 5.51292 1.27438 5.68483 1.10247C5.85674 0.930561 6.08989 0.833984 6.33301 0.833984H13.6663C13.9095 0.833984 14.1426 0.930561 14.3145 1.10247C14.4864 1.27438 14.583 1.50754 14.583 1.75065V4.50065ZM15.4997 6.33398H4.49967V17.334H15.4997V6.33398ZM7.24967 9.08398H9.08301V14.584H7.24967V9.08398ZM10.9163 9.08398H12.7497V14.584H10.9163V9.08398ZM7.24967 2.66732V4.50065H12.7497V2.66732H7.24967Z" fill="#91969E"/>
</svg>
