<svg width="9" height="8" viewBox="0 0 9 8" fill="none" xmlns="http://www.w3.org/2000/svg">
<path d="M8.6959 1.57572L6.27194 3.99992L8.6959 6.42402C9.05645 6.78471 9.05645 7.36897 8.6959 7.72966C8.51575 7.90981 8.27956 7.99996 8.04349 7.99996C7.80702 7.99996 7.57081 7.90995 7.3908 7.72966L4.96632 5.30529L2.54202 7.72964C2.3619 7.90979 2.12569 7.99993 1.88941 7.99993C1.6532 7.99993 1.41715 7.90993 1.23686 7.72964C0.876309 7.36911 0.876309 6.78482 1.23686 6.424L3.66074 3.9999L1.23672 1.57572C0.876171 1.21516 0.876171 0.630758 1.23672 0.270207C1.5972 -0.090069 2.18126 -0.090069 2.54188 0.270207L4.9663 2.69442L7.39053 0.270207C7.75121 -0.090069 8.33534 -0.090069 8.69576 0.270207C9.05645 0.630758 9.05645 1.21516 8.6959 1.57572Z" fill="#909CB5"/>
</svg>
