<svg width="18" height="18" viewBox="0 0 18 18" fill="none" xmlns="http://www.w3.org/2000/svg">
<path d="M13.167 3.99935H17.3337V5.66602H15.667V16.4993C15.667 16.7204 15.5792 16.9323 15.4229 17.0886C15.2666 17.2449 15.0547 17.3327 14.8337 17.3327H3.16699C2.94598 17.3327 2.73402 17.2449 2.57774 17.0886C2.42146 16.9323 2.33366 16.7204 2.33366 16.4993V5.66602H0.666992V3.99935H4.83366V1.49935C4.83366 1.27834 4.92146 1.06637 5.07774 0.910093C5.23402 0.753813 5.44598 0.666016 5.66699 0.666016H12.3337C12.5547 0.666016 12.7666 0.753813 12.9229 0.910093C13.0792 1.06637 13.167 1.27834 13.167 1.49935V3.99935ZM14.0003 5.66602H4.00033V15.666H14.0003V5.66602ZM6.50033 8.16602H8.16699V13.166H6.50033V8.16602ZM9.83366 8.16602H11.5003V13.166H9.83366V8.16602ZM6.50033 2.33268V3.99935H11.5003V2.33268H6.50033Z" fill="#91969E"/>
</svg>
