<svg width="20" height="20" viewBox="0 0 20 20" fill="none" xmlns="http://www.w3.org/2000/svg">
<path d="M14.167 5.00008H18.3337V6.66675H16.667V17.5001C16.667 17.7211 16.5792 17.9331 16.4229 18.0893C16.2666 18.2456 16.0547 18.3334 15.8337 18.3334H4.16699C3.94598 18.3334 3.73402 18.2456 3.57774 18.0893C3.42146 17.9331 3.33366 17.7211 3.33366 17.5001V6.66675H1.66699V5.00008H5.83366V2.50008C5.83366 2.27907 5.92146 2.06711 6.07774 1.91083C6.23402 1.75455 6.44598 1.66675 6.66699 1.66675H13.3337C13.5547 1.66675 13.7666 1.75455 13.9229 1.91083C14.0792 2.06711 14.167 2.27907 14.167 2.50008V5.00008ZM15.0003 6.66675H5.00033V16.6667H15.0003V6.66675ZM7.50033 9.16675H9.16699V14.1667H7.50033V9.16675ZM10.8337 9.16675H12.5003V14.1667H10.8337V9.16675ZM7.50033 3.33341V5.00008H12.5003V3.33341H7.50033Z" fill="#91969E"/>
</svg>
