<svg width="80" height="70" viewBox="0 0 80 70" fill="none" xmlns="http://www.w3.org/2000/svg">
<path d="M61.834 57.061C60.0389 57.0586 58.3181 56.3445 57.0488 55.0752C55.7795 53.8059 55.0654 52.085 55.063 50.29C55.063 46.559 58.1 43.519 61.834 43.519C65.568 43.519 68.605 46.556 68.605 50.29C68.604 54.023 65.566 57.061 61.834 57.061ZM61.834 44.52C58.652 44.52 56.063 47.108 56.063 50.291C56.063 53.474 58.653 56.062 61.834 56.062C65.015 56.062 67.605 53.474 67.605 50.291C67.6034 48.7609 66.9949 47.2939 65.9129 46.212C64.831 45.1301 63.3641 44.5216 61.834 44.52Z" fill="#CB11AB"/>
<path d="M74.695 52H68C67.725 52 67.5 51.775 67.5 51.5C67.5 51.225 67.725 51 68 51H74.195C74.123 36.381 70.912 26.456 65.131 23H54C53.8674 23 53.7402 22.9473 53.6464 22.8536C53.5527 22.7598 53.5 22.6326 53.5 22.5C53.5 22.3674 53.5527 22.2402 53.6464 22.1464C53.7402 22.0527 53.8674 22 54 22H65.268C65.356 22 65.444 22.023 65.52 22.067C73.94 26.948 75.198 42.604 75.198 51.5C75.1969 51.6328 75.1435 51.7598 75.0493 51.8534C74.9551 51.9471 74.8278 51.9997 74.695 52ZM55 52H26C25.8674 52 25.7402 51.9473 25.6464 51.8536C25.5527 51.7598 25.5 51.6326 25.5 51.5C25.5 51.3674 25.5527 51.2402 25.6464 51.1464C25.7402 51.0527 25.8674 51 26 51H55C55.275 51 55.5 51.225 55.5 51.5C55.5 51.775 55.275 52 55 52ZM13 52H4.5C4.36739 52 4.24021 51.9473 4.14645 51.8536C4.05268 51.7598 4 51.6326 4 51.5V41C4 40.8674 4.05268 40.7402 4.14645 40.6464C4.24021 40.5527 4.36739 40.5 4.5 40.5C4.63261 40.5 4.75979 40.5527 4.85355 40.6464C4.94732 40.7402 5 40.8674 5 41V51H13C13.1326 51 13.2598 51.0527 13.3536 51.1464C13.4473 51.2402 13.5 51.3674 13.5 51.5C13.5 51.6326 13.4473 51.7598 13.3536 51.8536C13.2598 51.9473 13.1326 52 13 52ZM68.041 37H58.5C58.3675 36.9997 58.2405 36.947 58.1467 36.8533C58.053 36.7595 58.0003 36.6325 58 36.5V26.5C58 26.3674 58.0527 26.2402 58.1464 26.1464C58.2402 26.0527 58.3674 26 58.5 26H63.46C63.587 25.9999 63.7093 26.0482 63.802 26.135C66.012 28.205 68.358 33.325 68.54 36.47C68.5442 36.5382 68.5343 36.6065 68.5109 36.6707C68.4875 36.7348 68.4511 36.7935 68.404 36.843C68.3576 36.8928 68.3014 36.9324 68.2389 36.9594C68.1764 36.9864 68.1091 37.0002 68.041 37ZM59 36H67.491C67.122 33.147 65.123 28.865 63.258 27H59V36Z" fill="#CB11AB"/>
<path d="M53.5 43H4.5C4.36739 43 4.24021 42.9473 4.14645 42.8536C4.05268 42.7598 4 42.6326 4 42.5V13.5C4 13.3674 4.05268 13.2402 4.14645 13.1464C4.24021 13.0527 4.36739 13 4.5 13H53.5C53.6326 13 53.7598 13.0527 53.8536 13.1464C53.9473 13.2402 54 13.3674 54 13.5V42.5C54 42.775 53.775 43 53.5 43ZM5 42H53V14H5V42ZM19.845 57.061C18.0499 57.0589 16.3289 56.3448 15.0595 55.0755C13.7902 53.8061 13.0761 52.0851 13.074 50.29C13.074 46.559 16.112 43.519 19.845 43.519C21.6401 43.5211 23.3611 44.2352 24.6305 45.5045C25.8998 46.7739 26.6139 48.4949 26.616 50.29C26.615 54.023 23.578 57.061 19.845 57.061ZM19.845 44.52C16.662 44.52 14.074 47.108 14.074 50.291C14.074 53.474 16.663 56.062 19.845 56.062C21.3751 56.0604 22.842 55.4519 23.924 54.37C25.0059 53.288 25.6144 51.8211 25.616 50.291C25.6141 48.761 25.0055 47.2942 23.9237 46.2123C22.8418 45.1305 21.375 44.5219 19.845 44.52ZM63 41H61C60.725 41 60.5 40.775 60.5 40.5C60.5 40.225 60.725 40 61 40H63C63.275 40 63.5 40.225 63.5 40.5C63.5 40.775 63.275 41 63 41Z" fill="#CB11AB"/>
</svg>
