<svg width="36" height="36" viewBox="0 0 36 36" fill="none" xmlns="http://www.w3.org/2000/svg">
<circle cx="18" cy="18" r="18" fill="#F10000" fill-opacity="0.8"/>
<path d="M6.89205 16.75V18.5227H2.80114V16.75H6.89205ZM12.5533 13.2727V22H10.1839V15.4545H10.1328L8.22372 16.5966V14.5852L10.3714 13.2727H12.5533ZM18.1463 22.2386C17.3537 22.2358 16.669 22.0526 16.0923 21.6889C15.5156 21.3253 15.071 20.8011 14.7585 20.1165C14.446 19.4318 14.2912 18.6108 14.294 17.6534C14.2969 16.6932 14.4531 15.8778 14.7628 15.2074C15.0753 14.5369 15.5185 14.027 16.0923 13.6776C16.669 13.3281 17.3537 13.1534 18.1463 13.1534C18.9389 13.1534 19.6236 13.3295 20.2003 13.6818C20.777 14.0312 21.2216 14.5412 21.5341 15.2116C21.8466 15.8821 22.0014 16.696 21.9986 17.6534C21.9986 18.6165 21.8423 19.4403 21.5298 20.125C21.2173 20.8097 20.7727 21.3338 20.196 21.6974C19.6222 22.0582 18.9389 22.2386 18.1463 22.2386ZM18.1463 20.3125C18.5554 20.3125 18.8906 20.0994 19.152 19.6733C19.4162 19.2443 19.5469 18.571 19.544 17.6534C19.544 17.054 19.4844 16.5639 19.3651 16.1832C19.2457 15.8026 19.081 15.5213 18.8707 15.3395C18.6605 15.1548 18.419 15.0625 18.1463 15.0625C17.7372 15.0625 17.4034 15.2699 17.1449 15.6847C16.8864 16.0994 16.7543 16.7557 16.7486 17.6534C16.7457 18.2642 16.804 18.767 16.9233 19.1619C17.0426 19.554 17.2074 19.8438 17.4176 20.0312C17.6307 20.2188 17.8736 20.3125 18.1463 20.3125ZM28.1051 20.3636V19.9034C28.1051 19.5341 28.1847 19.1932 28.3438 18.8807C28.5057 18.5682 28.7401 18.3168 29.0469 18.1264C29.3537 17.9361 29.7273 17.8409 30.1676 17.8409C30.6193 17.8409 30.9986 17.9347 31.3054 18.1222C31.6151 18.3097 31.8494 18.5597 32.0085 18.8722C32.1676 19.1847 32.2472 19.5284 32.2472 19.9034V20.3636C32.2472 20.733 32.1662 21.0739 32.0043 21.3864C31.8452 21.6989 31.6108 21.9503 31.3011 22.1406C30.9915 22.331 30.6136 22.4261 30.1676 22.4261C29.7216 22.4261 29.3452 22.331 29.0384 22.1406C28.7315 21.9503 28.4986 21.6989 28.3395 21.3864C28.1832 21.0739 28.1051 20.733 28.1051 20.3636ZM29.5881 19.9034V20.3636C29.5881 20.5256 29.6278 20.6861 29.7074 20.8452C29.7898 21.0014 29.9432 21.0795 30.1676 21.0795C30.4034 21.0795 30.5582 21.0028 30.6321 20.8494C30.7088 20.696 30.7472 20.5341 30.7472 20.3636V19.9034C30.7472 19.733 30.7116 19.5682 30.6406 19.4091C30.5696 19.25 30.4119 19.1705 30.1676 19.1705C29.9432 19.1705 29.7898 19.25 29.7074 19.4091C29.6278 19.5682 29.5881 19.733 29.5881 19.9034ZM23.5369 15.3693V14.9091C23.5369 14.5341 23.6179 14.1903 23.7798 13.8778C23.9446 13.5653 24.1804 13.3153 24.4872 13.1278C24.794 12.9403 25.1648 12.8466 25.5994 12.8466C26.0511 12.8466 26.4304 12.9403 26.7372 13.1278C27.0469 13.3153 27.2813 13.5653 27.4403 13.8778C27.5994 14.1903 27.679 14.5341 27.679 14.9091V15.3693C27.679 15.7443 27.598 16.0866 27.4361 16.3963C27.277 16.706 27.0426 16.9531 26.733 17.1378C26.4233 17.3224 26.0455 17.4148 25.5994 17.4148C25.1534 17.4148 24.777 17.321 24.4702 17.1335C24.1634 16.946 23.9304 16.6974 23.7713 16.3878C23.6151 16.0781 23.5369 15.7386 23.5369 15.3693ZM25.0369 14.9091V15.3693C25.0369 15.5398 25.0767 15.7017 25.1562 15.8551C25.2358 16.0085 25.3835 16.0852 25.5994 16.0852C25.8352 16.0852 25.9901 16.0085 26.0639 15.8551C26.1406 15.7017 26.179 15.5398 26.179 15.3693V14.9091C26.179 14.7386 26.1435 14.5739 26.0724 14.4148C26.0014 14.2557 25.8438 14.1761 25.5994 14.1761C25.375 14.1761 25.2244 14.2585 25.1477 14.4233C25.0739 14.5852 25.0369 14.7472 25.0369 14.9091ZM24.2614 22L30.2614 13.2727H31.4716L25.4716 22H24.2614Z" fill="white"/>
</svg>
