<svg width="70" height="70" viewBox="0 0 70 70" fill="none" xmlns="http://www.w3.org/2000/svg">
<path d="M42.6499 52.674C41.4337 52.6727 40.2677 52.189 39.4076 51.3291C38.5475 50.4692 38.0635 49.3033 38.0619 48.087C38.0619 45.557 40.1209 43.499 42.6499 43.499C45.1789 43.499 47.2379 45.557 47.2379 48.087C47.2364 49.3033 46.7524 50.4692 45.8923 51.3291C45.0322 52.189 43.8662 52.6727 42.6499 52.674ZM42.6499 44.499C41.6985 44.4996 40.7862 44.8777 40.1134 45.5505C39.4407 46.2233 39.0625 47.1356 39.0619 48.087C39.0627 49.0383 39.441 49.9503 40.1138 50.6229C40.7865 51.2954 41.6987 51.6735 42.6499 51.674C43.6011 51.6732 44.5131 51.2951 45.1858 50.6226C45.8585 49.9501 46.2369 49.0382 46.2379 48.087C46.2374 47.1356 45.8592 46.2233 45.1865 45.5505C44.5137 44.8777 43.6014 44.4996 42.6499 44.499ZM46.4999 67.5C46.3942 67.5002 46.2912 67.4666 46.2059 67.404L42.4999 64.709L38.7939 67.404C38.794 67.4896 38.7721 67.5737 38.7304 67.6484C38.6886 67.7231 38.6284 67.7858 38.5555 67.8306C38.4826 67.8753 38.3994 67.9006 38.3139 67.9041C38.2284 67.9075 38.1435 67.8889 38.0672 67.8501C37.9909 67.8113 37.9259 67.7536 37.8783 67.6824C37.8308 67.6113 37.8023 67.5292 37.7955 67.4439C37.7888 67.3586 37.804 67.273 37.8398 67.1953C37.8756 67.1176 37.9307 67.0503 37.9999 67V56C37.9999 55.725 38.2249 55.5 38.4999 55.5C38.7749 55.5 38.9999 55.725 38.9999 56V66.018L42.2059 63.686C42.2914 63.6241 42.3943 63.5907 42.4999 63.5907C42.6055 63.5907 42.7084 63.6241 42.7939 63.686L45.9999 66.018V56C45.9999 55.725 46.2249 55.5 46.4999 55.5C46.7749 55.5 46.9999 55.725 46.9999 56V67C46.9999 67.1326 46.9473 67.2598 46.8535 67.3536C46.7597 67.4473 46.6326 67.5 46.4999 67.5Z" fill="#CB11AB"/>
<path d="M53 61H47C46.725 61 46.5 60.775 46.5 60.5C46.5 60.225 46.725 60 47 60H53C54.299 60 55 58.454 55 57V12C55 10.636 54.363 10 53 10H17C15.546 10 14 10.701 14 12V57C14 58.374 15.626 60 17 60H38C38.275 60 38.5 60.225 38.5 60.5C38.5 60.775 38.275 61 38 61H17C15.056 61 13 58.943 13 57V12C13 10.051 15.061 9 17 9H53C54.936 9 56 10.065 56 12V57C56 58.939 54.949 61 53 61Z" fill="#CB11AB"/>
<path d="M42.742 57.432C42.6179 57.432 42.4982 57.3861 42.406 57.303L40.745 55.799L38.553 56.27C38.4321 56.2968 38.3055 56.2774 38.1982 56.2156C38.0908 56.1538 38.0105 56.054 37.973 55.936L37.285 53.801L35.151 53.112C35.0329 53.0749 34.9329 52.9948 34.8709 52.8876C34.8089 52.7805 34.7893 52.6539 34.816 52.533L35.287 50.342L33.784 48.678C33.7011 48.5861 33.6552 48.4668 33.6552 48.343C33.6552 48.2192 33.7011 48.0999 33.784 48.008L35.287 46.345L34.816 44.154C34.7895 44.033 34.8091 43.9064 34.8711 43.7991C34.9331 43.6918 35.0329 43.6115 35.151 43.574L37.285 42.886L37.973 40.752C38.0113 40.6344 38.0917 40.535 38.1987 40.473C38.3057 40.411 38.4319 40.3907 38.553 40.416L40.745 40.888L42.406 39.385C42.4978 39.3011 42.6176 39.2546 42.742 39.2546C42.8664 39.2546 42.9862 39.3011 43.078 39.385L44.74 40.888L46.933 40.416C47.0541 40.3902 47.1805 40.4103 47.2876 40.4724C47.3948 40.5345 47.4751 40.6341 47.513 40.752L48.201 42.886L50.334 43.574C50.579 43.652 50.725 43.904 50.669 44.154L50.198 46.345L51.702 48.008C51.7856 48.0996 51.8319 48.219 51.8319 48.343C51.8319 48.467 51.7856 48.5864 51.702 48.678L50.198 50.342L50.669 52.533C50.6959 52.6539 50.6765 52.7806 50.6144 52.8878C50.5524 52.9951 50.4523 53.0751 50.334 53.112L48.201 53.801L47.513 55.936C47.4743 56.0537 47.3934 56.1529 47.286 56.2145C47.1786 56.2762 47.0521 56.2959 46.931 56.27L44.74 55.799L43.078 57.303C42.9857 57.3859 42.8661 57.4318 42.742 57.432ZM40.891 54.756C41.014 54.756 41.133 54.801 41.227 54.885L42.744 56.258L44.263 54.885C44.3217 54.8324 44.3919 54.7945 44.468 54.7741C44.5441 54.7538 44.6239 54.7517 44.701 54.768L46.703 55.199L47.33 53.252C47.3546 53.1767 47.3967 53.1084 47.4528 53.0526C47.509 52.9968 47.5776 52.9551 47.653 52.931L49.598 52.301L49.168 50.301C49.1513 50.2236 49.1532 50.1434 49.1735 50.0669C49.1939 49.9904 49.2321 49.9198 49.285 49.861L50.658 48.343L49.285 46.826C49.232 46.767 49.1938 46.6962 49.1735 46.6196C49.1532 46.5429 49.1513 46.4625 49.168 46.385L49.598 44.385L47.653 43.756C47.5776 43.7319 47.509 43.6902 47.4528 43.6344C47.3967 43.5786 47.3546 43.5103 47.33 43.435L46.703 41.488L44.7 41.917C44.6229 41.9331 44.543 41.9308 44.4669 41.9103C44.3908 41.8898 44.3206 41.8517 44.262 41.799L42.743 40.428L41.226 41.799C41.167 41.8517 41.0964 41.8898 41.02 41.9103C40.9436 41.9308 40.8635 41.9331 40.786 41.917L38.785 41.486L38.156 43.433C38.1313 43.508 38.0893 43.5762 38.0333 43.632C37.9774 43.6877 37.9091 43.7295 37.834 43.754L35.889 44.383L36.319 46.383C36.3355 46.4605 36.3335 46.5409 36.3131 46.6175C36.2928 46.6941 36.2547 46.7648 36.202 46.824L34.829 48.341L36.202 49.859C36.309 49.98 36.352 50.142 36.319 50.299L35.889 52.299L37.834 52.929C37.9091 52.9535 37.9774 52.9953 38.0333 53.051C38.0893 53.1068 38.1313 53.175 38.156 53.25L38.785 55.197L40.786 54.766C40.8206 54.7596 40.8558 54.7563 40.891 54.756ZM21 18.474H51V19.474H21V18.474ZM21 24.474H51V25.474H21V24.474ZM37 30.558H51V31.558H37V30.558Z" fill="#CB11AB"/>
</svg>
