<svg width="26" height="28" viewBox="0 0 26 28" fill="none" xmlns="http://www.w3.org/2000/svg">
<path fill-rule="evenodd" clip-rule="evenodd" d="M25 23.2857V4.71429C25 3.7292 24.5786 2.78445 23.8284 2.08789C23.0783 1.39133 22.0609 1 21 1H5C3.93913 1 2.92172 1.39133 2.17157 2.08789C1.42143 2.78445 1 3.7292 1 4.71429V23.2857C1 24.2708 1.42143 25.2155 2.17157 25.9121C2.92172 26.6087 3.93913 27 5 27H21C22.0609 27 23.0783 26.6087 23.8284 25.9121C24.5786 25.2155 25 24.2708 25 23.2857V23.2857Z" stroke="#384255" stroke-width="2" stroke-linecap="round" stroke-linejoin="round"/>
<path d="M10.332 9.04803H18.6661" stroke="#384255" stroke-width="2" stroke-linecap="round" stroke-linejoin="round"/>
<path d="M5.33203 9.04803H6.99884" stroke="#384255" stroke-width="2" stroke-linecap="round" stroke-linejoin="round"/>
<path d="M10.332 13.6913H18.6661" stroke="#384255" stroke-width="2" stroke-linecap="round" stroke-linejoin="round"/>
<path d="M5.33203 13.6913H6.99884" stroke="#384255" stroke-width="2" stroke-linecap="round" stroke-linejoin="round"/>
<path d="M10.332 18.3347H18.6661" stroke="#384255" stroke-width="2" stroke-linecap="round" stroke-linejoin="round"/>
<path d="M5.33203 18.3347H6.99884" stroke="#384255" stroke-width="2" stroke-linecap="round" stroke-linejoin="round"/>
</svg>
