<svg width="20" height="20" viewBox="0 0 20 20" fill="none" xmlns="http://www.w3.org/2000/svg">
<path d="M11.4156 8.58427C10.6648 7.83373 9.64658 7.41211 8.58494 7.41211C7.5233 7.41211 6.50512 7.83373 5.75427 8.58427L2.92269 11.4149C2.17183 12.1658 1.75 13.1842 1.75 14.2461C1.75 15.3079 2.17183 16.3263 2.92269 17.0772C3.67355 17.828 4.69194 18.2499 5.75381 18.2499C6.81569 18.2499 7.83408 17.828 8.58494 17.0772L10.0003 15.6618" stroke="#91969E" stroke-width="2" stroke-linecap="round" stroke-linejoin="round"/>
<path d="M8.58496 11.4156C9.33581 12.1661 10.354 12.5878 11.4156 12.5878C12.4773 12.5878 13.4954 12.1661 14.2463 11.4156L17.0779 8.58494C17.8287 7.83408 18.2506 6.81569 18.2506 5.75381C18.2506 4.69194 17.8287 3.67355 17.0779 2.92269C16.327 2.17183 15.3086 1.75 14.2468 1.75C13.1849 1.75 12.1665 2.17183 11.4156 2.92269L10.0003 4.33802" stroke="#91969E" stroke-width="2" stroke-linecap="round" stroke-linejoin="round"/>
</svg>
