<svg width="31" height="30" viewBox="0 0 31 30" fill="none" xmlns="http://www.w3.org/2000/svg">
<path fill-rule="evenodd" clip-rule="evenodd" d="M27.3008 24.2857V5.71429C27.3008 4.7292 26.8794 3.78445 26.1292 3.08789C25.3791 2.39133 24.3616 2 23.3008 2H7.30078C6.23992 2 5.2225 2.39133 4.47235 3.08789C3.72221 3.78445 3.30078 4.7292 3.30078 5.71429V24.2857C3.30078 25.2708 3.72221 26.2155 4.47235 26.9121C5.2225 27.6087 6.23992 28 7.30078 28H23.3008C24.3616 28 25.3791 27.6087 26.1292 26.9121C26.8794 26.2155 27.3008 25.2708 27.3008 24.2857V24.2857Z" stroke="#384255" stroke-width="2" stroke-linecap="round" stroke-linejoin="round"/>
<path d="M12.6328 10.0488H20.9668" stroke="#384255" stroke-width="2" stroke-linecap="round" stroke-linejoin="round"/>
<path d="M7.63281 10.0488H9.29962" stroke="#384255" stroke-width="2" stroke-linecap="round" stroke-linejoin="round"/>
<path d="M12.6328 14.6914H20.9668" stroke="#384255" stroke-width="2" stroke-linecap="round" stroke-linejoin="round"/>
<path d="M7.63281 14.6914H9.29962" stroke="#384255" stroke-width="2" stroke-linecap="round" stroke-linejoin="round"/>
<path d="M12.6328 19.334H20.9668" stroke="#384255" stroke-width="2" stroke-linecap="round" stroke-linejoin="round"/>
<path d="M7.63281 19.334H9.29962" stroke="#384255" stroke-width="2" stroke-linecap="round" stroke-linejoin="round"/>
</svg>
