<svg width="29" height="28" viewBox="0 0 29 28" fill="none" xmlns="http://www.w3.org/2000/svg">
<g clip-path="url(#clip0_3_26974)">
<path d="M14.9284 2.3335C8.48489 2.3335 3.26172 7.55666 3.26172 14.0002C3.26172 19.823 7.52822 24.6495 13.1061 25.5257V17.3718H10.1427V14.0002H13.1061V11.43C13.1061 8.50633 14.8467 6.89166 17.5126 6.89166C18.7889 6.89166 20.1236 7.11916 20.1236 7.11916V9.98916H18.6536C17.2034 9.98916 16.7519 10.8887 16.7519 11.8115V14.0002H19.9871L19.4702 17.3718H16.7519V25.5257C22.3286 24.6507 26.5951 19.8218 26.5951 14.0002C26.5951 7.55666 21.3719 2.3335 14.9284 2.3335Z" fill="white"/>
</g>
<defs>
<clipPath id="clip0_3_26974">
<rect width="28" height="28" fill="white" transform="translate(0.928711)"/>
</clipPath>
</defs>
</svg>
