<svg width="22" height="19" viewBox="0 0 22 19" fill="none" xmlns="http://www.w3.org/2000/svg">
<path d="M12.0009 0V1.278L17.0009 2.946L20.6329 1.736L21.2659 3.632L18.2339 4.643L21.3299 13.155C20.2379 14.292 18.7009 15 17.0009 15C15.2999 15 13.7639 14.292 12.6719 13.155L15.7659 4.643L12.0009 3.387V17H16.0009V19H6.00087V17H10.0009V3.387L6.23287 4.643L9.32887 13.155C8.23787 14.292 6.70088 15 5.00087 15C3.29988 15 1.76388 14.292 0.671875 13.155L3.76587 4.643L0.735875 3.633L1.36888 1.735L5.00087 2.945L10.0009 1.278V0H12.0009ZM17.0009 7.103L15.0429 12.489C15.6299 12.82 16.2999 13 17.0009 13C17.7009 13 18.3709 12.82 18.9589 12.49L17.0009 7.102V7.103ZM5.00087 7.103L3.04287 12.489C3.62987 12.82 4.29988 13 5.00087 13C5.70087 13 6.37088 12.82 6.95888 12.49L5.00087 7.102V7.103Z" fill="#AAB1BF"/>
</svg>
