<svg width="24" height="24" viewBox="0 0 24 24" fill="none" xmlns="http://www.w3.org/2000/svg">
<path fill-rule="evenodd" clip-rule="evenodd" d="M12.7046 4.25632C13.8299 3.13054 15.3564 2.49805 16.9482 2.49805C18.5399 2.49805 20.0664 3.13051 21.1916 4.25624C22.3174 5.38152 22.95 6.90816 22.95 8.49987C22.95 10.0916 22.3175 11.6181 21.1917 12.7434C21.1917 12.7435 21.1917 12.7434 21.1917 12.7434L12.3517 21.5834C12.1565 21.7787 11.8399 21.7787 11.6446 21.5834L2.80461 12.7434C0.460963 10.3998 0.460963 6.59997 2.80461 4.25632C5.14826 1.91267 8.94807 1.91267 11.2917 4.25632L11.9982 4.96277L12.7046 4.25632C12.7046 4.25629 12.7046 4.25635 12.7046 4.25632ZM16.9482 3.49805C15.6217 3.49805 14.3496 4.02515 13.4118 4.96334L12.3517 6.02343C12.258 6.11719 12.1308 6.16987 11.9982 6.16987C11.8656 6.16987 11.7384 6.11719 11.6446 6.02343L10.5846 4.96343C8.63149 3.0103 5.46484 3.0103 3.51172 4.96343C1.55859 6.91655 1.55859 10.0832 3.51172 12.0363L11.9982 20.5228L20.4846 12.0363C21.4228 11.0986 21.95 9.82636 21.95 8.49987C21.95 7.17338 21.4229 5.90126 20.4847 4.96351C19.5469 4.02532 18.2747 3.49805 16.9482 3.49805Z" fill="white"/>
<path d="M12.7046 4.25632C13.8299 3.13054 15.3564 2.49805 16.9482 2.49805C18.5399 2.49805 20.0664 3.13051 21.1916 4.25624M12.7046 4.25632L11.9982 4.96277L11.2917 4.25632C8.94807 1.91267 5.14826 1.91267 2.80461 4.25632C0.460963 6.59997 0.460963 10.3998 2.80461 12.7434L11.6446 21.5834C11.8399 21.7787 12.1565 21.7787 12.3517 21.5834L21.1917 12.7434M12.7046 4.25632C12.7046 4.25635 12.7046 4.25629 12.7046 4.25632ZM21.1916 4.25624C21.1916 4.25621 21.1917 4.25626 21.1916 4.25624ZM21.1916 4.25624C22.3174 5.38152 22.95 6.90816 22.95 8.49987C22.95 10.0916 22.3175 11.6181 21.1917 12.7434M21.1917 12.7434C21.1917 12.7434 21.1917 12.7435 21.1917 12.7434ZM13.4118 4.96334C14.3496 4.02515 15.6217 3.49805 16.9482 3.49805C18.2747 3.49805 19.5469 4.02532 20.4847 4.96351C21.4229 5.90126 21.95 7.17338 21.95 8.49987C21.95 9.82636 21.4228 11.0986 20.4846 12.0363L11.9982 20.5228L3.51172 12.0363C1.55859 10.0832 1.55859 6.91655 3.51172 4.96343C5.46484 3.0103 8.63149 3.0103 10.5846 4.96343L11.6446 6.02343C11.7384 6.11719 11.8656 6.16987 11.9982 6.16987C12.1308 6.16987 12.258 6.11719 12.3517 6.02343L13.4118 4.96334Z" stroke="white" stroke-linecap="round" stroke-linejoin="round"/>
</svg>
