<svg width="16" height="14" viewBox="0 0 16 14" fill="none" xmlns="http://www.w3.org/2000/svg">
<path d="M14.7145 1.64623C12.9744 -0.0934288 10.1436 -0.0934288 8.40392 1.64623L7.99985 2.05006L7.59602 1.64623C5.85636 -0.0936642 3.0253 -0.0936642 1.28565 1.64623C-0.418688 3.35056 -0.429755 6.05211 1.25998 7.93046C2.80114 9.64304 7.34642 13.343 7.53927 13.4996C7.67019 13.606 7.82772 13.6578 7.98431 13.6578C7.98949 13.6578 7.99467 13.6578 7.99962 13.6576C8.16162 13.6651 8.3248 13.6095 8.45996 13.4996C8.65281 13.343 13.1986 9.64304 14.7402 7.93023C16.4297 6.05211 16.4186 3.35056 14.7145 1.64623ZM13.69 6.98528C12.4884 8.32017 9.18545 11.0733 7.99962 12.0503C6.81379 11.0735 3.51155 8.32064 2.31018 6.98552C1.13141 5.67536 1.12035 3.80949 2.28451 2.64533C2.87908 2.051 3.6599 1.7536 4.44072 1.7536C5.22154 1.7536 6.00236 2.05077 6.59692 2.64533L7.48511 3.53352C7.59084 3.63925 7.72412 3.70236 7.86399 3.72449C8.09098 3.77323 8.33728 3.70989 8.51389 3.53376L9.40255 2.64533C10.5919 1.45644 12.5265 1.45667 13.7152 2.64533C14.8794 3.80949 14.8683 5.67536 13.69 6.98528Z" fill="#909CB5"/>
</svg>
