<svg width="24" height="22" viewBox="0 0 24 22" fill="none" xmlns="http://www.w3.org/2000/svg">
<path fill-rule="evenodd" clip-rule="evenodd" d="M12.7046 3.25644C13.8299 2.13067 15.3564 1.49817 16.9482 1.49817C18.5399 1.49817 20.0664 2.13063 21.1916 3.25636C22.3174 4.38164 22.95 5.90829 22.95 7.49999C22.95 9.09174 22.3175 10.6183 21.1917 11.7435C21.1917 11.7436 21.1917 11.7435 21.1917 11.7435L12.3517 20.5835C12.1565 20.7788 11.8399 20.7788 11.6446 20.5835L2.80461 11.7435C0.460963 9.3999 0.460963 5.60009 2.80461 3.25644C5.14826 0.912791 8.94807 0.912791 11.2917 3.25644L11.9982 3.96289L12.7046 3.25644C12.7046 3.25647 12.7046 3.25641 12.7046 3.25644ZM16.9482 2.49817C15.6217 2.49817 14.3496 3.02528 13.4118 3.96346L12.3517 5.02355C12.258 5.11732 12.1308 5.16999 11.9982 5.16999C11.8656 5.16999 11.7384 5.11732 11.6446 5.02355L10.5846 3.96355C8.63149 2.01042 5.46484 2.01042 3.51172 3.96355C1.55859 5.91667 1.55859 9.08332 3.51172 11.0364L11.9982 19.5229L20.4846 11.0364C21.4228 10.0987 21.95 8.82648 21.95 7.49999C21.95 6.17351 21.4229 4.90138 20.4847 3.96363C19.5469 3.02544 18.2747 2.49817 16.9482 2.49817Z" fill="white"/>
<path d="M12.7046 3.25644C13.8299 2.13067 15.3564 1.49817 16.9482 1.49817C18.5399 1.49817 20.0664 2.13063 21.1916 3.25636M12.7046 3.25644L11.9982 3.96289L11.2917 3.25644C8.94807 0.912791 5.14826 0.912791 2.80461 3.25644C0.460963 5.60009 0.460963 9.3999 2.80461 11.7435L11.6446 20.5835C11.8399 20.7788 12.1565 20.7788 12.3517 20.5835L21.1917 11.7435M12.7046 3.25644C12.7046 3.25647 12.7046 3.25641 12.7046 3.25644ZM21.1916 3.25636C21.1916 3.25633 21.1917 3.25639 21.1916 3.25636ZM21.1916 3.25636C22.3174 4.38164 22.95 5.90829 22.95 7.49999C22.95 9.09174 22.3175 10.6183 21.1917 11.7435M21.1917 11.7435C21.1917 11.7435 21.1917 11.7436 21.1917 11.7435ZM13.4118 3.96346C14.3496 3.02528 15.6217 2.49817 16.9482 2.49817C18.2747 2.49817 19.5469 3.02544 20.4847 3.96363C21.4229 4.90138 21.95 6.17351 21.95 7.49999C21.95 8.82648 21.4228 10.0987 20.4846 11.0364L11.9982 19.5229L3.51172 11.0364C1.55859 9.08332 1.55859 5.91667 3.51172 3.96355C5.46484 2.01042 8.63149 2.01042 10.5846 3.96355L11.6446 5.02355C11.7384 5.11732 11.8656 5.16999 11.9982 5.16999C12.1308 5.16999 12.258 5.11732 12.3517 5.02355L13.4118 3.96346Z" stroke="white" stroke-linecap="round" stroke-linejoin="round"/>
</svg>
