<svg width="9" height="8" viewBox="0 0 9 8" fill="none" xmlns="http://www.w3.org/2000/svg">
<path d="M8.69443 1.57572L6.27048 3.99992L8.69443 6.42402C9.05498 6.78471 9.05498 7.36897 8.69443 7.72966C8.51428 7.90981 8.27809 7.99996 8.04202 7.99996C7.80556 7.99996 7.56935 7.90995 7.38934 7.72966L4.96486 5.30529L2.54056 7.72964C2.36043 7.90979 2.12422 7.99993 1.88794 7.99993C1.65173 7.99993 1.41568 7.90993 1.23539 7.72964C0.874844 7.36911 0.874844 6.78482 1.23539 6.424L3.65928 3.9999L1.23526 1.57572C0.874706 1.21516 0.874706 0.630758 1.23526 0.270207C1.59574 -0.090069 2.1798 -0.090069 2.54042 0.270207L4.96483 2.69442L7.38906 0.270207C7.74975 -0.090069 8.33388 -0.090069 8.69429 0.270207C9.05498 0.630758 9.05498 1.21516 8.69443 1.57572Z" fill="#292929"/>
</svg>
