<svg width="29" height="28" viewBox="0 0 29 28" fill="none" xmlns="http://www.w3.org/2000/svg">
<g clip-path="url(#clip0_3_26977)">
<path d="M14.9284 2.3335C18.0982 2.3335 18.4937 2.34516 19.7374 2.4035C20.9799 2.46183 21.8257 2.65666 22.5701 2.946C23.3401 3.24233 23.9887 3.64366 24.6374 4.29116C25.2306 4.87437 25.6897 5.57985 25.9826 6.3585C26.2707 7.10166 26.4667 7.94866 26.5251 9.19116C26.5799 10.4348 26.5951 10.8303 26.5951 14.0002C26.5951 17.17 26.5834 17.5655 26.5251 18.8092C26.4667 20.0517 26.2707 20.8975 25.9826 21.6418C25.6905 22.4209 25.2314 23.1266 24.6374 23.7092C24.054 24.3022 23.3486 24.7612 22.5701 25.0543C21.8269 25.3425 20.9799 25.5385 19.7374 25.5968C18.4937 25.6517 18.0982 25.6668 14.9284 25.6668C11.7586 25.6668 11.3631 25.6552 10.1194 25.5968C8.87689 25.5385 8.03105 25.3425 7.28672 25.0543C6.50777 24.7621 5.80217 24.3029 5.21939 23.7092C4.62603 23.126 4.16697 22.4205 3.87422 21.6418C3.58489 20.8987 3.39005 20.0517 3.33172 18.8092C3.27689 17.5655 3.26172 17.17 3.26172 14.0002C3.26172 10.8303 3.27339 10.4348 3.33172 9.19116C3.39005 7.9475 3.58489 7.10283 3.87422 6.3585C4.16616 5.57937 4.62532 4.8737 5.21939 4.29116C5.80234 3.6976 6.50789 3.23851 7.28672 2.946C8.03105 2.65666 8.87572 2.46183 10.1194 2.4035C11.3631 2.34866 11.7586 2.3335 14.9284 2.3335ZM14.9284 8.16683C13.3813 8.16683 11.8976 8.78141 10.8036 9.87537C9.70963 10.9693 9.09505 12.4531 9.09505 14.0002C9.09505 15.5473 9.70963 17.031 10.8036 18.125C11.8976 19.2189 13.3813 19.8335 14.9284 19.8335C16.4755 19.8335 17.9592 19.2189 19.0532 18.125C20.1471 17.031 20.7617 15.5473 20.7617 14.0002C20.7617 12.4531 20.1471 10.9693 19.0532 9.87537C17.9592 8.78141 16.4755 8.16683 14.9284 8.16683ZM22.5117 7.87516C22.5117 7.48839 22.3581 7.11746 22.0846 6.84397C21.8111 6.57048 21.4402 6.41683 21.0534 6.41683C20.6666 6.41683 20.2957 6.57048 20.0222 6.84397C19.7487 7.11746 19.5951 7.48839 19.5951 7.87516C19.5951 8.26194 19.7487 8.63287 20.0222 8.90636C20.2957 9.17985 20.6666 9.3335 21.0534 9.3335C21.4402 9.3335 21.8111 9.17985 22.0846 8.90636C22.3581 8.63287 22.5117 8.26194 22.5117 7.87516ZM14.9284 10.5002C15.8566 10.5002 16.7469 10.8689 17.4033 11.5253C18.0596 12.1817 18.4284 13.0719 18.4284 14.0002C18.4284 14.9284 18.0596 15.8187 17.4033 16.475C16.7469 17.1314 15.8566 17.5002 14.9284 17.5002C14.0001 17.5002 13.1099 17.1314 12.4535 16.475C11.7971 15.8187 11.4284 14.9284 11.4284 14.0002C11.4284 13.0719 11.7971 12.1817 12.4535 11.5253C13.1099 10.8689 14.0001 10.5002 14.9284 10.5002Z" fill="white"/>
</g>
<defs>
<clipPath id="clip0_3_26977">
<rect width="28" height="28" fill="white" transform="translate(0.928711)"/>
</clipPath>
</defs>
</svg>
