<svg width="36" height="36" viewBox="0 0 36 36" fill="none" xmlns="http://www.w3.org/2000/svg">
<circle cx="18" cy="18" r="18" fill="#2C68F5"/>
<path d="M11.6304 15.5217C10.7317 15.5217 10 16.2535 10 17.1522V22.3696C10 23.2682 10.7317 24 11.6304 24H13.5869C13.9541 24 14.2919 23.8761 14.5652 23.67V15.5217H11.6304Z" fill="white"/>
<path d="M25.6535 17.9674C25.6535 17.5754 25.4983 17.2102 25.229 16.9409C25.5335 16.6076 25.6887 16.1608 25.6463 15.6959C25.57 14.8669 24.8233 14.2174 23.9455 14.2174H19.917C20.1166 13.6115 20.4361 12.5009 20.4361 11.6087C20.4361 10.1941 19.2342 9 18.4796 9C17.802 9 17.3181 9.38152 17.2972 9.39717C17.2203 9.45914 17.1753 9.55305 17.1753 9.65216V11.8637L15.297 15.9326L15.2188 15.9724V22.9624C15.7496 23.2128 16.4213 23.3478 16.8492 23.3478H22.8355C23.5457 23.3478 24.1672 22.8691 24.3133 22.2085C24.3883 21.8687 24.3446 21.5263 24.1953 21.2289C24.6772 20.9863 25.0014 20.49 25.0014 19.9239C25.0014 19.693 24.9485 19.472 24.8481 19.2717C25.3301 19.0291 25.6535 18.5328 25.6535 17.9674Z" fill="white"/>
</svg>
