<svg width="222" height="41" viewBox="0 0 222 41" fill="none" xmlns="http://www.w3.org/2000/svg">
<path d="M39.9838 32.6284C39.2485 32.6284 38.5712 32.4446 37.9519 32.0769C37.3521 31.7092 36.8683 31.2255 36.5006 30.6256C36.1523 30.0257 35.9781 29.3581 35.9781 28.6228V22.295H49.2723V19.9438C49.2723 19.8471 49.2336 19.7697 49.1562 19.7116C49.0981 19.6342 49.0207 19.5955 48.924 19.5955H35.9781V15.793H49.0691C49.8044 15.793 50.4721 15.9769 51.0719 16.3445C51.6912 16.7122 52.1749 17.196 52.5233 17.7959C52.8909 18.3957 53.0748 19.0633 53.0748 19.7987V32.6284H39.9838ZM40.1289 28.8259H49.2723V25.7201H39.7806V28.4776C39.7806 28.5744 39.8096 28.6615 39.8677 28.7389C39.9451 28.7969 40.0322 28.8259 40.1289 28.8259ZM59.8767 32.6284C59.122 32.6284 58.4448 32.4446 57.8449 32.0769C57.245 31.7092 56.7612 31.2255 56.3935 30.6256C56.0452 30.0257 55.8711 29.3581 55.8711 28.6228V19.7987C55.8711 19.0633 56.0452 18.3957 56.3935 17.7959C56.7612 17.196 57.245 16.7122 57.8449 16.3445C58.4448 15.9769 59.122 15.793 59.8767 15.793H69.1943V10.278H72.9967V32.6284H59.8767ZM60.0509 28.8259H68.8459C68.9427 28.8259 69.0201 28.7969 69.0781 28.7389C69.1555 28.6615 69.1943 28.5744 69.1943 28.4776V19.9438C69.1943 19.8471 69.1555 19.7697 69.0781 19.7116C69.0201 19.6342 68.9427 19.5955 68.8459 19.5955H60.0509C59.9541 19.5955 59.8671 19.6342 59.7896 19.7116C59.7316 19.7697 59.7026 19.8471 59.7026 19.9438V28.4776C59.7026 28.5744 59.7316 28.6615 59.7896 28.7389C59.8671 28.7969 59.9541 28.8259 60.0509 28.8259ZM79.1501 39.2755V35.444H89.2804C89.3772 35.444 89.4546 35.4053 89.5126 35.3279C89.59 35.2698 89.6287 35.1924 89.6287 35.0957V32.6284H80.3402C79.6242 32.6284 78.9566 32.4446 78.3374 32.0769C77.7375 31.7092 77.2537 31.2255 76.8861 30.6256C76.5184 30.0257 76.3346 29.3581 76.3346 28.6228V19.7987C76.3346 19.0633 76.5184 18.3957 76.8861 17.7959C77.2537 17.196 77.7375 16.7122 78.3374 16.3445C78.9566 15.9769 79.6242 15.793 80.3402 15.793H89.4546C90.1899 15.793 90.8575 15.9769 91.4574 16.3445C92.0573 16.7122 92.5314 17.196 92.8797 17.7959C93.2474 18.3957 93.4312 19.0633 93.4312 19.7987V35.2698C93.4312 36.0245 93.257 36.7018 92.9087 37.3017C92.5604 37.9016 92.0766 38.3757 91.4574 38.724C90.8575 39.0917 90.1899 39.2755 89.4546 39.2755H79.1501ZM80.4854 28.8259H89.2804C89.3772 28.8259 89.4546 28.7969 89.5126 28.7389C89.59 28.6615 89.6287 28.5744 89.6287 28.4776V19.9438C89.6287 19.8471 89.59 19.7697 89.5126 19.7116C89.4546 19.6342 89.3772 19.5955 89.2804 19.5955H80.4854C80.3886 19.5955 80.3015 19.6342 80.2241 19.7116C80.1661 19.7697 80.137 19.8471 80.137 19.9438V28.4776C80.137 28.5744 80.1661 28.6615 80.2241 28.7389C80.3015 28.7969 80.3886 28.8259 80.4854 28.8259ZM100.43 32.6284C99.6944 32.6284 99.0268 32.4446 98.4269 32.0769C97.827 31.7092 97.3433 31.2255 96.9756 30.6256C96.6079 30.0257 96.4241 29.3581 96.4241 28.6228V19.7987C96.4241 19.0633 96.6079 18.3957 96.9756 17.7959C97.3433 17.196 97.827 16.7122 98.4269 16.3445C99.0268 15.9769 99.6944 15.793 100.43 15.793H109.515C110.25 15.793 110.918 15.9769 111.518 16.3445C112.137 16.7122 112.621 17.196 112.969 17.7959C113.337 18.3957 113.521 19.0633 113.521 19.7987V26.1265H100.227V28.4776C100.227 28.5744 100.256 28.6615 100.314 28.7389C100.391 28.7969 100.478 28.8259 100.575 28.8259H113.521V32.6284H100.43ZM100.227 22.7013H109.718V19.9438C109.718 19.8471 109.68 19.7697 109.602 19.7116C109.544 19.6342 109.467 19.5955 109.37 19.5955H100.575C100.478 19.5955 100.391 19.6342 100.314 19.7116C100.256 19.7697 100.227 19.8471 100.227 19.9438V22.7013ZM121.166 32.6284C120.43 32.6284 119.763 32.4446 119.163 32.0769C118.563 31.7092 118.079 31.2255 117.712 30.6256C117.344 30.0257 117.16 29.3581 117.16 28.6228V10.6263H120.963V15.793H127.523V19.5955H120.963V28.4776C120.963 28.5744 120.992 28.6615 121.05 28.7389C121.127 28.7969 121.214 28.8259 121.311 28.8259H127.523V32.6284H121.166ZM135.04 32.6284C134.305 32.6284 133.627 32.4446 133.008 32.0769C132.408 31.7092 131.925 31.2255 131.557 30.6256C131.209 30.0257 131.034 29.3581 131.034 28.6228V22.295H144.329V19.9438C144.329 19.8471 144.29 19.7697 144.212 19.7116C144.154 19.6342 144.077 19.5955 143.98 19.5955H131.034V15.793H144.125C144.861 15.793 145.528 15.9769 146.128 16.3445C146.747 16.7122 147.231 17.196 147.58 17.7959C147.947 18.3957 148.131 19.0633 148.131 19.7987V32.6284H135.04ZM135.185 28.8259H144.329V25.7201H134.837V28.4776C134.837 28.5744 134.866 28.6615 134.924 28.7389C135.001 28.7969 135.088 28.8259 135.185 28.8259ZM151.174 32.6284V19.7987C151.174 19.0633 151.358 18.3957 151.725 17.7959C152.093 17.196 152.577 16.7122 153.177 16.3445C153.796 15.9769 154.464 15.793 155.179 15.793H164.526V19.5955H155.325C155.228 19.5955 155.141 19.6342 155.063 19.7116C155.005 19.7697 154.976 19.8471 154.976 19.9438V32.6284H151.174ZM167.316 32.6284V15.793H171.119V32.6284H167.316ZM167.316 14.1095V10.278H171.119V14.1095H167.316ZM178.366 32.6284C177.631 32.6284 176.954 32.4446 176.334 32.0769C175.735 31.7092 175.251 31.2255 174.883 30.6256C174.535 30.0257 174.361 29.3581 174.361 28.6228V15.793H178.163V28.4776C178.163 28.5744 178.192 28.6615 178.25 28.7389C178.328 28.7969 178.415 28.8259 178.511 28.8259H187.306C187.403 28.8259 187.481 28.7969 187.539 28.7389C187.616 28.6615 187.655 28.5744 187.655 28.4776V15.793H191.457V28.6228C191.457 29.3581 191.273 30.0257 190.906 30.6256C190.557 31.2255 190.083 31.7092 189.483 32.0769C188.884 32.4446 188.206 32.6284 187.452 32.6284H178.366ZM194.444 32.6284V15.793H215.314C216.069 15.793 216.746 15.9769 217.346 16.3445C217.946 16.7122 218.42 17.196 218.768 17.7959C219.136 18.3957 219.32 19.0633 219.32 19.7987V32.6284H215.546V19.9438C215.546 19.8471 215.508 19.7697 215.43 19.7116C215.353 19.6342 215.266 19.5955 215.169 19.5955H209.16C209.064 19.5955 208.977 19.6342 208.899 19.7116C208.841 19.7697 208.812 19.8471 208.812 19.9438V32.6284H204.981V19.9438C204.981 19.8471 204.942 19.7697 204.865 19.7116C204.806 19.6342 204.729 19.5955 204.632 19.5955H198.595C198.498 19.5955 198.411 19.6342 198.334 19.7116C198.276 19.7697 198.246 19.8471 198.246 19.9438V32.6284H194.444Z" fill="white"/>
<rect y="0.362549" width="32.292" height="36.646" fill="#CB11AB"/>
<path d="M16.3602 33.3592C14.6839 33.3592 13.1056 33.0544 11.6253 32.4449C10.1667 31.8353 8.89315 30.9972 7.80465 29.9304C6.71616 28.8419 5.85624 27.5793 5.22492 26.1425C4.61536 24.6839 4.31058 23.1165 4.31058 21.4402C4.31058 19.7639 4.62624 18.2073 5.25757 16.7705C5.8889 15.3337 6.7597 14.0819 7.86996 13.0152C9.002 11.9267 10.3191 11.0886 11.8212 10.5008C13.3233 9.89124 14.9343 9.58646 16.6541 9.58646C18.6352 9.58646 20.4312 9.94566 22.0422 10.6641C23.6749 11.3825 25.0247 12.373 26.0914 13.6357L22.5973 17.1297C21.8571 16.1719 20.9863 15.4535 19.9849 14.9745C18.9835 14.4956 17.8515 14.2561 16.5888 14.2561C15.2391 14.2561 14.0308 14.5609 12.9641 15.1704C11.8974 15.7582 11.0593 16.5964 10.4497 17.6849C9.86191 18.7516 9.56801 20.0034 9.56801 21.4402C9.56801 22.877 9.86191 24.1396 10.4497 25.2281C11.0375 26.3166 11.843 27.1657 12.8662 27.7752C13.8893 28.3848 15.0649 28.6896 16.3929 28.6896C17.7426 28.6896 18.8855 28.4392 19.8216 27.9385C20.7795 27.416 21.5088 26.6758 22.0095 25.718C22.532 24.7383 22.7932 23.5519 22.7932 22.1586L26.1893 24.4444L15.9031 24.2812V19.9381H28.018V20.6891C28.018 23.4539 27.5173 25.7833 26.5159 27.6773C25.5362 29.5495 24.1647 30.9645 22.4014 31.9224C20.6598 32.8803 18.6461 33.3592 16.3602 33.3592Z" fill="white"/>
</svg>
