<svg width="28" height="22" viewBox="0 0 28 22" fill="none" xmlns="http://www.w3.org/2000/svg">
<path fill-rule="evenodd" clip-rule="evenodd" d="M27.4452 21.1734V21.2285H27.4974C27.5072 21.2287 27.5169 21.2263 27.5254 21.2215C27.5323 21.2167 27.5363 21.2088 27.5358 21.2004C27.5362 21.1922 27.5323 21.1844 27.5254 21.1799C27.517 21.1749 27.5072 21.1724 27.4974 21.1728H27.4452V21.1734ZM27.4979 21.1343C27.5203 21.133 27.5425 21.1394 27.5606 21.1523C27.5754 21.1642 27.5836 21.1824 27.5827 21.2012C27.5833 21.2173 27.5769 21.2329 27.565 21.244C27.551 21.256 27.5334 21.2632 27.5149 21.2646L27.5848 21.3432H27.5309L27.4666 21.2651H27.4457V21.3432H27.4006V21.1345H27.4986L27.4979 21.1343ZM27.4839 21.4152C27.5076 21.4154 27.531 21.4107 27.5527 21.4014C27.5736 21.3925 27.5926 21.3798 27.6087 21.364C27.6248 21.3482 27.6377 21.3295 27.6466 21.3088C27.665 21.2651 27.665 21.216 27.6466 21.1723C27.6376 21.1517 27.6247 21.133 27.6087 21.1171C27.5926 21.1013 27.5736 21.0886 27.5527 21.0797C27.5308 21.0709 27.5075 21.0665 27.4839 21.0667C27.46 21.0666 27.4362 21.0709 27.4139 21.0797C27.3926 21.0884 27.3731 21.1011 27.3567 21.1171C27.3061 21.1682 27.2914 21.2444 27.3193 21.3103C27.3278 21.3309 27.3405 21.3497 27.3567 21.3654C27.3732 21.3814 27.3926 21.3941 27.4139 21.4028C27.4361 21.4121 27.4599 21.4168 27.4839 21.4166V21.4152ZM27.4839 21.0166C27.5455 21.0165 27.6045 21.0403 27.6485 21.0827C27.6696 21.1031 27.6864 21.1275 27.698 21.1544C27.7222 21.21 27.7222 21.2731 27.698 21.3289C27.6861 21.3555 27.6693 21.3798 27.6485 21.4004C27.627 21.4207 27.602 21.4371 27.5747 21.4487C27.546 21.4607 27.5151 21.4669 27.4839 21.4667C27.4524 21.4669 27.4212 21.4608 27.3921 21.4487C27.3645 21.4374 27.3393 21.421 27.3177 21.4004C27.2969 21.3791 27.2803 21.354 27.2689 21.3265C27.2448 21.2708 27.2448 21.2077 27.2689 21.152C27.2804 21.1251 27.2973 21.1008 27.3185 21.0804C27.3397 21.0595 27.3649 21.0431 27.3928 21.0321C27.4218 21.02 27.4532 21.014 27.4846 21.0142L27.4839 21.0166ZM6.04992 20.2105C6.04992 19.8126 6.31456 19.4856 6.74692 19.4856C7.16012 19.4856 7.43901 19.7985 7.43901 20.2105C7.43901 20.6226 7.16012 20.9354 6.74692 20.9354C6.31456 20.9354 6.04992 20.6085 6.04992 20.2105ZM7.91003 20.2105V19.078H7.41042V19.3539C7.25197 19.15 7.01165 19.0222 6.68475 19.0222C6.04084 19.0222 5.53552 19.5199 5.53552 20.2111C5.53552 20.9023 6.04057 21.4001 6.68475 21.4001C7.01147 21.4001 7.25197 21.272 7.41042 21.0683V21.3432H7.90948V20.2105H7.91003ZM24.7907 20.2105C24.7907 19.8126 25.0552 19.4856 25.4878 19.4856C25.9014 19.4856 26.1799 19.7985 26.1799 20.2105C26.1799 20.6226 25.9014 20.9354 25.4878 20.9354C25.0554 20.9354 24.7907 20.6085 24.7907 20.2105ZM26.6513 20.2105V18.1689H26.1513V19.3539C25.9928 19.15 25.7525 19.0222 25.4257 19.0222C24.7817 19.0222 24.2764 19.5199 24.2764 20.2111C24.2764 20.9023 24.7814 21.4001 25.4257 21.4001C25.7525 21.4001 25.9928 21.272 26.1513 21.0683V21.3432H26.6513V20.2105ZM14.1107 19.4623C14.4326 19.4623 14.6394 19.6613 14.6921 20.0115H13.5001C13.5534 19.6845 13.7548 19.4623 14.1108 19.4623H14.1107ZM14.1207 19.0209C13.4474 19.0209 12.9764 19.5037 12.9764 20.2099C12.9764 20.9298 13.4663 21.3988 14.1542 21.3988C14.5002 21.3988 14.8172 21.3137 15.096 21.0815L14.8511 20.7167C14.6586 20.8684 14.4133 20.9535 14.1827 20.9535C13.8608 20.9535 13.5677 20.8066 13.4956 20.3989H15.2015C15.2064 20.3377 15.2114 20.2759 15.2114 20.2097C15.2064 19.5039 14.7636 19.0207 14.1205 19.0207L14.1207 19.0209ZM20.1523 20.2097C20.1523 19.8117 20.4168 19.4848 20.8492 19.4848C21.2625 19.4848 21.5413 19.7976 21.5413 20.2097C21.5413 20.6217 21.2625 20.9346 20.8492 20.9346C20.4168 20.9346 20.1521 20.6077 20.1521 20.2097H20.1523ZM22.0122 20.2097V19.078H21.5129V19.3539C21.3539 19.15 21.1141 19.0222 20.7872 19.0222C20.1433 19.0222 19.638 19.5199 19.638 20.2111C19.638 20.9023 20.143 21.4001 20.7872 21.4001C21.1141 21.4001 21.3539 21.272 21.5129 21.0683V21.3432H22.0123V20.2105L22.0122 20.2097ZM17.3309 20.2097C17.3309 20.8965 17.8161 21.3986 18.5566 21.3986C18.9026 21.3986 19.1332 21.3228 19.3825 21.1287L19.1426 20.7307C18.955 20.8635 18.758 20.9346 18.5407 20.9346C18.1418 20.9298 17.8486 20.6456 17.8486 20.2097C17.8486 19.7738 18.1418 19.4897 18.5407 19.4848C18.7575 19.4848 18.9544 19.5558 19.1426 19.6886L19.3825 19.2907C19.1328 19.0966 18.9022 19.0207 18.5566 19.0207C17.8161 19.0207 17.3309 19.5227 17.3309 20.2097ZM23.7715 19.0207C23.4833 19.0207 23.2956 19.1535 23.1658 19.3525V19.078H22.6707V21.3419H23.1708V20.0728C23.1708 19.6982 23.3342 19.49 23.6608 19.49C23.7677 19.4885 23.8739 19.5079 23.9732 19.547L24.1272 19.083C24.0166 19.04 23.8724 19.0212 23.7712 19.0212L23.7715 19.0207ZM10.38 19.258C10.1397 19.1018 9.80844 19.0212 9.44315 19.0212C8.86105 19.0212 8.48632 19.2961 8.48632 19.746C8.48632 20.1151 8.7653 20.3428 9.27906 20.4139L9.51503 20.4469C9.78901 20.4849 9.91834 20.556 9.91834 20.6838C9.91834 20.8589 9.73638 20.9588 9.39469 20.9588C9.04864 20.9588 8.79888 20.8498 8.63053 20.7219L8.39575 21.1058C8.66974 21.3047 9.01578 21.3996 9.39051 21.3996C10.054 21.3996 10.4385 21.0917 10.4385 20.6606C10.4385 20.2626 10.1359 20.0545 9.63591 19.9835L9.4004 19.9498C9.18413 19.9222 9.01088 19.8793 9.01088 19.7275C9.01088 19.5621 9.17424 19.4624 9.44832 19.4624C9.74155 19.4624 10.0254 19.5714 10.1646 19.6565L10.3808 19.2585L10.38 19.258ZM16.8263 19.0215C16.5381 19.0215 16.3504 19.1544 16.2212 19.3533V19.078H15.726V21.3419H16.2256V20.0728C16.2256 19.6982 16.389 19.49 16.7156 19.49C16.8225 19.4885 16.9287 19.5079 17.028 19.547L17.182 19.083C17.0714 19.04 16.9272 19.0212 16.826 19.0212L16.8263 19.0215ZM12.563 19.078H11.746V18.3912H11.241V19.078H10.7751V19.528H11.241V20.5608C11.241 21.086 11.4479 21.3989 12.0389 21.3989C12.2557 21.3989 12.5055 21.3327 12.6639 21.2239L12.5196 20.8023C12.3705 20.8874 12.2072 20.9303 12.0773 20.9303C11.8275 20.9303 11.746 20.7786 11.746 20.5514V19.5284H12.563V19.078ZM5.09373 21.3425V19.9217C5.09373 19.3866 4.74768 19.0265 4.1899 19.0217C3.89658 19.0169 3.5941 19.1069 3.38236 19.4245C3.22391 19.1735 2.97415 19.0217 2.62311 19.0217C2.37771 19.0217 2.13794 19.0927 1.95016 19.3579V19.078H1.4502V21.3419H1.95407V20.0866C1.95407 19.6936 2.17524 19.4848 2.51684 19.4848C2.84854 19.4848 3.01644 19.6979 3.01644 20.0817V21.3417H3.52149V20.0863C3.52149 19.6934 3.75201 19.4845 4.08363 19.4845C4.42477 19.4845 4.58759 19.6977 4.58759 20.0814V21.3414L5.09373 21.3425Z" fill="#231F20"/>
<path fill-rule="evenodd" clip-rule="evenodd" d="M27.7299 13.8116V13.4805H27.6425L27.5413 13.7076L27.4406 13.4805H27.3529V13.8116H27.4149V13.5621L27.5096 13.7773H27.574L27.6686 13.5616V13.8116H27.7302H27.7299ZM27.1749 13.8116V13.5372H27.2869V13.4813H27.0007V13.5372H27.1127V13.8116H27.1749Z" fill="#F79410"/>
<path fill-rule="evenodd" clip-rule="evenodd" d="M17.7861 15.2316H10.2151V1.82324H17.7863L17.7861 15.2316Z" fill="#FF5F00"/>
<path fill-rule="evenodd" clip-rule="evenodd" d="M10.6946 8.52748C10.6946 5.80758 11.987 3.38469 13.9993 1.82324C12.4763 0.63983 10.5916 -0.00285241 8.65219 9.51711e-06C3.87359 9.51711e-06 0 3.81782 0 8.52748C0 13.2371 3.87359 17.0549 8.65219 17.0549C10.5916 17.0577 12.4764 16.4151 13.9995 15.2316C11.9873 13.6705 10.6946 11.2475 10.6946 8.52748Z" fill="#EB001B"/>
<path fill-rule="evenodd" clip-rule="evenodd" d="M28.0001 8.52748C28.0001 13.2371 24.1265 17.0549 19.348 17.0549C17.4083 17.0576 15.5233 16.415 14 15.2316C16.0129 13.6702 17.3053 11.2475 17.3053 8.52748C17.3053 5.8074 16.0129 3.38469 14 1.82324C15.5232 0.639829 17.4082 -0.00276356 19.3478 8.93402e-06C24.1264 8.93402e-06 28 3.81782 28 8.52748" fill="#F79410"/>
</svg>
