<svg width="14" height="20" viewBox="0 0 14 20" fill="none" xmlns="http://www.w3.org/2000/svg">
<path d="M7.31908 14.2171L7.31885 14.2176L7.33127 14.2219C7.38067 14.2388 7.42767 14.2621 7.47114 14.291L7.60945 14.4017C7.68221 14.4761 7.7407 14.5632 7.78199 14.6588C7.84687 14.8134 7.86456 14.9838 7.83284 15.1484C7.80139 15.3117 7.72276 15.4621 7.60674 15.5811C7.51973 15.6574 7.42297 15.7219 7.31901 15.7729C7.16486 15.8345 6.99601 15.8496 6.8333 15.8164C6.66899 15.7828 6.51829 15.7013 6.40017 15.5823C6.28204 15.4633 6.20177 15.312 6.16944 15.1474C6.13714 14.9829 6.15418 14.8126 6.21842 14.6578C6.26197 14.5536 6.32285 14.4575 6.39847 14.3737C6.49782 14.2757 6.61978 14.2037 6.75359 14.164C6.8837 14.1253 7.02109 14.1185 7.15427 14.1438L7.31908 14.2171ZM3 0.15H11C11.7559 0.15 12.4808 0.450267 13.0153 0.984746C13.5497 1.51922 13.85 2.24413 13.85 3V17C13.85 17.7559 13.5497 18.4808 13.0153 19.0153C12.4808 19.5497 11.7559 19.85 11 19.85H3C2.24413 19.85 1.51922 19.5497 0.984746 19.0153C0.450267 18.4808 0.15 17.7559 0.15 17V3C0.15 2.24413 0.450267 1.51922 0.984746 0.984746C1.51922 0.450267 2.24413 0.15 3 0.15ZM11.8132 17.8132C12.0288 17.5975 12.15 17.305 12.15 17V3C12.15 2.695 12.0288 2.40249 11.8132 2.18683C11.5975 1.97116 11.305 1.85 11 1.85H3C2.695 1.85 2.40249 1.97116 2.18683 2.18683C1.97116 2.40249 1.85 2.695 1.85 3V17C1.85 17.305 1.97116 17.5975 2.18683 17.8132C2.40249 18.0288 2.695 18.15 3 18.15H11C11.305 18.15 11.5975 18.0288 11.8132 17.8132Z" fill="#B5B5B5" stroke="white" stroke-width="0.3"/>
</svg>
