<svg width="36" height="36" viewBox="0 0 36 36" fill="none" xmlns="http://www.w3.org/2000/svg">
<circle cx="18" cy="18" r="18" fill="#2FC509"/>
<path d="M13.1136 13.2727V22H11.1364L7.98295 17.4148H7.93182V22H5.5625V13.2727H7.57386L10.6761 17.8409H10.7443V13.2727H13.1136ZM17.4048 22.1193C16.706 22.1193 16.1037 21.9858 15.598 21.7188C15.0952 21.4489 14.7074 21.0625 14.4347 20.5597C14.1648 20.054 14.0298 19.4489 14.0298 18.7443C14.0298 18.0682 14.1662 17.4773 14.4389 16.9716C14.7116 16.4659 15.0966 16.0724 15.5938 15.7912C16.0909 15.5099 16.6776 15.3693 17.3537 15.3693C17.848 15.3693 18.2955 15.446 18.696 15.5994C19.0966 15.7528 19.4389 15.9759 19.723 16.2685C20.0071 16.5582 20.2259 16.9105 20.3793 17.3253C20.5327 17.7401 20.6094 18.2074 20.6094 18.7273V19.2727H14.7628V17.9773H18.4446C18.4418 17.7898 18.3935 17.625 18.2997 17.483C18.2088 17.3381 18.0852 17.2259 17.929 17.1463C17.7756 17.0639 17.6009 17.0227 17.4048 17.0227C17.2145 17.0227 17.0398 17.0639 16.8807 17.1463C16.7216 17.2259 16.5938 17.3366 16.4972 17.4787C16.4034 17.6207 16.3537 17.7869 16.348 17.9773V19.375C16.348 19.5852 16.392 19.7727 16.4801 19.9375C16.5682 20.1023 16.6946 20.2315 16.8594 20.3253C17.0241 20.419 17.223 20.4659 17.456 20.4659C17.6179 20.4659 17.7656 20.4432 17.8991 20.3977C18.0355 20.3523 18.152 20.2869 18.2486 20.2017C18.3452 20.1136 18.4162 20.0085 18.4616 19.8864H20.6094C20.5355 20.3409 20.3608 20.7358 20.0852 21.071C19.8097 21.4034 19.4446 21.6619 18.9901 21.8466C18.5384 22.0284 18.0099 22.1193 17.4048 22.1193ZM22.6463 22L21.0099 15.4545H23.3622L24.1122 19.4432H24.1634L24.9986 15.4545H27.2827L28.152 19.4091H28.2031L28.919 15.4545H31.2713L29.6349 22H27.0952L26.1747 18.4886H26.1065L25.1861 22H22.6463Z" fill="white"/>
</svg>
