<svg width="21" height="21" viewBox="0 0 21 21" fill="none" xmlns="http://www.w3.org/2000/svg">
<path d="M12.7955 4.58341C13.6908 4.7581 14.5137 5.19598 15.1587 5.84102C15.8038 6.48606 16.2416 7.30891 16.4163 8.20425L12.7955 4.58341ZM12.7955 0.916748C14.6557 1.1234 16.3903 1.95641 17.7145 3.27901C19.0388 4.6016 19.874 6.33517 20.083 8.19508L12.7955 0.916748ZM19.1663 15.5101V18.2601C19.1674 18.5154 19.1151 18.7681 19.0128 19.002C18.9105 19.2359 18.7605 19.4459 18.5724 19.6185C18.3843 19.791 18.1622 19.9224 17.9203 20.0042C17.6785 20.086 17.4222 20.1164 17.168 20.0934C14.3473 19.7869 11.6377 18.823 9.25715 17.2792C7.04233 15.8719 5.16455 13.9941 3.75715 11.7792C2.20797 9.38785 1.24388 6.66516 0.942987 3.83175C0.92008 3.57826 0.950206 3.32278 1.03145 3.08157C1.11269 2.84036 1.24326 2.61871 1.41486 2.43073C1.58645 2.24276 1.79531 2.09256 2.02813 1.98973C2.26095 1.88689 2.51263 1.83365 2.76715 1.83341H5.51715C5.96202 1.82904 6.3933 1.98657 6.7306 2.27665C7.06791 2.56674 7.28823 2.96957 7.35049 3.41008C7.46656 4.29014 7.68182 5.15425 7.99215 5.98592C8.11549 6.31401 8.14218 6.67059 8.06907 7.01339C7.99596 7.35619 7.82611 7.67085 7.57965 7.92008L6.41549 9.08425C7.72041 11.3792 9.62057 13.2793 11.9155 14.5842L13.0797 13.4201C13.3289 13.1736 13.6435 13.0038 13.9863 12.9307C14.3291 12.8576 14.6857 12.8843 15.0138 13.0076C15.8455 13.3179 16.7096 13.5332 17.5897 13.6492C18.0349 13.7121 18.4416 13.9364 18.7323 14.2795C19.023 14.6225 19.1775 15.0605 19.1663 15.5101Z" stroke="white" stroke-linecap="round" stroke-linejoin="round"/>
</svg>
