<svg width="50" height="50" viewBox="0 0 50 50" fill="none" xmlns="http://www.w3.org/2000/svg">
<circle cx="25" cy="25" r="25" fill="white"/>
<rect x="18" y="16" width="20" height="13" fill="white"/>
<path fill-rule="evenodd" clip-rule="evenodd" d="M37 15C37.8284 15 38.5 15.6716 38.5 16.5L38.5 28C38.5 28.8284 37.8284 29.5 37 29.5L18.5 29.5C17.6716 29.5 17 28.8284 17 28L17 16.5C17 15.6716 17.6716 15 18.5 15L37 15ZM37.5 16.5C37.5 16.2239 37.2761 16 37 16L18.5 16C18.2239 16 18 16.2239 18 16.5L18 28C18 28.2761 18.2239 28.5 18.5 28.5L37 28.5C37.2761 28.5 37.5 28.2761 37.5 28L37.5 16.5Z" fill="#CB11AB"/>
<rect x="13" y="21" width="20" height="13" fill="white"/>
<path fill-rule="evenodd" clip-rule="evenodd" d="M33.5 21.5C33.5 20.6716 32.8284 20 32 20L13.5 20C12.6716 20 12 20.6716 12 21.5L12 33C12 33.8284 12.6716 34.5 13.5 34.5L32 34.5C32.8284 34.5 33.5 33.8284 33.5 33L33.5 21.5ZM32 21C32.2761 21 32.5 21.2239 32.5 21.5L32.5 30L13 30L13 21.5C13 21.2239 13.2239 21 13.5 21L32 21ZM13 31L13 33C13 33.2761 13.2239 33.5 13.5 33.5L32 33.5C32.2761 33.5 32.5 33.2761 32.5 33L32.5 31L13 31Z" fill="#CB11AB"/>
<path d="M32.5 30L32.5 30.1L32.6 30.1L32.6 30L32.5 30ZM13 30L12.9 30L12.9 30.1L13 30.1L13 30ZM13 31L13 30.9L12.9 30.9L12.9 31L13 31ZM13 33L12.9 33L13 33ZM32.5 33L32.4 33L32.5 33ZM32.5 31L32.6 31L32.6 30.9L32.5 30.9L32.5 31ZM32 20.1C32.7732 20.1 33.4 20.7268 33.4 21.5L33.6 21.5C33.6 20.6163 32.8837 19.9 32 19.9L32 20.1ZM13.5 20.1L32 20.1L32 19.9L13.5 19.9L13.5 20.1ZM12.1 21.5C12.1 20.7268 12.7268 20.1 13.5 20.1L13.5 19.9C12.6163 19.9 11.9 20.6163 11.9 21.5L12.1 21.5ZM12.1 33L12.1 21.5L11.9 21.5L11.9 33L12.1 33ZM13.5 34.4C12.7268 34.4 12.1 33.7732 12.1 33L11.9 33C11.9 33.8837 12.6163 34.6 13.5 34.6L13.5 34.4ZM32 34.4L13.5 34.4L13.5 34.6L32 34.6L32 34.4ZM33.4 33C33.4 33.7732 32.7732 34.4 32 34.4L32 34.6C32.8837 34.6 33.6 33.8837 33.6 33L33.4 33ZM33.4 21.5L33.4 33L33.6 33L33.6 21.5L33.4 21.5ZM32.6 21.5C32.6 21.1686 32.3314 20.9 32 20.9L32 21.1C32.2209 21.1 32.4 21.2791 32.4 21.5L32.6 21.5ZM32.6 30L32.6 21.5L32.4 21.5L32.4 30L32.6 30ZM13 30.1L32.5 30.1L32.5 29.9L13 29.9L13 30.1ZM12.9 21.5L12.9 30L13.1 30L13.1 21.5L12.9 21.5ZM13.5 20.9C13.1686 20.9 12.9 21.1686 12.9 21.5L13.1 21.5C13.1 21.2791 13.2791 21.1 13.5 21.1L13.5 20.9ZM32 20.9L13.5 20.9L13.5 21.1L32 21.1L32 20.9ZM12.9 31L12.9 33L13.1 33L13.1 31L12.9 31ZM12.9 33C12.9 33.3314 13.1686 33.6 13.5 33.6L13.5 33.4C13.2791 33.4 13.1 33.2209 13.1 33L12.9 33ZM13.5 33.6L32 33.6L32 33.4L13.5 33.4L13.5 33.6ZM32 33.6C32.3314 33.6 32.6 33.3314 32.6 33L32.4 33C32.4 33.2209 32.2209 33.4 32 33.4L32 33.6ZM32.6 33L32.6 31L32.4 31L32.4 33L32.6 33ZM32.5 30.9L13 30.9L13 31.1L32.5 31.1L32.5 30.9Z" fill="#CB11AB"/>
</svg>
