<svg width="80" height="70" viewBox="0 0 80 70" fill="none" xmlns="http://www.w3.org/2000/svg">
<path d="M61.043 59.168H11.293C9.36297 59.168 7.79297 57.598 7.79297 55.668V26.335C7.79297 24.405 9.36297 22.835 11.293 22.835H61.043C62.974 22.835 64.543 24.405 64.543 26.335V55.668C64.543 57.598 62.974 59.168 61.043 59.168ZM11.293 23.835C10.6302 23.8358 9.99475 24.0994 9.52608 24.5681C9.05741 25.0367 8.79376 25.6722 8.79297 26.335V55.668C8.79297 57.046 9.91397 58.168 11.293 58.168H61.043C62.422 58.168 63.543 57.046 63.543 55.668V26.335C63.543 24.957 62.422 23.835 61.043 23.835H11.293Z" fill="#CB11AB"/>
<path d="M68.709 52.168H64.126C63.9934 52.168 63.8662 52.1153 63.7724 52.0215C63.6787 51.9277 63.626 51.8006 63.626 51.668C63.626 51.5354 63.6787 51.4082 63.7724 51.3144C63.8662 51.2206 63.9934 51.168 64.126 51.168H68.709C70.088 51.168 71.209 50.046 71.209 48.668V19.335C71.209 17.957 70.088 16.835 68.709 16.835H18.959C18.2962 16.8358 17.6608 17.0994 17.1921 17.5681C16.7234 18.0367 16.4598 18.6722 16.459 19.335V23.168C16.459 23.3006 16.4063 23.4277 16.3125 23.5215C16.2188 23.6153 16.0916 23.668 15.959 23.668C15.8264 23.668 15.6992 23.6153 15.6054 23.5215C15.5117 23.4277 15.459 23.3006 15.459 23.168V19.335C15.459 17.405 17.029 15.835 18.959 15.835H68.709C70.639 15.835 72.209 17.405 72.209 19.335V48.668C72.209 50.598 70.639 52.168 68.709 52.168Z" fill="#CB11AB"/>
<path d="M63.499 42.752H8.70703C8.57442 42.752 8.44725 42.6993 8.35348 42.6055C8.25971 42.5117 8.20703 42.3846 8.20703 42.252C8.20703 42.1193 8.25971 41.9922 8.35348 41.8984C8.44725 41.8046 8.57442 41.752 8.70703 41.752H63.499C63.774 41.752 63.999 41.977 63.999 42.252C63.999 42.527 63.774 42.752 63.499 42.752ZM63.499 51.252H8.70703C8.57442 51.252 8.44725 51.1993 8.35348 51.1055C8.25971 51.0117 8.20703 50.8846 8.20703 50.752C8.20703 50.6193 8.25971 50.4922 8.35348 50.3984C8.44725 50.3046 8.57442 50.252 8.70703 50.252H63.499C63.774 50.252 63.999 50.477 63.999 50.752C63.999 51.027 63.774 51.252 63.499 51.252ZM46.499 38.252C45.1071 38.2504 43.7727 37.6967 42.7885 36.7125C41.8043 35.7283 41.2506 34.3939 41.249 33.002C41.249 30.107 43.604 27.752 46.499 27.752C49.394 27.752 51.749 30.107 51.749 33.002C51.7474 34.3939 51.1938 35.7283 50.2096 36.7125C49.2254 37.6967 47.8909 38.2504 46.499 38.252ZM46.499 28.752C44.155 28.752 42.249 30.659 42.249 33.002C42.249 35.345 44.155 37.252 46.499 37.252C48.843 37.252 50.749 35.345 50.749 33.002C50.749 30.659 48.843 28.752 46.499 28.752Z" fill="#CB11AB"/>
<path d="M53.4993 38.252C52.7853 38.2547 52.0784 38.1106 51.4225 37.8286C50.7666 37.5467 50.1756 37.1329 49.6863 36.613C49.5949 36.5167 49.5455 36.3881 49.549 36.2554C49.5525 36.1227 49.6085 35.9969 49.7048 35.9055C49.8011 35.8141 49.9297 35.7647 50.0624 35.7682C50.195 35.7717 50.3209 35.8277 50.4123 35.924C50.8083 36.3452 51.2867 36.6804 51.8177 36.9089C52.3488 37.1373 52.9212 37.2541 53.4993 37.252C55.8433 37.252 57.7493 35.345 57.7493 33.002C57.7493 30.659 55.8433 28.752 53.4993 28.752C52.9244 28.7494 52.355 28.8648 51.8265 29.091C51.2979 29.3171 50.8214 29.6493 50.4263 30.067C50.3348 30.1631 50.2088 30.219 50.0762 30.2223C49.9435 30.2256 49.8149 30.176 49.7188 30.0845C49.6226 29.993 49.5668 29.867 49.5635 29.7344C49.5602 29.6017 49.6098 29.4731 49.7013 29.377C50.1899 28.8612 50.7789 28.451 51.4321 28.1715C52.0853 27.892 52.7888 27.7493 53.4993 27.752C54.8912 27.7536 56.2256 28.3072 57.2098 29.2914C58.1941 30.2757 58.7477 31.6101 58.7493 33.002C58.7477 34.3939 58.1941 35.7283 57.2098 36.7125C56.2256 37.6968 54.8912 38.2504 53.4993 38.252Z" fill="#CB11AB"/>
</svg>
