<svg width="18" height="18" viewBox="0 0 18 18" fill="none" xmlns="http://www.w3.org/2000/svg">
<path d="M14.0262 12.8469L17.0057 15.8257C17.3313 16.1512 17.3313 16.6792 17.0057 17.0048V17.0048C16.6801 17.3304 16.1522 17.3303 15.8266 17.0047L12.8478 14.0252C11.5201 15.0895 9.86866 15.6684 8.16699 15.666C4.02699 15.666 0.666992 12.306 0.666992 8.16602C0.666992 4.02602 4.02699 0.666016 8.16699 0.666016C12.307 0.666016 15.667 4.02602 15.667 8.16602C15.6694 9.86768 15.0905 11.5191 14.0262 12.8469ZM12.3545 12.2285C13.4121 11.1409 14.0027 9.68304 14.0003 8.16602C14.0003 4.94268 11.3895 2.33268 8.16699 2.33268C4.94366 2.33268 2.33366 4.94268 2.33366 8.16602C2.33366 11.3885 4.94366 13.9993 8.16699 13.9993C9.68402 14.0017 11.1419 13.4111 12.2295 12.3535L12.3545 12.2285Z" fill="#91969E"/>
</svg>
