<svg width="9" height="8" viewBox="0 0 9 8" fill="none" xmlns="http://www.w3.org/2000/svg">
<path d="M8.69602 1.57572L6.27206 3.99992L8.69602 6.42402C9.05657 6.78471 9.05657 7.36897 8.69602 7.72966C8.51587 7.90981 8.27968 7.99996 8.04361 7.99996C7.80715 7.99996 7.57093 7.90995 7.39092 7.72966L4.96644 5.30529L2.54214 7.72964C2.36202 7.90979 2.12581 7.99993 1.88953 7.99993C1.65332 7.99993 1.41727 7.90993 1.23698 7.72964C0.876431 7.36911 0.876431 6.78482 1.23698 6.424L3.66087 3.9999L1.23684 1.57572C0.876293 1.21516 0.876293 0.630758 1.23684 0.270207C1.59733 -0.090069 2.18139 -0.090069 2.54201 0.270207L4.96642 2.69442L7.39065 0.270207C7.75134 -0.090069 8.33547 -0.090069 8.69588 0.270207C9.05657 0.630758 9.05657 1.21516 8.69602 1.57572Z" fill="#91969E"/>
</svg>
