<svg width="14" height="20" viewBox="0 0 14 20" fill="none" xmlns="http://www.w3.org/2000/svg">
<path d="M11.8522 6.63558L11.8578 6.66776L11.8763 6.69471C12.5428 7.66809 12.8995 8.82024 12.8995 9.99996C12.8995 11.1797 12.5428 12.3318 11.8763 13.3052L11.8578 13.3322L11.8522 13.3643L10.8522 19.1343L10.8519 19.136C10.8194 19.3371 10.7156 19.5198 10.5596 19.6509C10.4036 19.7819 10.2057 19.8526 10.0019 19.85H10L4.00002 19.8499L3.99809 19.85C3.79435 19.8526 3.59645 19.7819 3.44043 19.6509C3.28442 19.5198 3.18067 19.3371 3.14809 19.136L3.14781 19.1343L2.14781 13.3643L2.14224 13.3322L2.12378 13.3052C1.45724 12.3318 1.10056 11.1797 1.10056 9.99996C1.10056 8.82024 1.45724 7.66809 2.12378 6.69471L2.14224 6.66776L2.14781 6.63558L3.14781 0.865575L3.14782 0.865577L3.14809 0.863948C3.18067 0.662817 3.28442 0.480082 3.44043 0.349029C3.59645 0.217976 3.79435 0.147326 3.99809 0.149948L3.99809 0.149961H4.00002L10 0.149973L10.0019 0.149948C10.2057 0.147326 10.4036 0.217976 10.5596 0.349029C10.7156 0.480082 10.8194 0.662817 10.8519 0.863948L10.8519 0.86395L10.8522 0.865575L11.8522 6.63558ZM4.85002 1.84996H4.72335L4.70214 1.97484L4.26213 4.56484L4.21365 4.85022L4.47477 4.72527C5.26314 4.34799 6.12602 4.15216 7.00002 4.15216C7.87401 4.15216 8.7369 4.34799 9.52527 4.72527L9.78638 4.85022L9.7379 4.56484L9.2979 1.97484L9.27668 1.84996H9.15002H4.85002ZM9.15002 18.15H9.27668L9.2979 18.0251L9.7379 15.4351L9.78638 15.1497L9.52527 15.2747C8.7369 15.6519 7.87401 15.8478 7.00002 15.8478C6.12602 15.8478 5.26314 15.6519 4.47477 15.2747L4.21365 15.1497L4.26213 15.4351L4.70214 18.0251L4.72335 18.15H4.85002H9.15002ZM4.6944 13.4506C5.37686 13.9066 6.17922 14.15 7.00002 14.15C8.10066 14.15 9.15623 13.7127 9.93451 12.9345C10.7128 12.1562 11.15 11.1006 11.15 9.99996C11.15 9.17917 10.9066 8.37681 10.4506 7.69434C9.99461 7.01188 9.34647 6.47996 8.58815 6.16586C7.82984 5.85176 6.99541 5.76957 6.19039 5.9297C5.38537 6.08983 4.64591 6.48508 4.06552 7.06547C3.48514 7.64586 3.08989 8.38531 2.92976 9.19034C2.76963 9.99536 2.85181 10.8298 3.16592 11.5881C3.48002 12.3464 4.01194 12.9946 4.6944 13.4506Z" fill="#B5B5B5" stroke="white" stroke-width="0.3"/>
</svg>
