<svg width="24" height="24" viewBox="0 0 24 24" fill="none" xmlns="http://www.w3.org/2000/svg">
<g clip-path="url(#clip0_3_1371)">
<path d="M18.031 16.617L21.6067 20.1919C21.9973 20.5824 21.9971 21.2159 21.6065 21.6065C21.2159 21.9971 20.5824 21.9973 20.1919 21.6067L16.617 18.031C15.0237 19.3082 13.042 20.0029 11 20C6.032 20 2 15.968 2 11C2 6.032 6.032 2 11 2C15.968 2 20 6.032 20 11C20.0029 13.042 19.3082 15.0237 18.031 16.617ZM16.025 15.875C17.2941 14.5699 18.0029 12.8204 18 11C18 7.132 14.867 4 11 4C7.132 4 4 7.132 4 11C4 14.867 7.132 18 11 18C12.8204 18.0029 14.5699 17.2941 15.875 16.025L16.025 15.875Z" fill="white"/>
</g>
<defs>
<clipPath id="clip0_3_1371">
<rect width="24" height="24" fill="white"/>
</clipPath>
</defs>
</svg>
