<svg width="40" height="50" viewBox="0 0 40 50" fill="none" xmlns="http://www.w3.org/2000/svg">
<path d="M20.5787 48.8691C23.7296 46.353 38.6666 33.6697 38.6666 19.346C38.6666 9.03648 30.3091 0.678955 19.9996 0.678955C9.69004 0.678955 1.33252 9.03648 1.33252 19.346C1.33252 33.6697 16.2695 46.353 19.4204 48.8691C19.7669 49.1458 20.2322 49.1458 20.5787 48.8691Z" fill="#F10000" stroke="#F10000" stroke-linecap="round" stroke-linejoin="round"/>
<path d="M19.9999 25.8956C24.2225 25.8956 27.6456 22.4725 27.6456 18.2499C27.6456 14.0273 24.2225 10.6042 19.9999 10.6042C15.7773 10.6042 12.3542 14.0273 12.3542 18.2499C12.3542 22.4725 15.7773 25.8956 19.9999 25.8956Z" fill="white" stroke="white" stroke-width="1.5" stroke-linecap="round" stroke-linejoin="round"/>
</svg>
