<svg width="46" height="30" viewBox="0 0 46 30" fill="none" xmlns="http://www.w3.org/2000/svg">
<g clip-path="url(#clip0_1294_15437)">
<path d="M18.425 8.23523L16.0873 21.9535H19.8261L22.1657 8.23523H18.425Z" fill="#3665C8"/>
<path d="M12.9374 8.25099L9.27563 17.6065L8.88522 16.1939C8.16305 14.4918 6.1129 12.0474 3.70599 10.5069L7.05432 21.9472L11.0104 21.9405L16.8983 8.24811L12.9374 8.25099Z" fill="#3665C8"/>
<path d="M7.47363 9.23273C7.2563 8.39709 6.62645 8.14803 5.84466 8.11823H0.0480805L0 8.39132C4.51091 9.48563 7.49574 12.1224 8.7343 15.2928L7.47363 9.23273Z" fill="#3665C8"/>
<path d="M29.7319 10.8656C30.9551 10.8464 31.8417 11.1137 32.5302 11.3906L32.8677 11.5493L33.3735 8.576C32.6331 8.2981 31.4724 8 30.0242 8C26.3297 8 23.7257 9.86071 23.7055 12.5273C23.6815 14.4976 25.5604 15.5977 26.9798 16.2545C28.4366 16.9276 28.9251 17.3555 28.9184 17.9565C28.9068 18.8748 27.7568 19.296 26.6826 19.296C25.1854 19.296 24.3902 19.0893 23.1622 18.5777L22.6804 18.3585L22.1544 21.4289C23.0295 21.8126 24.644 22.1424 26.3201 22.1597C30.2502 22.1597 32.8042 20.3211 32.8312 17.4719C32.8475 15.9131 31.8503 14.7236 29.6896 13.7475C28.3818 13.111 27.5817 12.6878 27.5894 12.0455C27.5894 11.4753 28.2683 10.8656 29.7319 10.8656Z" fill="#3665C8"/>
<path d="M42.9753 8.25073H40.0866C39.1895 8.25073 38.5221 8.49498 38.1278 9.38928L32.5765 21.9614H36.5027C36.5027 21.9614 37.1432 20.2708 37.2884 19.9006C37.7182 19.9006 41.5329 19.9064 42.0762 19.9064C42.1878 20.3853 42.532 21.9614 42.532 21.9614H46.0005L42.9753 8.25073ZM38.3644 17.0927C38.6721 16.3052 39.8539 13.2588 39.8539 13.2588C39.8337 13.2963 40.1588 12.4655 40.352 11.9491L40.604 13.1319C40.604 13.1319 41.3204 16.4071 41.4704 17.0927H38.3644Z" fill="#3665C8"/>
</g>
<defs>
<clipPath id="clip0_1294_15437">
<rect width="46" height="29.9" fill="white"/>
</clipPath>
</defs>
</svg>
