<svg width="22" height="17" viewBox="0 0 22 17" fill="none" xmlns="http://www.w3.org/2000/svg">
<path d="M15 8C15 10.2091 13.2091 12 11 12C8.79086 12 7 10.2091 7 8C7 5.79086 8.79086 4 11 4C13.2091 4 15 5.79086 15 8ZM9.17457 8C9.17457 9.00816 9.99184 9.82543 11 9.82543C12.0082 9.82543 12.8254 9.00816 12.8254 8C12.8254 6.99184 12.0082 6.17457 11 6.17457C9.99184 6.17457 9.17457 6.99184 9.17457 8Z" fill="#384255"/>
<path d="M20.1756 6.78329C11.8982 -3.41701 4.73252 2.01097 1.59197 6.85667C1.20364 7.45585 1.22681 8.23215 1.62081 8.8276C8.9085 19.8414 16.6177 14.1336 20.2639 8.96929C20.7326 8.30545 20.6876 7.4143 20.1756 6.78329Z" stroke="#384255" stroke-width="2"/>
</svg>
