<svg width="24" height="24" viewBox="0 0 24 24" fill="none" xmlns="http://www.w3.org/2000/svg">
<path fill-rule="evenodd" clip-rule="evenodd" d="M13.2166 4.54935C13.3898 4.63261 13.5 4.8078 13.5 5V19C13.5 19.1922 13.3898 19.3674 13.2166 19.4507C13.0434 19.5339 12.8377 19.5105 12.6877 19.3904L7.82461 15.5H4C3.72386 15.5 3.5 15.2761 3.5 15V9C3.5 8.72386 3.72386 8.5 4 8.5H7.82461L12.6877 4.60957C12.8377 4.4895 13.0434 4.46609 13.2166 4.54935ZM12.5 6.04032L8.31235 9.39044C8.22369 9.46136 8.11354 9.5 8 9.5H4.5V14.5H8C8.11354 14.5 8.22369 14.5386 8.31235 14.6096L12.5 17.9597V6.04032Z" fill="#414141" stroke="black" stroke-linecap="round" stroke-linejoin="round"/>
<path fill-rule="evenodd" clip-rule="evenodd" d="M17.1865 8.10642C17.3818 7.91118 17.6984 7.91123 17.8936 8.10652C20.0407 10.2543 20.0407 13.7358 17.8936 15.8835C17.6984 16.0788 17.3818 16.0789 17.1865 15.8836C16.9912 15.6884 16.9912 15.3718 17.1864 15.1765C18.9432 13.4193 18.9432 10.5708 17.1864 8.81352C16.9912 8.61823 16.9912 8.30165 17.1865 8.10642Z" fill="#414141" stroke="black" stroke-linecap="round" stroke-linejoin="round"/>
</svg>
