<svg width="27" height="21" viewBox="0 0 27 21" fill="none" xmlns="http://www.w3.org/2000/svg">
<path d="M21.2668 8.06525H20.5336V3.66602C20.5336 3.47157 20.4563 3.28507 20.3188 3.14757C20.1813 3.01007 19.9948 2.93282 19.8004 2.93282H2.20347C2.02986 2.93565 1.86087 2.87678 1.72661 2.76668C1.59234 2.65658 1.5015 2.5024 1.47027 2.33159V2.06764C1.5015 1.89683 1.59234 1.74265 1.72661 1.63255C1.86087 1.52245 2.02986 1.46358 2.20347 1.46641H19.4924C19.6869 1.46641 19.8734 1.38916 20.0109 1.25166C20.1484 1.11416 20.2256 0.927663 20.2256 0.733205C20.2256 0.538747 20.1484 0.352253 20.0109 0.214751C19.8734 0.0772483 19.6869 0 19.4924 0H2.20347C1.6201 0 1.06062 0.231744 0.648112 0.644252C0.235604 1.05676 0.00385976 1.61624 0.00385976 2.19961C-0.00128659 2.28752 -0.00128659 2.37566 0.00385976 2.46357V17.5456C0.00673779 17.9404 0.087347 18.3307 0.241085 18.6943C0.394822 19.058 0.618677 19.3877 0.899868 19.6648C1.18106 19.9419 1.51408 20.1609 1.87991 20.3093C2.24574 20.4577 2.63722 20.5326 3.032 20.5297H19.8004C19.9948 20.5297 20.1813 20.4525 20.3188 20.315C20.4563 20.1775 20.5336 19.991 20.5336 19.7965V15.3973H21.2668C21.4613 15.3973 21.6477 15.3201 21.7852 15.1826C21.9228 15.045 22 14.8586 22 14.6641V8.79846C22 8.604 21.9228 8.41751 21.7852 8.28C21.6477 8.1425 21.4613 8.06525 21.2668 8.06525ZM19.0672 19.0633H3.032C2.62419 19.0673 2.23132 18.91 1.93885 18.6258C1.64639 18.3416 1.47798 17.9533 1.47027 17.5456V4.31124C1.70827 4.38022 1.95592 4.40993 2.20347 4.39923H19.0672V8.06525H13.9347C12.9625 8.06525 12.03 8.45149 11.3425 9.13901C10.655 9.82652 10.2687 10.759 10.2687 11.7313C10.2687 12.7036 10.655 13.636 11.3425 14.3235C12.03 15.0111 12.9625 15.3973 13.9347 15.3973H19.0672V19.0633ZM20.5336 13.9309H13.9347C13.3514 13.9309 12.7919 13.6991 12.3794 13.2866C11.9669 12.8741 11.7351 12.3147 11.7351 11.7313C11.7351 11.1479 11.9669 10.5884 12.3794 10.1759C12.7919 9.76341 13.3514 9.53166 13.9347 9.53166H20.5336V13.9309Z" fill="#CB11AB"/>
<path d="M23.0998 2.19961C23.7072 2.19961 24.1996 1.70721 24.1996 1.09981C24.1996 0.4924 23.7072 0 23.0998 0C22.4924 0 22 0.4924 22 1.09981C22 1.70721 22.4924 2.19961 23.0998 2.19961Z" fill="#CB11AB"/>
</svg>
