<svg width="70" height="70" viewBox="0 0 70 70" fill="none" xmlns="http://www.w3.org/2000/svg">
<path d="M16.178 60.951C15.496 60.9524 14.8204 60.819 14.1901 60.5585C13.5597 60.298 12.9871 59.9155 12.505 59.433C11.5324 58.457 10.9863 57.1353 10.9863 55.7575C10.9863 54.3796 11.5324 53.058 12.505 52.082L27.418 37.165C27.5123 37.0739 27.6386 37.0235 27.7697 37.0247C27.9008 37.0258 28.0262 37.0784 28.1189 37.1711C28.2116 37.2638 28.2642 37.3892 28.2654 37.5203C28.2665 37.6514 28.2161 37.7777 28.125 37.872L13.212 52.791C12.4267 53.5791 11.9858 54.6464 11.9858 55.759C11.9858 56.8716 12.4267 57.9388 13.212 58.727C14 59.5119 15.0668 59.9526 16.179 59.9526C17.2912 59.9526 18.3581 59.5119 19.146 58.727L34.043 43.774C34.1373 43.6829 34.2636 43.6325 34.3947 43.6337C34.5258 43.6348 34.6512 43.6874 34.7439 43.7801C34.8366 43.8728 34.8892 43.9982 34.8904 44.1293C34.8915 44.2604 34.8411 44.3867 34.75 44.481L19.853 59.434C19.3702 59.916 18.7971 60.298 18.1666 60.5583C17.536 60.8186 16.8602 60.9521 16.178 60.951ZM16.697 56.617C16.366 56.617 16.056 56.49 15.822 56.256C15.5905 56.0237 15.4603 55.7092 15.4602 55.3812C15.46 55.0532 15.5897 54.7385 15.821 54.506C16.0534 54.2746 16.368 54.1446 16.696 54.1446C17.024 54.1446 17.3386 54.2746 17.571 54.506C17.804 54.74 17.933 55.051 17.933 55.381C17.9334 55.5434 17.9017 55.7043 17.8398 55.8545C17.7778 56.0046 17.6867 56.141 17.5719 56.2559C17.457 56.3707 17.3206 56.4617 17.1705 56.5237C17.0204 56.5857 16.8595 56.6174 16.697 56.617ZM16.696 55.145C16.6494 55.1455 16.604 55.1596 16.5654 55.1857C16.5268 55.2118 16.4967 55.2486 16.4788 55.2916C16.4609 55.3346 16.4561 55.3819 16.4648 55.4277C16.4736 55.4734 16.4955 55.5156 16.528 55.549C16.646 55.668 16.742 55.67 16.862 55.549H16.863C16.9074 55.5042 16.9321 55.4438 16.9319 55.3808C16.9318 55.3178 16.9066 55.2575 16.862 55.213C16.8402 55.1913 16.8143 55.1741 16.7858 55.1625C16.7573 55.1508 16.7268 55.1449 16.696 55.145ZM39.828 34.781C39.7292 34.781 39.6326 34.7517 39.5504 34.6968C39.4683 34.6419 39.4042 34.5639 39.3663 34.4726C39.3284 34.3814 39.3185 34.2809 39.3376 34.184C39.3568 34.0871 39.4043 33.998 39.474 33.928L49.773 23.672C49.8666 23.5786 49.9934 23.5262 50.1255 23.5262C50.2577 23.5262 50.3845 23.5786 50.478 23.672L51.332 24.524L58.613 15.51L56.426 13.323L47.41 20.605L48.264 21.458C48.3106 21.5044 48.3475 21.5596 48.3727 21.6204C48.3979 21.6811 48.4109 21.7462 48.4109 21.812C48.4109 21.8778 48.3979 21.9429 48.3727 22.0036C48.3475 22.0644 48.3106 22.1195 48.264 22.166L38.004 32.392C37.9101 32.4857 37.7829 32.5384 37.6502 32.5383C37.5175 32.5382 37.3903 32.4854 37.2965 32.3915C37.2028 32.2976 37.1502 32.1703 37.1503 32.0376C37.1503 31.905 37.2031 31.7777 37.297 31.684L47.205 21.812L46.312 20.92C46.2621 20.8705 46.2232 20.811 46.1979 20.7455C46.1727 20.6799 46.1615 20.6097 46.1653 20.5395C46.1691 20.4693 46.1877 20.4008 46.2199 20.3383C46.252 20.2758 46.2971 20.2208 46.352 20.177L56.149 12.263C56.2452 12.1854 56.3666 12.1462 56.4899 12.1528C56.6133 12.1595 56.7298 12.2115 56.817 12.299L59.639 15.121C59.7265 15.2082 59.7786 15.3249 59.785 15.4483C59.7915 15.5717 59.7519 15.6931 59.674 15.789L51.76 25.585C51.7158 25.6392 51.6607 25.6835 51.5983 25.7151C51.5359 25.7467 51.4675 25.765 51.3977 25.7687C51.3278 25.7723 51.2579 25.7614 51.1926 25.7364C51.1272 25.7115 51.0677 25.6732 51.018 25.624L50.126 24.732L40.182 34.634C40.1356 34.6806 40.0804 34.7175 40.0197 34.7428C39.9589 34.768 39.8938 34.781 39.828 34.781Z" fill="#CB11AB"/>
<path d="M17.43 9.51599L31.309 13.786L32.077 27.704L56.92 52.548C57.791 53.4197 58.2803 54.6017 58.2803 55.834C58.2803 57.0663 57.791 58.2482 56.92 59.12C56.4894 59.5519 55.9777 59.8944 55.4143 60.1278C54.8508 60.3612 54.2468 60.4809 53.637 60.48C53.0262 60.4809 52.4213 60.3612 51.8569 60.1278C51.2925 59.8944 50.7797 59.5519 50.348 59.12L25.297 34.07L11.8 33.405L7.31497 19.631L7.62497 19.32L14.928 26.622L19.266 22.287L20.085 21.465L24.422 17.129L17.118 9.82599L17.43 9.51599ZM17.43 8.51599C17.2989 8.51591 17.1691 8.54166 17.0479 8.59176C16.9268 8.64186 16.8167 8.71534 16.724 8.80799L16.412 9.11899C16.3187 9.21166 16.2446 9.32186 16.1941 9.44324C16.1435 9.56462 16.1174 9.69479 16.1173 9.82628C16.1173 9.95777 16.1431 10.088 16.1935 10.2094C16.2439 10.3309 16.3178 10.4412 16.411 10.534L23.007 17.13L19.378 20.759L18.558 21.582L14.928 25.209L8.33197 18.614C8.23928 18.5209 8.12911 18.4469 8.00778 18.3965C7.88646 18.346 7.75636 18.32 7.62497 18.32H7.62397C7.49241 18.32 7.36214 18.3459 7.24064 18.3964C7.11914 18.4468 7.00881 18.5208 6.91597 18.614L6.60597 18.925C6.4761 19.0555 6.38479 19.2193 6.34209 19.3984C6.29939 19.5775 6.30696 19.7649 6.36397 19.94L10.848 33.712C10.976 34.107 11.335 34.382 11.749 34.401L24.86 35.049L49.637 59.826C50.1606 60.3522 50.7834 60.7693 51.4693 61.0532C52.1552 61.3371 52.8906 61.4822 53.633 61.48C55.143 61.48 56.559 60.892 57.625 59.826C58.6815 58.7657 59.2748 57.3298 59.2748 55.833C59.2748 54.3361 58.6815 52.9003 57.625 51.84L33.054 27.268L32.307 13.731C32.2957 13.5269 32.222 13.3311 32.0959 13.1702C31.9699 13.0092 31.7974 12.8908 31.602 12.831L17.723 8.56099C17.6281 8.53127 17.5293 8.51609 17.43 8.51599Z" fill="#CB11AB"/>
<path d="M52.998 56.617C52.668 56.617 52.357 56.49 52.123 56.256C51.8923 56.0232 51.7628 55.7088 51.7628 55.381C51.7628 55.0533 51.8923 54.7388 52.123 54.506C52.592 54.039 53.406 54.039 53.873 54.506C54.0457 54.6791 54.1634 54.8994 54.2109 55.1393C54.2585 55.3792 54.2339 55.6278 54.1403 55.8537C54.0467 56.0796 53.8882 56.2726 53.6849 56.4085C53.4815 56.5444 53.2425 56.6169 52.998 56.617ZM52.998 55.145C52.9348 55.146 52.8743 55.171 52.829 55.215C52.7852 55.2597 52.7609 55.3197 52.761 55.3822C52.7612 55.4447 52.786 55.5046 52.83 55.549C52.948 55.668 53.044 55.67 53.164 55.549C53.227 55.488 53.234 55.418 53.234 55.381C53.234 55.344 53.224 55.274 53.165 55.213C53.1204 55.1692 53.0604 55.1448 52.998 55.145Z" fill="#CB11AB"/>
</svg>
