<svg width="29" height="28" viewBox="0 0 29 28" fill="none" xmlns="http://www.w3.org/2000/svg">
<g clip-path="url(#clip0_3_26980)">
<path d="M3.2664 25.6668L4.84373 19.8708C3.8044 18.0892 3.25835 16.0628 3.26173 14.0002C3.26173 7.55666 8.4849 2.3335 14.9284 2.3335C21.3719 2.3335 26.5951 7.55666 26.5951 14.0002C26.5951 20.4437 21.3719 25.6668 14.9284 25.6668C12.8666 25.6702 10.8412 25.1245 9.06007 24.086L3.2664 25.6668ZM10.7179 8.52616C10.5672 8.53552 10.42 8.5752 10.2851 8.64283C10.1585 8.7145 10.043 8.80409 9.94207 8.90883C9.80207 9.04066 9.72273 9.155 9.63757 9.26583C9.20638 9.82699 8.97445 10.5158 8.9784 11.2235C8.98073 11.7952 9.13007 12.3517 9.3634 12.872C9.84057 13.9243 10.6257 15.0385 11.6629 16.071C11.9126 16.3195 12.1564 16.5692 12.4189 16.8013C13.7062 17.9347 15.2402 18.752 16.8989 19.1883L17.5627 19.2898C17.7786 19.3015 17.9944 19.2852 18.2114 19.2747C18.5512 19.2571 18.8829 19.1651 19.1832 19.0052C19.3769 18.9025 19.4679 18.8512 19.6301 18.7485C19.6301 18.7485 19.6802 18.7158 19.7759 18.6435C19.9334 18.5268 20.0302 18.444 20.1609 18.3075C20.2577 18.2072 20.3417 18.0893 20.4059 17.9552C20.4969 17.765 20.5879 17.4022 20.6252 17.1C20.6532 16.869 20.6451 16.743 20.6416 16.6648C20.6369 16.54 20.5331 16.4105 20.4199 16.3557L19.7409 16.0512C19.7409 16.0512 18.7259 15.609 18.1064 15.3267C18.0411 15.2982 17.9711 15.282 17.8999 15.2788C17.8201 15.2706 17.7394 15.2796 17.6634 15.3052C17.5873 15.3307 17.5176 15.3723 17.4589 15.427V15.4247C17.4531 15.4247 17.3749 15.4912 16.5314 16.5132C16.483 16.5782 16.4163 16.6274 16.3398 16.6544C16.2634 16.6814 16.1806 16.685 16.1021 16.6648C16.026 16.6445 15.9516 16.6188 15.8792 16.5878C15.7346 16.5272 15.6844 16.5038 15.5852 16.4607L15.5794 16.4583C14.912 16.1669 14.294 15.7733 13.7477 15.2917C13.6007 15.1633 13.4642 15.0233 13.3242 14.888C12.8652 14.4484 12.4652 13.9512 12.1342 13.4087L12.0654 13.2978C12.016 13.2234 11.976 13.143 11.9464 13.0587C11.9021 12.8872 12.0176 12.7495 12.0176 12.7495C12.0176 12.7495 12.3011 12.4392 12.4329 12.2712C12.5427 12.1315 12.6451 11.9863 12.7397 11.836C12.8774 11.6143 12.9206 11.3868 12.8482 11.2107C12.5216 10.4127 12.1832 9.61816 11.8356 8.8295C11.7667 8.67316 11.5626 8.56116 11.3771 8.539C11.3141 8.532 11.2511 8.525 11.1881 8.52033C11.0314 8.51255 10.8744 8.5141 10.7179 8.525V8.52616Z" fill="white"/>
</g>
<defs>
<clipPath id="clip0_3_26980">
<rect width="28" height="28" fill="white" transform="translate(0.928711)"/>
</clipPath>
</defs>
</svg>
