<svg width="80" height="70" viewBox="0 0 80 70" fill="none" xmlns="http://www.w3.org/2000/svg">
<path d="M13.8468 41.6409C13.8018 41.6409 13.7571 41.6348 13.7138 41.6229L3.74878 38.8709C3.68543 38.8536 3.62611 38.8241 3.57421 38.7839C3.52231 38.7436 3.47886 38.6936 3.44635 38.6365C3.41383 38.5795 3.39289 38.5166 3.38473 38.4515C3.37657 38.3863 3.38134 38.3202 3.39878 38.2569L9.44978 16.3319C9.48551 16.2044 9.57021 16.0961 9.6854 16.0307C9.8006 15.9654 9.93696 15.9482 10.0648 15.9829L20.0318 18.7339C20.1597 18.7692 20.2683 18.8537 20.3339 18.969C20.3995 19.0843 20.4167 19.2209 20.3818 19.3489L14.3288 41.2729C14.2997 41.3785 14.2368 41.4716 14.1498 41.5381C14.0627 41.6046 13.9563 41.6407 13.8468 41.6409ZM4.49678 38.0409L13.4978 40.5249L19.2838 19.5649L10.2808 17.0799L4.49678 38.0409ZM37.0438 56.4909C36.4298 56.4909 35.8358 56.2709 35.3918 55.8279L28.6518 49.0859C28.6098 49.0439 28.5756 48.9948 28.5508 48.9409C25.1758 45.7129 20.7118 41.3359 18.2978 38.5189C18.2448 38.4564 18.2078 38.382 18.1898 38.3021C18.1719 38.2221 18.1736 38.139 18.1948 38.0599C18.2198 37.9679 20.7228 28.8849 21.7438 24.7189C21.7665 24.6266 21.815 24.5426 21.8838 24.4769C21.9525 24.4112 22.0385 24.3664 22.1318 24.3479C24.2318 23.9279 30.4288 23.4149 34.6688 23.4149C34.8014 23.4149 34.9286 23.4676 35.0223 23.5613C35.1161 23.6551 35.1688 23.7823 35.1688 23.9149C35.1688 24.0475 35.1161 24.1747 35.0223 24.2684C34.9286 24.3622 34.8014 24.4149 34.6688 24.4149C30.7478 24.4149 24.9188 24.8789 22.6378 25.2709C21.6738 29.1559 19.6358 36.5919 19.2308 38.0669C21.6898 40.8989 26.0878 45.2039 29.3838 48.3539C29.4323 48.3995 29.4708 48.4546 29.4968 48.5159L36.0988 55.1199C36.6648 55.6839 37.6748 55.5989 38.3508 54.9229L38.5308 54.7429C39.2048 54.0689 39.2928 53.0589 38.7258 52.4929L33.6628 47.2759C33.6083 47.221 33.5672 47.1543 33.5428 47.0809L33.3988 46.9309C33.3533 46.8835 33.3177 46.8276 33.2938 46.7664C33.27 46.7052 33.2584 46.6399 33.2598 46.5743C33.2612 46.5086 33.2755 46.4439 33.302 46.3838C33.3284 46.3237 33.3664 46.2693 33.4138 46.2239L34.4098 45.2709C34.509 45.1852 34.6347 45.1361 34.7658 45.1319C34.8985 45.1351 35.0246 45.1904 35.1168 45.2859L36.1008 46.3149L41.9008 52.0869C42.1628 52.3499 42.5398 52.5089 42.9318 52.4869C43.3395 52.4763 43.727 52.307 44.0118 52.0149L44.1748 51.8509C44.4728 51.5539 44.6388 51.1669 44.6448 50.7609C44.6494 50.5711 44.6156 50.3823 44.5455 50.2058C44.4754 50.0293 44.3704 49.8688 44.2368 49.7339L38.8478 44.3429C38.7998 44.2959 38.7624 44.2393 38.7378 44.1769L37.1688 42.6159C37.1216 42.5694 37.0842 42.514 37.0587 42.4528C37.0333 42.3916 37.0203 42.326 37.0206 42.2598C37.0209 42.1935 37.0344 42.128 37.0604 42.0671C37.0863 42.0061 37.1242 41.951 37.1718 41.9049L38.1468 40.9549C38.2408 40.8636 38.3668 40.8128 38.4979 40.8134C38.6289 40.8139 38.7545 40.8658 38.8478 40.9579L46.9518 48.9789C47.1858 49.2139 47.5128 49.3229 47.9788 49.3229C48.4558 49.3229 48.7828 49.2179 49.0078 48.9919L49.2368 48.8209C49.4548 48.5929 49.5978 48.2559 49.5978 47.8699C49.5978 47.4849 49.4518 47.1359 49.1718 46.8579L42.3308 40.0629C42.2898 40.0204 42.2558 39.9718 42.2298 39.9189L41.6558 39.3459C41.5626 39.2516 41.5104 39.1243 41.5106 38.9917C41.5108 38.8591 41.5633 38.732 41.6568 38.6379L42.6318 37.6649C42.7259 37.5721 42.8528 37.5201 42.985 37.5203C43.1172 37.5205 43.2439 37.5728 43.3378 37.6659L51.2898 45.6009C51.5916 45.8993 51.9989 46.0667 52.4233 46.0667C52.8477 46.0667 53.255 45.8993 53.5568 45.6009L53.7248 45.4329C53.8734 45.2882 53.9916 45.1153 54.0724 44.9243C54.1532 44.7333 54.195 44.5281 54.1954 44.3207C54.1958 44.1133 54.1547 43.908 54.0746 43.7167C53.9944 43.5254 53.8769 43.3521 53.7288 43.2069L48.2528 37.7729C48.1597 37.6795 48.107 37.5533 48.1061 37.4214C48.1052 37.2896 48.156 37.1626 48.2478 37.0679C48.3414 36.9721 48.4686 36.9166 48.6024 36.9131C48.7363 36.9095 48.8662 36.9582 48.9648 37.0489C48.9973 37.0785 49.0246 37.1133 49.0458 37.1519L54.4338 42.4979C54.6748 42.7363 54.8661 43.0202 54.9965 43.3331C55.1269 43.646 55.1938 43.9817 55.1935 44.3207C55.1931 44.6597 55.1254 44.9953 54.9943 45.3079C54.8632 45.6205 54.6713 45.904 54.4298 46.1419L54.2638 46.3099C53.7741 46.794 53.1133 47.0657 52.4247 47.0661C51.7361 47.0664 51.075 46.7955 50.5848 46.3119L42.9818 38.7259L42.7158 38.9929L43.0558 39.3319C43.0958 39.3726 43.1289 39.4195 43.1538 39.4709L49.8788 46.1509C50.3418 46.6129 50.5978 47.2229 50.5978 47.8729C50.5981 48.1915 50.5347 48.507 50.4114 48.8008C50.2881 49.0947 50.1074 49.3609 49.8798 49.5839L49.6508 49.7559C49.2958 50.1209 48.7268 50.3239 47.9808 50.3239C47.2508 50.3239 46.6678 50.1099 46.2468 49.6899L38.4928 42.0159L38.2338 42.2679L39.5828 43.6099C39.6318 43.6599 39.6688 43.7149 39.6938 43.7779L44.9438 49.0309C45.4068 49.4939 45.6548 50.1149 45.6448 50.7779C45.6355 51.4484 45.3624 52.0882 44.8848 52.5589L44.7228 52.7229C44.2522 53.2003 43.614 53.4754 42.9438 53.4899C42.6208 53.4959 42.2999 53.4379 41.9995 53.3191C41.6991 53.2003 41.4253 53.0232 41.1938 52.7979L34.7408 46.3399L34.4638 46.6059C34.4898 46.6449 34.5108 46.6859 34.5258 46.7289L36.4148 48.6329L39.4408 51.7949C39.9048 52.2589 40.1388 52.9059 40.0918 53.6109C40.0394 54.3074 39.7359 54.9613 39.2378 55.4509L39.0578 55.6309C38.4868 56.2009 37.7518 56.4909 37.0438 56.4909Z" fill="#CB11AB"/>
<path d="M55.3062 43.9521C54.7202 43.9521 54.2632 43.7921 53.9472 43.4741L41.9932 31.5231C41.2962 30.8261 40.5692 30.4721 39.8342 30.4721C39.0632 30.4721 38.4122 30.8371 37.8762 31.1951C37.7592 31.2731 37.4522 31.5791 37.1282 31.9021C35.7622 33.2651 33.2182 35.8031 30.8182 35.8031C30.0417 35.8068 29.2913 35.5225 28.7122 35.0051C28.0292 34.4131 27.7232 33.5671 27.8232 32.5581C28.1842 28.9461 33.6402 23.6801 36.3742 22.1301C37.0022 21.7741 37.7792 21.5931 38.6852 21.5931C41.5952 21.5931 45.3902 23.4641 47.6592 24.5811C48.4012 24.9471 49.0432 25.2631 49.3542 25.3631C50.5832 25.7591 52.4932 25.3021 55.1252 23.9711C55.1892 23.939 55.2593 23.9209 55.3309 23.9179C55.4024 23.915 55.4738 23.9273 55.5402 23.9541C55.6064 23.9815 55.666 24.0226 55.7149 24.0749C55.7639 24.1272 55.8012 24.1893 55.8242 24.2571C56.0002 24.7771 60.1442 37.0401 61.0882 41.2761C61.1113 41.378 61.1015 41.4846 61.0604 41.5807C61.0193 41.6768 60.9489 41.7574 60.8592 41.8111C60.2742 42.1691 57.2552 43.9521 55.3062 43.9521ZM39.8342 29.4731C40.8452 29.4731 41.8102 29.9251 42.7002 30.8171L54.6512 42.7701C54.8032 42.9201 55.0902 42.9541 55.3052 42.9541C56.5222 42.9541 58.5402 42.0161 60.0312 41.1431C59.0892 37.2001 55.8622 27.5141 55.0592 25.1201C52.4152 26.3891 50.4622 26.7721 49.0452 26.3171C48.6642 26.1941 48.0572 25.8951 47.2152 25.4801C45.0262 24.4011 41.3602 22.5951 38.6832 22.5951C37.9532 22.5951 37.3412 22.7321 36.8652 23.0021C34.2282 24.4971 29.1352 29.4851 28.8172 32.6591C28.7492 33.3501 28.9272 33.8711 29.3662 34.2511C29.7952 34.6231 30.2692 34.8041 30.8172 34.8041C32.8032 34.8041 35.1572 32.4561 36.4212 31.1951C36.8432 30.7741 37.1212 30.4961 37.3202 30.3631C37.9432 29.9491 38.7912 29.4731 39.8342 29.4731ZM65.2062 42.3931C65.0999 42.393 64.9965 42.3591 64.9108 42.2961C64.8252 42.2331 64.7619 42.1445 64.7302 42.0431L57.8902 20.3511C57.8512 20.2247 57.8635 20.088 57.9246 19.9707C57.9856 19.8533 58.0904 19.7647 58.2162 19.7241L68.0772 16.6151C68.1399 16.5954 68.2058 16.5882 68.2712 16.594C68.3366 16.5997 68.4002 16.6183 68.4584 16.6487C68.5167 16.6791 68.5683 16.7206 68.6105 16.7709C68.6527 16.8213 68.6845 16.8794 68.7042 16.9421L75.5422 38.6341C75.5621 38.6967 75.5694 38.7627 75.5638 38.8281C75.5582 38.8936 75.5397 38.9573 75.5094 39.0157C75.4791 39.074 75.4376 39.1258 75.3873 39.168C75.337 39.2103 75.2789 39.2423 75.2162 39.2621L65.3572 42.3701C65.3083 42.3852 65.2574 42.3929 65.2062 42.3931ZM58.9932 20.5271L65.5322 41.2661L74.4382 38.4571L67.9012 17.7181L58.9932 20.5271Z" fill="#CB11AB"/>
</svg>
