<svg width="14" height="20" viewBox="0 0 14 20" fill="none" xmlns="http://www.w3.org/2000/svg">
<path d="M2.33333 8.83329H7.58333C8.35688 8.83329 9.09875 8.526 9.64573 7.97902C10.1927 7.43204 10.5 6.69017 10.5 5.91663C10.5 5.14308 10.1927 4.40121 9.64573 3.85423C9.09875 3.30725 8.35688 2.99996 7.58333 2.99996H2.33333V8.83329ZM14 14.0833C14 14.7727 13.8642 15.4554 13.6004 16.0924C13.3365 16.7293 12.9498 17.3081 12.4623 17.7956C11.9748 18.2831 11.396 18.6698 10.7591 18.9337C10.1221 19.1975 9.43944 19.3333 8.75 19.3333H0V0.666626H7.58333C8.61112 0.666669 9.61628 0.968387 10.4742 1.53437C11.3321 2.10035 12.005 2.90569 12.4095 3.85054C12.814 4.79539 12.9322 5.83818 12.7495 6.8496C12.5669 7.86102 12.0914 8.79659 11.382 9.54029C12.1784 10.0015 12.8396 10.664 13.2991 11.4614C13.7586 12.2588 14.0003 13.163 14 14.0833ZM2.33333 11.1666V17H8.75C9.52355 17 10.2654 16.6927 10.8124 16.1457C11.3594 15.5987 11.6667 14.8568 11.6667 14.0833C11.6667 13.3097 11.3594 12.5679 10.8124 12.0209C10.2654 11.4739 9.52355 11.1666 8.75 11.1666H2.33333Z" fill="#292929"/>
</svg>
