<svg width="20" height="23" viewBox="0 0 20 23" fill="none" xmlns="http://www.w3.org/2000/svg">
<path d="M5.33329 0.5V11C5.33329 12.2377 5.82496 13.4247 6.70013 14.2998C7.5753 15.175 8.76228 15.6667 9.99996 15.6667C11.2376 15.6667 12.4246 15.175 13.2998 14.2998C14.175 13.4247 14.6666 12.2377 14.6666 11V0.5H17V11C17 12.8565 16.2625 14.637 14.9497 15.9497C13.637 17.2625 11.8565 18 9.99996 18C8.14344 18 6.36297 17.2625 5.05021 15.9497C3.73746 14.637 2.99996 12.8565 2.99996 11V0.5H5.33329ZM0.666626 20.3333H19.3333V22.6667H0.666626V20.3333Z" fill="#292929"/>
</svg>
