<svg width="90" height="90" viewBox="0 0 90 90" fill="none" xmlns="http://www.w3.org/2000/svg">
<circle cx="45" cy="45" r="45" fill="#D5D5D5" fill-opacity="0.5"/>
<g clip-path="url(#clip0_1294_16191)">
<path d="M55.25 48.75C55.8023 48.75 56.25 49.1977 56.25 49.75V52.5H59C59.5523 52.5 60 52.9477 60 53.5V54C60 54.5523 59.5523 55 59 55H56.25V57.75C56.25 58.3023 55.8023 58.75 55.25 58.75H54.75C54.1977 58.75 53.75 58.3023 53.75 57.75V55H51C50.4477 55 50 54.5523 50 54V53.5C50 52.9477 50.4477 52.5 51 52.5H53.75V49.75C53.75 49.1977 54.1977 48.75 54.75 48.75H55.25ZM56.26 33.75C56.945 33.75 57.5 34.3063 57.5 34.9913V45.25C57.5 45.8023 57.0523 46.25 56.5 46.25H56C55.4477 46.25 55 45.8023 55 45.25V36.25H35V53.7488L46.7929 41.957C47.1834 41.5665 47.8166 41.5666 48.2071 41.9571L50.9571 44.7071C51.1446 44.8946 51.25 45.149 51.25 45.4142V46.122C51.25 47.0129 50.1729 47.4591 49.5429 46.8291L47.5 44.7863L38.5338 53.75H46.5C47.0523 53.75 47.5 54.1977 47.5 54.75V55.25C47.5 55.8023 47.0523 56.25 46.5 56.25H33.74C33.411 56.2497 33.0956 56.1187 32.8631 55.886C32.6306 55.6533 32.5 55.3377 32.5 55.0088V34.9913C32.5023 34.663 32.6336 34.3488 32.8656 34.1165C33.0977 33.8843 33.4117 33.7526 33.74 33.75H56.26ZM40 38.75C40.663 38.75 41.2989 39.0134 41.7678 39.4822C42.2366 39.9511 42.5 40.587 42.5 41.25C42.5 41.913 42.2366 42.5489 41.7678 43.0178C41.2989 43.4866 40.663 43.75 40 43.75C39.337 43.75 38.7011 43.4866 38.2322 43.0178C37.7634 42.5489 37.5 41.913 37.5 41.25C37.5 40.587 37.7634 39.9511 38.2322 39.4822C38.7011 39.0134 39.337 38.75 40 38.75Z" fill="#909CB5"/>
</g>
<defs>
<clipPath id="clip0_1294_16191">
<rect width="30" height="30" fill="white" transform="translate(30 30)"/>
</clipPath>
</defs>
</svg>
