<svg width="24" height="24" viewBox="0 0 24 24" fill="none" xmlns="http://www.w3.org/2000/svg">
<path d="M11.9997 0.333374C15.1695 0.333374 15.565 0.345041 16.8087 0.403374C18.0512 0.461707 18.897 0.656541 19.6413 0.945874C20.4113 1.24221 21.06 1.64354 21.7087 2.29104C22.3019 2.87425 22.761 3.57973 23.0538 4.35837C23.342 5.10154 23.538 5.94854 23.5963 7.19104C23.6512 8.43471 23.6663 8.83021 23.6663 12C23.6663 15.1699 23.6547 15.5654 23.5963 16.809C23.538 18.0515 23.342 18.8974 23.0538 19.6417C22.7618 20.4208 22.3027 21.1264 21.7087 21.709C21.1253 22.3021 20.4199 22.7611 19.6413 23.0542C18.8982 23.3424 18.0512 23.5384 16.8087 23.5967C15.565 23.6515 15.1695 23.6667 11.9997 23.6667C8.82984 23.6667 8.43434 23.655 7.19067 23.5967C5.94817 23.5384 5.10234 23.3424 4.35801 23.0542C3.57906 22.7619 2.87346 22.3028 2.29067 21.709C1.69732 21.1259 1.23826 20.4204 0.945508 19.6417C0.656175 18.8985 0.461341 18.0515 0.403008 16.809C0.348174 15.5654 0.333008 15.1699 0.333008 12C0.333008 8.83021 0.344674 8.43471 0.403008 7.19104C0.461341 5.94737 0.656175 5.10271 0.945508 4.35837C1.23745 3.57925 1.69661 2.87358 2.29067 2.29104C2.87362 1.69748 3.57917 1.23839 4.35801 0.945874C5.10234 0.656541 5.94701 0.461707 7.19067 0.403374C8.43434 0.348541 8.82984 0.333374 11.9997 0.333374ZM11.9997 6.16671C10.4526 6.16671 8.96885 6.78129 7.87489 7.87525C6.78092 8.96921 6.16634 10.4529 6.16634 12C6.16634 13.5471 6.78092 15.0309 7.87489 16.1248C8.96885 17.2188 10.4526 17.8334 11.9997 17.8334C13.5468 17.8334 15.0305 17.2188 16.1245 16.1248C17.2184 15.0309 17.833 13.5471 17.833 12C17.833 10.4529 17.2184 8.96921 16.1245 7.87525C15.0305 6.78129 13.5468 6.16671 11.9997 6.16671ZM19.583 5.87504C19.583 5.48827 19.4294 5.11733 19.1559 4.84384C18.8824 4.57035 18.5114 4.41671 18.1247 4.41671C17.7379 4.41671 17.367 4.57035 17.0935 4.84384C16.82 5.11733 16.6663 5.48827 16.6663 5.87504C16.6663 6.26182 16.82 6.63275 17.0935 6.90624C17.367 7.17973 17.7379 7.33337 18.1247 7.33337C18.5114 7.33337 18.8824 7.17973 19.1559 6.90624C19.4294 6.63275 19.583 6.26182 19.583 5.87504ZM11.9997 8.50004C12.9279 8.50004 13.8182 8.86879 14.4745 9.52517C15.1309 10.1815 15.4997 11.0718 15.4997 12C15.4997 12.9283 15.1309 13.8185 14.4745 14.4749C13.8182 15.1313 12.9279 15.5 11.9997 15.5C11.0714 15.5 10.1812 15.1313 9.5248 14.4749C8.86842 13.8185 8.49967 12.9283 8.49967 12C8.49967 11.0718 8.86842 10.1815 9.5248 9.52517C10.1812 8.86879 11.0714 8.50004 11.9997 8.50004Z" fill="white"/>
</svg>
