<svg width="24" height="24" viewBox="0 0 24 24" fill="none" xmlns="http://www.w3.org/2000/svg">
<path d="M0.33769 23.6667L1.91502 17.8707C0.875684 16.089 0.329635 14.0627 0.333023 12C0.333023 5.55654 5.55619 0.333374 11.9997 0.333374C18.4432 0.333374 23.6664 5.55654 23.6664 12C23.6664 18.4435 18.4432 23.6667 11.9997 23.6667C9.93793 23.67 7.91246 23.1244 6.13136 22.0859L0.33769 23.6667ZM7.78919 6.52604C7.63853 6.5354 7.49131 6.57508 7.35636 6.64271C7.2298 6.71438 7.11427 6.80397 7.01336 6.90871C6.87336 7.04054 6.79402 7.15487 6.70886 7.26571C6.27767 7.82687 6.04573 8.51569 6.04969 9.22337C6.05202 9.79504 6.20136 10.3515 6.43469 10.8719C6.91186 11.9242 7.69702 13.0384 8.73419 14.0709C8.98386 14.3194 9.22769 14.569 9.49019 14.8012C10.7775 15.9346 12.3115 16.7519 13.9702 17.1882L14.634 17.2897C14.8499 17.3014 15.0657 17.285 15.2827 17.2745C15.6225 17.257 15.9542 17.165 16.2545 17.005C16.4482 16.9024 16.5392 16.851 16.7014 16.7484C16.7014 16.7484 16.7515 16.7157 16.8472 16.6434C17.0047 16.5267 17.1015 16.4439 17.2322 16.3074C17.329 16.207 17.413 16.0892 17.4772 15.955C17.5682 15.7649 17.6592 15.402 17.6965 15.0999C17.7245 14.8689 17.7164 14.7429 17.7129 14.6647C17.7082 14.5399 17.6044 14.4104 17.4912 14.3555L16.8122 14.051C16.8122 14.051 15.7972 13.6089 15.1777 13.3265C15.1124 13.2981 15.0424 13.2819 14.9712 13.2787C14.8914 13.2705 14.8107 13.2795 14.7346 13.305C14.6586 13.3306 14.5889 13.3721 14.5302 13.4269V13.4245C14.5244 13.4245 14.4462 13.491 13.6027 14.513C13.5543 14.5781 13.4876 14.6273 13.4111 14.6543C13.3347 14.6813 13.2519 14.6849 13.1734 14.6647C13.0973 14.6444 13.0229 14.6186 12.9505 14.5877C12.8059 14.527 12.7557 14.5037 12.6565 14.4605L12.6507 14.4582C11.9832 14.1668 11.3653 13.7732 10.819 13.2915C10.672 13.1632 10.5355 13.0232 10.3955 12.8879C9.93653 12.4483 9.53652 11.9511 9.20552 11.4085L9.13669 11.2977C9.08725 11.2232 9.04728 11.1429 9.01769 11.0585C8.97336 10.887 9.08886 10.7494 9.08886 10.7494C9.08886 10.7494 9.37236 10.439 9.50419 10.271C9.61396 10.1314 9.71638 9.98616 9.81102 9.83587C9.94869 9.61421 9.99186 9.38671 9.91952 9.21054C9.59286 8.41254 9.25452 7.61804 8.90686 6.82937C8.83802 6.67304 8.63386 6.56104 8.44836 6.53887C8.38536 6.53187 8.32236 6.52487 8.25936 6.52021C8.10268 6.51242 7.94568 6.51398 7.78919 6.52487V6.52604Z" fill="white"/>
</svg>
